<svg width="221" height="184" viewBox="0 0 221 184" fill="none" xmlns="http://www.w3.org/2000/svg">
<path d="M168.42 2L168.949 2.43104L168.126 3.64578L171.438 6.27121L172.339 8.4264L180.489 10.7971L180.862 13.305L177.413 14.1279L178.746 15.5386L177.727 17.1256L181.371 21.6711L182.076 21.5731L182.743 19.6922L183.918 20.6327L183.703 21.9845L185.035 22.2001L185.995 27.5881L189.091 29.6061L188.522 32.1532L189.306 32.8585L188.64 33.1328L188.327 35.4055L189.678 36.973L187.523 38.3053L186.759 37.3452L185.642 38.3836L189.757 43.6737L190.678 46.3774L194.185 45.4566L195.047 48.6502L197.672 49.0225L198.809 50.9622L198.887 56.0367L204.745 58.1331L206.117 60.0335L207.782 60.4254L207.077 61.6989L208.076 64.9709L207.038 66.0681L210.917 68.8699L210.407 69.3988L210.505 74.1403L207.9 76.7461L205.646 76.8245L205.47 81.9186L204.059 83.0746L205.999 84.3677L205.744 86.8559L206.646 88.443L208.135 88.3842L209.643 89.5597L209.82 91.6953L204.138 91.519L200.278 89.3246L196.575 88.8936L194.459 86.2486L192.441 91.3231L191.344 92.3419L191.501 92.9297L192.461 92.9885L191.677 94.2816L194.322 96.4956L197.026 97.3772L198.084 98.7487L199.886 99.4541L201.238 101.923L202.472 101.119L204.157 102.452L208.252 101.511L210.035 102.256L211.27 104.117L214.796 102.315L217.461 102.589L216.814 104.235L211.975 108.741L210.956 111.17L212.092 112.895L219.812 115.54L219.792 117.754L214.698 119.968L215.698 120.771L216.54 124.709L215.678 126.316L218.499 127.53L218.578 128.177L216.736 128.373L216.716 129.353L209.389 130.92L209.154 129.725L207.018 129.96L206.822 129.215L205.549 129.019L204.961 130.058L205.725 131.684L201.062 131.998L200.885 131.077L199.338 132.429L198.809 131.586L196.516 130.802L197.065 133.487L195.321 133.565L193.793 126.002L192.167 126.747L191.677 124.494L192.147 123.984L190.736 123.514L190.129 122.201L188.758 124.494L186.015 124.102L185.211 123.612L185.603 122.358L184.996 120.203L184.153 120.457L183.938 119.341L180.509 120.085L179.569 118.91L179.431 119.478L178.001 119.517L177.923 121.437L176.12 121.535L175.121 128.784L173.025 127.628L172.476 130.077L169.615 130.92L169.537 132.213L170.909 133.251L170.83 135.74L170.301 136.23L167.695 136.347L167.245 137.17L166.5 136.915L166.716 135.583L164.012 135.642L162.503 134.251L161.053 136.034L157.115 136.817L155.156 139.208L155.195 136.759L150.375 134.035L149.161 133.957L147.809 132.507L147.201 133.487L144.027 134.78L140.912 134.349L139.913 137.797L135.583 136.974L132.82 138.835L133.839 136.817L133.056 136.23L131.919 137.425L132.683 137.875L132.115 138.424L132.938 140.168L131.508 141.402L132.017 142.068L130.998 143.89L131.586 144.498L129.45 145.85L129.411 147.241L124.454 149.513L122.534 151.218L123.22 152.08L122.848 152.648L121.79 151.982V152.981L120.477 154.059L120.614 152.746L119.654 154.666L118.008 153.628L117.832 154.764L116.225 154.823L114.913 151.786L111.817 152.687L111.131 150.963L108.839 150.63L108.114 151.923L105.861 151.453L104.568 153.432L103.804 152.923L103.118 153.824L102.687 153.452L102.079 154.764L100.669 153.667L100.277 154.353L99.0818 153.843L98.1414 152.002L97.4948 152.296L95.947 151.296L94.5363 151.669L94.066 150.983L91.9697 151.296L91.1468 150.454L90.6373 150.513L90.8137 151.649L87.4633 151.355L87.3458 152.609L86.6012 152.903L83.3293 152.335L81.899 150.611L81.3504 151.904L78.098 150.669L77.9021 151.512L76.5894 151.629L74.1207 150.826L70.2805 152.472L70.163 153.628L69.4185 153.354L68.4192 155.646L66.2052 155.528L68.478 157.938L67.6355 161.249L64.9122 162.209L63.2468 164.796L65.9114 167.049L65.1473 167.989L65.7154 168.479L65.5391 170.811L59.9552 171.144L58.1723 169.263L54.8611 170.125L53.8031 174.651L49.6494 175.297L48.3367 176.355L45.0255 177.061L45.1039 178.667L43.3798 179.314L42.6352 179.431L38.893 177.08L38.0702 177.844L37.7371 180.019L35.5231 182.37L34.132 182.233L31.2323 179.431L25.8835 180.333L25.8443 178.55L28.1954 177.962L28.4305 176.218L27.5097 175.65L29.3514 175.709L28.3326 170.301L25.237 169.361L24.5316 168.146L24.7471 166.716L27.0982 166.402L27.5881 164.188L26.53 164.13L26.3145 162.66L24.2965 162.014L24.4337 160.427L22.7095 160.368L20.0057 157.625L18.8497 157.566L19.2024 156.743L18.3991 156.136L19.124 154.529L20.4171 154.294L18.9085 151.962L19.222 151.296L12.6584 149.161L12.0119 143.009L10.3661 141.951L9.71953 138.894L9.01416 138.169L10.229 136.857L8.21091 135.818L7.25086 136.367L4.9389 133.839L5.68344 132.703L4.91932 131.919L7.81903 127.472L7.15289 127.06L7.09411 125.218L4.29234 126.394L2 122.162L2.58779 121.927V120.928L3.43026 122.28L4.95849 118.028L7.3488 118.812L6.95695 116.284L10.4053 115.265L10.3269 114.109H9.52359L8.99461 112.993L9.83708 107.448L8.40679 104.94L9.79791 105.253L10.4248 104.411L11.816 104.724L11.1302 106.253L9.89585 106.664L12.4233 109.466L15.6757 108.819L16.1851 109.623L18.4187 108.623L20.3192 108.819L19.7314 107.33L21.2204 106.821L23.4736 102.413L25.0802 101.766L25.0018 98.9642L24.1593 96.9854L24.5316 95.8686L25.3349 96.2996L27.8232 95.5943L28.9008 94.1248L29.9196 93.8701L32.9369 94.7322L33.7402 98.4548L35.0921 100.101L36.1109 98.5528L35.2096 96.6523L36.6007 96.0253L37.6979 93.6938L37.8938 94.6342L41.3226 94.3012L40.5389 99.6304L52.0201 101.629L52.1769 103.471L52.7843 103.569L54.4301 97.0246L55.8015 96.6523L55.5664 94.2228L57.1339 93.7526L57.1926 91.8521L59.387 90.5002L62.4043 94.2816H63.6974L65.8722 91.6366L66.7343 91.9696L68.2821 90.0691L70.3197 91.4406L72.6904 91.4602L76.4718 93.9093L77.765 92.5966L79.9593 92.6162L81.1937 91.6366L85.5237 91.8521L86.66 90.8725L88.2666 91.1272L89.1091 88.8936L89.8145 88.874L90.0887 86.2094L89.1091 85.3081L94.066 84.5832L94.791 83.6036L94.6734 82.0165L96.28 79.8222L97.3184 81.272L97.0246 79.5871L98.4744 79.0581L100.532 77.0596L101.021 72.3574L101.805 71.1426L102.51 70.7899L103.569 71.8871L103.902 70.9271L104.529 71.0055L103.667 69.2225L104.333 68.5564L103.059 68.3604L103.392 66.1073L107.957 59.1519L107.742 57.5061L108.643 57.9371L108.976 57.1143L107.585 56.3305L108.271 53.4308L108.976 52.9802L108.134 51.0405L108.643 48.5718L106.978 47.2199L108.957 42.9683L108.29 40.8327L110.563 39.3633L111.641 40.3429L113.737 37.5999L119.36 35.817L119.517 35.0529L117.714 32.3295L116.754 32.0356L116.715 31.2519L117.538 30.6641L115.069 29.3122L113.6 29.9784L115.187 28.1563L114.031 28.0191L114.619 26.6084L120.046 26.1382L122.515 26.5888L123.631 27.5881L123.906 28.3914L122.495 32.3687L122.573 35.7974L123.71 38.2073L125.434 38.5991L125.983 40.0294L127.295 39.8139L127.707 41.636L128.51 41.4205L128.843 38.7167L131.41 38.3248L132.115 36.3264L133.154 36.0129L133.487 35.0529L134.976 35.1508L135.289 40.4213L141.853 41.0091L144.38 36.6987L145.634 36.5811L145.497 33.9361L147.28 32.3295L148.573 29.0967L153.354 29.4298L154.216 31.6438L155.332 29.2338L154.118 23.6695L158.487 21.1225L159.506 21.2792L159.8 20.3192L155.979 19.3983L154.549 19.751L154.784 15.1075L158.898 12.8152L157.958 11.2478L157.213 11.5025L156.488 9.40604L158.389 9.95463L160.603 5.56587L160.309 4.84093L161.661 4.42949L164.463 6.21243L166.422 2.70534L167.774 2.86208L168.42 2Z" fill="#484848" fill-opacity="0.1" stroke="white" stroke-width="2"/>
</svg>
