<svg width="178" height="98" viewBox="0 0 178 98" fill="none" xmlns="http://www.w3.org/2000/svg">
<path d="M49.865 2.19594L55.4489 3.29313L56.9967 6.23203L58.4466 3.23435L59.5046 2.01958L60.2687 2L61.5422 2.74453L64.9122 7.29002L64.6183 9.7783L66.264 9.52359L68.4584 10.8167L70.1826 10.3269L72.8668 7.36841L75.9037 8.52437L76.5894 5.29159L77.8825 4.82135L78.4899 5.50711L78.9013 8.91622L77.4515 11.1498L80.7822 15.7933L82.9178 14.3042L82.8003 12.8544L80.841 9.64117L81.1741 8.21088L82.2517 7.56432L84.0346 9.60197L84.2501 14.7353L85.6412 16.7337L87.5613 17.0472L92.2831 15.5778L94.4971 18.6734L96.0841 17.9093L97.9062 18.791L100.473 16.048L103.882 15.7737L106.723 15.0879L111.151 23.6695L114.305 24.3161L116.069 23.2972L114.854 20.084L115.069 18.8105L116.598 18.9085L118.165 20.9853L120.83 20.9265L121.927 20.1232L121.535 18.791L119.595 17.0276L119.243 15.4798L116.01 15.9696L115.383 15.1467L115.657 14.1083L116.637 13.3638L118.185 13.3834L121.163 16.2635L122.789 16.3223L123.592 15.6365L123.808 14.2454L123.514 12.7956L122.28 11.5808L122.867 10.7187L124.2 11.6004L124.885 14.6961L126.218 14.892L127.334 12.874L126.159 9.95463L127.844 8.50479L129.274 9.05338L128.882 11.2869L130.195 13.6773L132.801 15.421L134.309 14.7353L136.014 12.0903L138.639 11.9531L140.148 10.6992L140.775 12.4625L146.437 13.8144L148.593 13.7164L150.082 11.9531L151.669 11.2869L157.076 13.0307L158.33 11.2478L156.547 8.79867L157.076 7.29002L159.408 7.25086L162.014 9.60197L163.561 8.87702L164.149 6.64346L165.481 6.52591L170.752 9.58236L172.711 15.4798L172.515 18.7518L173.828 21.24L176.101 22.494L174.063 23.983L172.025 24.2573L170.242 28.3522L166.441 28.3718L165.756 27.353L165.893 25.9031L165.07 25.2174L163.992 24.5512V25.3937L163.307 24.6296L163.091 25.4133L161.955 25.1977L159.545 32.2903L158.232 31.3303L156.332 32.0356L154.941 30.5074L153.569 30.0959L151.786 31.585L149.925 32.0552L146.868 28.5089L146.222 26.0206L144.987 27.3725L141.794 27.1962L143.381 28.4306L143.969 31.3695L143.753 31.8593L142.597 31.1343L140.912 31.4674L140.305 33.6226L136.053 32.3295L135.877 33.0348L133.878 31.1735L133.976 29.6649L132.605 27.5489L130.881 28.1366L126.139 27.6468L124.494 29.6061L122.652 28.5089L121.809 29.1163L125.16 34.0341L127.041 35.0921L128.02 34.3279L128.941 35.0529L129.392 38.1289L128.451 40.0294L127.237 40.2253L125.826 39.3829L124.748 37.404L123.612 38.1289L120.555 33.7989L119.889 33.9557L120.732 36.6595L119.458 36.9338L119.38 37.7175L117.636 38.991V39.7355L115.579 41.9887L116.323 43.6737L116.225 44.6337L115.305 44.3398L115.598 45.4174L114.07 45.4958L113.345 44.7709L112.483 45.2803L112.366 47.4159L111.033 46.8477L110.759 47.8077L109.27 48.5131L105.587 47.3963L104.685 48.8069L103.255 49.1792L103.471 49.9433L102.452 49.2968L100.14 50.7074L99.3169 49.6494L98.3373 50.825L97.5732 50.2764L97.4556 50.9817L96.5543 50.9622L96.1625 51.6479L96.6523 53.4112L94.2424 55.9191L92.6946 60.9936L88.6389 64.0305L87.6397 68.4584L86.7188 69.6928L81.6247 71.2798L78.6858 70.3393L71.2798 72.0635L68.8503 71.4365L68.1841 72.7492L67.1849 73.0823L65.1865 72.1614L62.8745 72.808L61.8753 74.0619L59.5046 75.1787L53.4504 74.8848L51.0601 74.1207L47.1612 75.2963L28.9204 77.5886L26.0598 79.7046L23.4932 79.783L22.8074 83.0354L19.2612 87.9336L19.1632 89.6773L17.9289 89.8536L16.9492 90.8529L15.8716 93.302L12.6584 94.5951L11.7768 94.0857L10.7579 96.2017L8.66152 95.32L7.97578 96.2017L2.94046 96.0449L4.60583 89.4814L6.99614 86.1115L7.91699 83.4076L6.91777 83.0354L7.0941 82.3105L4.6842 80.0965L4.46868 79.1168L5.42872 78.725L5.2132 77.236L2.70534 74.4734L3.25393 73.8072L2.62697 73.4938L2.96004 72.71L2 69.5752L2.82289 68.2037L2.35267 66.4208L7.74066 60.5234L6.8198 58.3682L7.17247 57.6628L8.25007 57.2122L10.464 58.0939L10.7187 56.4089L12.5213 55.9583L12.5801 53.372L14.265 52.9606L13.7752 51.1385L14.8136 50.6682L16.577 51.3736L17.2235 51.0405L17.3803 49.7278L15.8129 48.4347L15.9892 47.3767L15.2447 46.8673L17.6938 44.7121L20.28 44.2223L25.4917 36.7183L30.331 31.7613L34.6023 29.9588L37.1297 29.998L39.2457 29.1751L42.8116 29.7628L44.3986 31.2323H48.8657L49.5515 29.5669L48.1212 24.6688L48.2192 12.4429L47.2591 10.5816L47.3571 7.15289L46.8673 6.48674L49.865 2.19594Z" fill="#484848" fill-opacity="0.1" stroke="white" stroke-width="2"/>
</svg>
