<svg width="203" height="219" viewBox="0 0 203 219" fill="none" xmlns="http://www.w3.org/2000/svg">
<path d="M181.939 2.64656L182.684 2.43104L189.012 5.13483L189.914 4.6842L191.187 5.09565L193.577 2.90126L194.812 2.97963L196.301 4.27275L196.105 5.23279L197.104 5.72261L196.183 8.1717L194.616 8.75948L195.38 10.5424L194.361 10.9147L194.949 11.62L194.126 12.5605L194.204 13.9907L193.519 15.0683L192.657 15.1859L193.205 16.7925L191.99 18.9869L189.737 19.8685L190.854 21.2008L189.522 22.5527L189.737 24.0026L191.187 26.1382L190.482 26.3537L190.129 28.215L191.481 28.411L190.501 27.9407L191.403 27.3921L196.203 29.6061L196.046 30.7033L197.653 31.2715L198.24 32.643L197.849 33.6226L199.122 33.2699L201.317 34.034L201.904 33.4855L201.865 38.7951L199.769 38.8539L197.026 40.0686L195.458 37.5607L194.518 37.5215L192.304 39.6376L189.737 39.5592L188.934 41.3029L190.952 42.165L193.597 45.3978L192.069 50.5311L190.443 50.5703L189.502 49.767L188.268 50.1588L187.856 51.4715L185.799 50.9621L185.055 52.0201L183.252 52.1377L183.37 52.9998L180.45 53.2349L180.392 55.3313L176.806 57.6041L177.159 60.7585L177.884 61.072L178.413 62.5806L176.884 63.2663L175.474 66.3424L174.592 66.2444L174.043 67.0673L174.808 67.3025L175.631 70.163L177.727 72.5337L178.256 78.7446L177.257 80.841L178.844 81.3112L179.02 84.7008L181.391 87.4241L183.468 87.7964L182.429 88.9132L179.353 88.8152L179.118 89.6381L179.98 91.7345L181.038 92.3223L181.508 95.6531L178.667 97.1813L177.884 96.8286L177.413 98.1022L177.707 99.7675L176.826 100.884L176.355 104.019L177.609 105.195L176.551 106.605L177.727 107.252L177.433 109.015L176.532 108.957L176.14 107.957L174.572 107.82L175.023 108.741L176.003 108.819L176.14 110.21L174.514 110.465L172.829 110.093L172.868 108.898L171.3 108.055L172.554 106.645L171.947 106.135L170.066 107.507L171.379 110.348L171.242 112.757L173.083 112.718L174.024 115.109L173.221 116.852L171.849 117.283L172.711 117.989L171.496 118.263L173.671 118.753L172.711 121.28L173.338 122.534L170.909 125.258L171.457 127.648L170.576 128.255L168.126 128.353L167.186 129.411L167.735 129.921L166.246 132.213L168.224 134.133L165.09 139.521L165.854 140.207L166.128 139.697L171.281 140.638L171.379 141.618L173.475 142.029L172.809 144.067L174.337 145.36L172.672 146.594L171.594 150.042L173.946 151.042L173.965 150.042L176.571 148.514L178.021 153.706L178.707 154.078L179.51 153.452L182.096 153.314L181.822 157.213L182.527 160.348L180.901 160.329L180.098 161.112L180.705 163.169L179.98 164.757L180.979 165.188L179.079 167.46L179.902 170.301L178.942 171.124L181.273 175.689H182.488L182.958 176.767L184.134 176.63L184.584 177.178L182.919 178.295L177.923 179.451L178.824 181.214L178.628 185.152L176.532 186.25L176.845 187.19L175.67 190.834L176.884 191.598L175.493 191.971L175.278 193.225L172.065 197.202L173.279 199.338L171.634 201.121L170.36 201.258L169.655 204.295L166.99 204.197L167.362 205.47L166.637 205.764L166.226 207.429L165.266 207.273L164.345 208.115L164.855 208.82L162.993 209.428L163.228 211.015L157.958 214.62L154.843 214.933L154.608 215.874L155.509 216.442L154.882 217.324L153.491 216.658L153.079 217.147L152.139 216.109L151.708 216.814L151.473 216.266H146.986L147.084 214.914L144.498 215.266L144.282 216.442L139.697 216.109L137.248 217.598L134.643 215.031L135.054 211.975L131.88 212.034L129.098 210.701L128.588 211.172L127.06 210.407L126.766 209.036L123.886 209.31L123.396 210.133L123.886 211.387L121.946 212.269L121.711 213.954L119.262 214.639L119.948 215.776L119.223 217.363L118.185 216.579L117.519 217.147L116.833 216.344L112.033 217.422L111.876 216.716L113.012 215.227L112.777 214.385L110.308 213.934L108.075 214.581L107.546 212.68L109.015 210.388L105.724 211.916L104.039 205.94L100.277 204.628L100.963 203.472L100.022 202.962L101.315 203.119L101.472 201.924L102.471 201.826L102.961 202.884L105.351 202.12L106.566 200.356L105.9 199.122L106.566 197.241L104.666 197.124L100.277 197.28L99.2582 196.908L97.2205 191.677L94.6343 190.403L93.0081 187.935L89.8536 188.797L89.8341 190.345L88.1295 190.678L88.443 193.166L87.6985 193.577L87.8748 195.36L81.6639 195.027L80.3708 196.36L79.0385 195.948L79.0189 198.005L77.9805 199.2L73.9836 198.671L72.9647 199.573L70.7704 198.456L70.4373 199.24L68.7327 199.2L65.2452 201.434L63.7758 201.277L63.5015 199.729L60.6214 197.966L57.8784 201.434L57.1926 198.75L53.1173 197.222L53.1566 195.497L52.608 195.556L52.3533 194.381L48.5523 193.695L48.5326 192.304L47.22 192.265L47.2591 190.188L50.5507 190.423L51.1385 189.776L50.6095 189.051L51.0601 188.327L49.336 186.622L50.8054 183.801L50.5311 181.273L49.7866 181.018L49.7474 180.137L48.709 180.489L48.6306 178.177L47.0828 178.04L47.1416 177.08L44.2615 175.297L44.3986 172.809L41.1854 172.28L40.5192 173.926L33.2895 174.004L32.8193 174.651L29.5278 173.73L28.8029 172.966L27.9212 173.534L27.6861 175.728L26.2166 176.003L25.1194 175.924L24.8451 174.788L25.7268 174.945L25.7856 173.848L27.7057 172.319L25.0606 174.318L21.1813 172.476L18.7322 173.103L18.5755 171.81L19.4179 170.184L18.3795 168.518L19.2808 168.185L20.2996 168.969L20.5543 167.558L21.4751 166.755L20.6718 162.19L18.7322 161.073L18.3795 160.152L15.3231 159.329L13.7752 154.705L12.5409 153.001L12.5017 149.219L9.91547 148.161L9.66075 146.457L3.07763 146.868L2.64659 143.734L3.56745 141.461L2 139.266L3.84172 138.385L4.1356 137.581L2.54859 135.25L2.3331 131.547L3.03841 130.548L4.76258 130.802L5.5855 130.254L4.03766 129.47L4.99768 127.648L3.25396 125.316L3.84172 124.67L6.1537 124.905L6.76107 124.415L6.66307 122.828L5.52672 121.515L10.4837 119.027L11.0714 116.911L9.75875 117.479L10.3661 116.754L9.13177 116.049L11.1107 114.129L12.9131 113.365L12.0119 111.073L13.1875 109.113L10.7972 104.137L9.21016 104.548L8.62234 103.941L8.32846 101.59L10.9735 100.59L11.0519 99.9047L8.93583 98.7095L8.46563 96.0841L7.52515 95.1829L8.40685 91.3623L7.62315 90.8921L6.11448 91.9305L4.88013 89.6185L4.91935 88.7173L6.56513 87.8944L4.84096 87.4045L3.60662 86.0135L4.27276 85.2102L6.07531 85.6608L6.70229 85.0534L5.23284 84.0738L5.31117 83.3293L3.52823 82.859L3.70461 81.6443L5.29162 79.685L4.09643 78.3331L4.95852 77.6866L6.31042 78.9993L7.66232 79.1364L8.05414 77.4515L7.23128 74.4342L11.2086 73.5917L11.5221 71.2602L12.874 68.6739L12.3646 68.1645L10.7384 68.6348L10.5228 67.8315L11.7376 67.0869L13.3442 67.1849L13.1679 66.2249L14.2063 64.8338L13.0307 61.7773L15.9108 60.5038L16.6162 57.3298L18.7518 55.4489L19.3395 53.4504L22.9446 53.901L24.4337 51.4128L23.454 48.4739L24.3161 47.7293L25.7268 48.611L26.3342 47.8469L25.3545 47.8077L25.3741 47.0632L26.9807 46.0052L27.5881 46.5342L28.7049 46.2403L28.4501 44.7317L30.0764 44.3594L28.94 43.3994L29.5473 42.4589L30.527 43.7912L31.5458 43.5365L31.5262 42.4589L30.3702 42.0279L30.8209 41.2833L30.3899 40.6172L31.4674 40.4017L30.9776 39.3633L31.8005 39.4808L30.9972 38.7167L32.0356 38.1289L31.0364 36.6791L31.6046 36.4244L31.9769 37.5215L32.643 37.5803L31.6634 35.0921L32.8977 34.9157L32.7802 33.3483L33.6226 33.1916L33.5443 34.0145L35.2096 34.6022L40.4997 33.2112L42.5961 33.2699L45.4762 31.9768L46.7497 34.4063L50.2373 35.2292L50.1393 36.3068L51.0993 37.4824L52.9606 38.4032L55.8016 37.306L57.271 34.2104L56.8008 33.6226L57.6041 31.6437L61.6598 29.9392L61.1504 28.6265L62.9137 27.7252L66.029 27.7644L67.2045 30.1155L68.5956 30.3898L70.594 29.4102L76.2759 30.6445L80.7235 30.6053L83.486 31.4282L84.0151 32.6626L87.9532 30.8013L90.2847 32.3883L93.6351 31.1147L95.947 31.9376L99.6696 34.6218L99.4737 35.719L98.5332 36.777L97.1226 37.0905L97.6516 37.8154L96.8287 38.1289L100.532 37.2081L108.702 39.2457L108.996 38.0701L111.269 38.2073L112.248 35.3664L115.461 35.2488L117.323 33.7793L119.262 33.4267L121.79 31.7809L121.966 29.9784L123.514 29.7041L123.69 28.5285L126.805 27.157L126.61 26.099L124.121 26.5496L125.512 22.4352L123.984 19.1044L125.395 16.7337L127.746 16.9688L128.804 16.2243L128.079 15.0683L128.53 13.0111H127.158L126.002 9.17093L126.1 7.52514L126.845 6.74143L129.294 6.66306L131.488 8.19129L133.173 7.72107L134.799 9.15133L136.19 7.66229L138.894 7.8974L140.893 10.6208L142.734 10.0918L147.75 13.8732L148.945 16.0871L152.57 14.1475L153.197 15.0879L155.332 14.363L156.547 14.892L157.958 12.8739L160.975 13.3834L161.171 16.0871L162.543 16.4202L166.206 13.4617L168.362 13.5205L168.91 11.8747L171.516 9.89586L172.692 7.60351L173.436 7.97577L173.534 8.91622L172.809 9.32767L173.24 10.2093L176.297 7.72107L177.57 5.70302L179.843 6.21243L179.98 2.76411L181.156 2.62697L181.43 2L181.939 2.64656Z" fill="#484848" fill-opacity="0.1" stroke="white" stroke-width="2"/>
</svg>
