<svg width="280" height="176" viewBox="0 0 280 176" fill="none" xmlns="http://www.w3.org/2000/svg">
<path d="M278.081 81.8795L278.218 82.4477L277.179 83.055L275.71 85.6021L271.831 85.6804L268.578 84.1326L267.089 84.9555L266.658 87.0519L269.068 88.6389L267.951 89.7949L265.13 90.5982L263.758 91.8717L264.327 94.1444L264.738 92.6162L265.13 93.7135L262.759 98.7292L264.013 105.998L266.266 109.76L260.761 113.443L253.218 114.051L250.749 116.363L237.681 114.207L235.369 114.619L234.232 116.167L232.488 117.068L229.393 116.5L224.828 118.42L224.26 117.068L222.908 116.304L222.927 114.599L220.478 111.915L214.914 108.251L207.9 106.076L202.237 107.272L198.319 109.446L194.753 113.443L194.89 115.834L197.28 117.029L192.852 119.302L192.559 120.497L193.283 121.672L194.929 122.495L194.577 123.044L190.384 121.084L186.367 121.515L185.544 122.554L185.819 124.063L184.859 125.924L181.743 126.688L179.725 127.922L178.138 131.469L177.747 134.721L174.592 137.601L172.378 136.817L172.496 135.485L171.222 134.172L169.263 133.663L168.499 134.192L166.951 133.173L163.777 134.114L163.757 134.917L162.229 135.407L160.701 134.878L151.277 135.818L147.358 138.052L143.283 139.345L133.193 145.242L130.371 148.769L127.413 156.371L126.002 157.096L125.885 160.309L123.142 159.858L121.202 161.073L119.419 164.267L113.953 165.403L111.288 171.457L106.86 172.261L105.077 173.671L101.942 173.887L100.865 174.69L94.8106 173.573L94.889 171.967L95.5551 171.32H96.9854L97.9258 169.596L92.9101 161.387L92.146 156.88L86.5621 154.098L85.9939 153.04L86.0919 149.611L88.3646 148.26L88.6389 147.495L88.1687 145.34L84.8575 143.361L80.1161 145.223L78.4311 143.636L78.2352 142.166L79.0777 141.226L80.9781 141.5L82.2909 140.834L81.6443 137.915L80.6059 136.994L76.3347 136.837L74.6301 135.779L72.9451 136.014L73.239 133.251L74.493 133.389L75.8449 132.585L76.7266 130.587L77.1575 126.708L76.2955 120.536L76.5894 118.557L73.866 110.308L70.6528 105.724L66.3816 101.786L62.1888 99.7871L59.7201 101.903L56.7028 102.04L55.2334 104.45L53.7052 104.411L51.6283 101.962L48.7874 101.002L46.3971 99.2385L40.7347 92.3419L35.6211 87.6789L30.331 84.3285L26.9611 83.6624L20.4171 83.9759L13.3637 88.7761L2.96002 85.7196L4.19437 84.3677L4.27276 83.0942L2 81.0565L6.11448 75.5118L9.17093 73.0431L14.4414 69.8887L16.2243 69.3597L17.106 69.7712L17.3607 68.5172L22.5723 65.3824L23.5324 66.2053L24.4728 65.6959L24.943 66.2053L26.197 64.0697L25.8051 63.3448L24.5316 63.3839L24.7275 62.855L30.5857 57.996L42.8508 51.1385L45.6721 50.6683L46.7497 48.5914L48.082 42.4197L47.5922 44.0851L48.4151 45.535L50.8054 47.3571L52.3336 47.6118L59.6809 44.4378L64.5595 39.6964L66.1269 40.6956L66.5775 39.7943L67.7531 39.4613V38.3053L68.5564 37.8154L69.2029 37.7567L69.6144 39.1282L71.5149 38.4229L71.9459 39.6376L72.4749 39.618L74.0423 36.444L74.8652 36.5812L77.1575 34.4063L78.7446 36.0326L79.9594 36.2872L81.7423 38.991L81.5464 32.8193L82.5652 32.8781L84.6224 30.958L86.5817 31.3499L86.8756 30.8013L85.9155 28.6657L80.3512 28.2934L78.8034 28.9008L78.6858 29.5278L77.3927 29.0771L78.3331 27.5097L77.2164 18.9477L79.0777 16.0676L77.2752 11.1302L78.6466 10.6404L77.2164 2.3331L79.156 2L81.9382 4.74303L82.9766 4.99768L83.6036 7.99542L84.3089 7.32922L84.9359 7.58393L84.6812 9.28848L85.4649 10.3661L86.7776 10.8559L87.5025 10.2093L89.0699 12.4429L89.501 12.5997L91.5386 9.6412L90.4218 9.21016L89.9712 7.09411L91.1076 6.33003L92.4399 7.30966L93.831 9.42565V10.5621L92.1068 12.678L92.577 13.5205L91.1272 13.0111L90.9704 13.9712L92.9101 14.1671L95.32 16.1852L96.28 19.5746L96.0058 20.1429L95.2025 19.7118L94.9478 21.3184L95.5943 20.4563L96.4564 21.3184L96.8091 21.0049L96.7502 18.4971L97.5928 17.5174L98.592 17.1256L99.1798 17.5762L98.5528 17.8505L98.7487 18.8302L99.5324 20.8286L100.12 20.9462L100.708 20.5935L99.2973 18.595L102.824 17.9876L101.923 17.0472L100.434 17.5566L98.3961 16.1264L99.1993 14.9704L104.274 14.2259L107.311 16.8317L108.271 16.8513L108.976 19.6334L111.484 20.476L113.992 23.4736L115.226 23.8459L112.268 26.9219L111.739 26.8631L111.445 25.5896L109.603 25.7268L110.955 28.4306L113.091 28.5285L112.855 29.8216L115.775 28.9987L116.343 28.1955L117.166 28.9792L117.44 28.3326L116.578 27.7252L115.99 23.7087L114.834 22.827L115.246 21.7495L113.855 21.3968L114.501 22.396L113.776 22.6116L111.778 19.653L110.583 18.8302L109.779 19.2808L110.269 17.3803L112.503 19.1632L113.796 18.4971L116.363 19.751L117.166 19.4963L118.831 20.9265L118.812 22.1217L117.871 22.396L118.851 24.512L119.262 24.1006L118.655 22.5332L120.791 19.1241L121.751 19.9469L121.006 22.0042L121.535 23.6304L124.121 24.3161L124.2 25.0802L125.199 24.1006L124.709 23.1993L125.12 22.4548L123.573 21.9846L123.671 21.3576L125.375 21.2009L126.394 20.378L128.686 23.3169L129.921 26.7652L135.23 31.0756L134.486 33.8186L135.074 35.9933L136.954 34.9549L138.385 31.2911L140.599 32.5451L141.598 31.8985L139.678 27.0003L140.56 25.8639L139.756 25.0802L145.301 28.6657L146.006 29.998L144.576 34.6807L139.658 37.0122L139.639 38.991L137.111 41.205L136.837 42.4197L133.526 42.6157L134.368 44.5162L139.208 43.4974L143.322 38.9519L146.575 36.4636L151.453 34.8961L152.903 33.7794L153.941 35.6015L153.216 36.8358L151.61 35.5231L147.613 37.6783L146.555 42.9879L152.825 40.7936L153.079 42.6941L153.824 42.4981L154.843 43.6345L153.51 45.6134L152.55 46.0052L152.296 47.5922L149.827 47.9253L147.495 50.4724L148.651 50.8446L148.984 51.8634L152.589 50.2373L153.53 50.4331L155.117 49.238L161.112 47.5922L157.37 50.6291L158.35 50.923L158.291 52.9802L160.975 51.2169L162.033 52.5884L161.21 53.0782L161.191 54.1754L162.307 55.2334L163.62 54.2929L166.971 53.666L166.618 55.6644L167.97 57.1535L170.889 58.0547L174.886 65.7546L176.453 72.6709L174.847 74.6301L172.006 75.7078L171.026 77.0988L172.985 81.8011L174.984 84.6224L178.256 86.9539L179.275 86.856L180.019 85.9547L182.057 86.2878L187.347 89.7165L192.441 91.7346L193.166 92.6946L191.187 94.4972L192.774 95.6139L192.696 96.7111L193.969 94.36L198.926 93.2824L199.573 93.8898L199.808 90.5002L196.732 90.128L194.635 86.425L192.108 84.8575L190.384 81.468L189.345 81.8011L183.938 72.6121L180.979 68.576L179.118 67.0869L174.239 59.7789L172.927 58.8972L171.438 55.5077L170.301 54.2341H169.478L167.068 46.9456L165.227 44.3595L166.324 43.7912L173.671 58.0939L189.326 79.7634L195.987 87.0127L199.671 89.7753L203.53 91.6562L209.349 88.8348L216.834 86.9343L217.304 85.3473L219.42 83.3293L219.557 82.428L218.754 81.4092L223.633 77.4123L223.476 74.924L225.435 73.7681L226.983 74.4538L225.18 76.1584L226.65 78.8034L230.431 82.1342L233.723 83.5252L236.858 83.2705L239.13 81.6639L240.326 79.979L240.169 76.9617L241.07 76.1192L246.066 74.2579L254.354 73.0627L256.646 74.0815L258.057 73.5329L259.997 74.2579L262.74 76.3151L265.365 75.3355L267.05 75.453L270.459 78.1372L272.164 78.5487L273.065 78.1372L273.476 76.9617L274.926 77.138L276.102 78.725L275.828 80.0965L278.081 81.8795Z" fill="#484848" fill-opacity="0.1" stroke="white" stroke-width="2"/>
</svg>
