<svg width="173" height="238" viewBox="0 0 173 238" fill="none" xmlns="http://www.w3.org/2000/svg">
<path d="M89.9711 2L91.2055 4.64503L92.4007 4.39031L94.2424 6.58468L91.4602 8.36763L92.1068 9.2101L91.4994 9.8175L92.5183 10.7579L97.3968 12.8935L101.021 13.0699L101.511 10.6404L103.804 11.0518L102.53 19.3004L101.962 19.9273L105.097 26.3145L102.04 27.3333L102.06 29.371L100.453 28.4893L98.9055 31.389L101.08 31.4674L101.355 32.3687L104.176 32.3099L105.939 33.2111L107.311 33.27L108.036 32.447L112.189 33.0544L113.424 32.5842L113.345 41.8711L115.579 41.636L116.656 43.4777L119.282 43.2426L119.38 44.5749L117.675 44.7317L116.97 45.7113L117.303 48.4151L115.951 50.6879L117.499 52.2944L119.654 52.5295L120.144 53.9402L118.753 54.4692L119.458 55.4881L119.439 57.3689L117.617 57.8L117.479 58.6817L115.833 59.2303L116.754 71.5149L119.556 74.8456L118.4 76.6286L118.694 78.2548L117.989 78.2743L119.693 79.4695L119.282 80.4688L121.359 82.1341L123.259 81.7227L123.808 82.9374L127.197 81.3504L128.216 88.3058L129.47 87.9336L131.233 89.5598L127.334 92.0089L127.609 94.1444L126.747 95.1437L126.629 97.2989L129.411 98.7683L135.367 98.063L137.777 100.395L137.738 103.079L139.247 105.449L139.11 106.723L138.267 107.546L138.914 108.78L140.893 109.838L144.674 109.917L144.498 111.151L153.001 114.031L152.256 116.892L153.647 117.675L153.706 119.243L152.648 121.006L154.176 124.141L167.558 125.062L167.597 129.784L168.734 130.685L169.811 130.411L171.065 131.508L169.263 136.112L169.851 138.346L162.131 138.502L156.88 137.817L156.567 138.718L154 139.071L153.295 141.559L153.53 143.773L150.983 143.871L150.434 146.437L151.375 148.162L150.983 151.394L149.67 152.55L149.866 156.665L147.437 157.096L147.339 155.274L142.773 155.293L142.911 158.213L140.383 158.232L140.403 159.662L139.599 160.681L129.196 160.76L128.941 163.228L121.986 163.424L121.966 167.264L119.184 167.304L118.87 170.399L117.44 170.517L117.499 174.004L118.087 174.592L117.714 176.963L118.733 177.453L118.635 185.466L117.597 185.505L117.675 187.073L115.305 187.621L113.267 191.814L113.404 193.656L121.006 193.891L120.359 196.34L120.634 197.947L120.046 198.652L117.812 198.73L117.675 200.2L114.051 201.062L114.873 202.766L114.364 209.898L112.895 212.955L109.525 217.03L107.565 217.363L105.175 213.405L102.726 212.621L100.59 214.816L98.1217 214.032L96.4368 214.306L91.4994 212.739L84.7008 215.169L78.9796 215.776L73.866 214.326L67.9882 215.639L66.6167 216.795L67.0282 218.48L64.8534 219.361L54.6848 234.076L52.0985 236.387H51.5695L53.7639 234.173L53.3916 232.155L51.2561 229.941L47.9057 228.354L44.6925 230.216L43.1054 231.92L40.4996 232.547L36.5419 234.84L33.7597 230.431L38.4816 226.611L38.893 227.061L41.636 225.455L38.3053 222.868L40.578 219.655L38.9714 217.833L37.6587 218.891L31.3107 215.893L33.074 214.816L32.3295 211.074L31.0952 211.387L28.7832 207.978L28.2542 208.194L27.9799 207.41L27.157 207.939L26.9415 206.783L26.2165 207.606L25.6092 206.607L24.8843 206.861L22.5919 204.177L24.8843 204.04L24.61 203.511L29.802 203.981L27.3725 192.598L28.5481 192.402L28.8616 193.283L34.1124 192.95L34.7981 194.263L37.6391 192.99L37.5019 192.245L40.2645 190.482L39.3828 187.053L41.3029 186.563L42.9879 190.345L45.6133 189.012L45.0647 187.288L47.6118 181.077L48.1604 181.038L48.3367 177.942L44.8492 177.786L45.0647 176.826L44.1047 176.395L42.5373 179.294L37.8154 175.101L37.3256 175.572L33.7597 169.596L32.4078 171.046L30.9776 168.753L30.0175 169.439L28.6656 167.499L25.2174 170.262L20.9069 162.817L16.6357 164.874L15.421 164.306L15.2446 162.934L16.6357 162.641L16.577 161.68L14.0103 162.092L13.5793 159.369L15.8324 159.016L15.9892 158.35L17.2823 158.702L18.4187 156.763L13.2658 157.311L12.4821 152.531L11.522 152.472L10.5032 146.046L5.01729 146.81L4.95846 143.753L5.76176 143.577L6.2908 141.304L6.03609 140.364L4.76258 140.658L4.29231 137.601L2.47021 137.719L2 135.034L5.19362 134.407V133.506L8.44601 133.526L7.66226 129.47L4.80174 129.803L4.27276 126.061L5.23278 125.787L3.70455 124.552L5.07607 123.71L3.93966 121.731L4.78213 120.555L4.40986 117.793L5.99693 117.303L5.89893 116.754L7.21166 117.616L9.03377 116.637H8.34801L9.30804 115.932L9.89585 117.088L10.8167 116.872L13.1678 117.95L13.5793 117.323L15.1271 118.792L15.5386 120.595L16.4398 120.007L17.3019 121.104L19.2415 120.536L19.7314 121.711L22.5331 122.456L22.8662 120.516L24.0418 120.536L25.3349 117.891L23.8262 107.605L24.7079 108.232L25.1781 106.821L25.9814 107.213L26.3537 106.566L28.0779 106.605L26.3537 95.0653L23.8655 95.3984L23.6499 94.3404L20.2408 94.7322L19.6334 91.2839L19.9273 89.599L20.8285 88.8544L20.4367 85.4845L21.2204 85.1318L20.5738 84.6812L21.5143 84.113L22.4743 84.3873L22.1805 81.7815L21.4164 81.7227L21.1029 77.6866L22.6703 77.2555L22.396 74.4538L26.0598 73.8072L25.7267 71.5541L23.7479 70.9467L22.9641 69.1442L19.8294 69.105L19.5159 66.3424L17.6742 65.9114L15.4993 66.3228L15.0683 63.3643L13.9516 60.7585L13.4421 56.7812L14.265 56.6244L14.8332 55.5076L13.3833 51.7459L13.109 49.1792L11.9139 49.1988L11.6983 48.5718L13.6772 45.5546L15.6365 45.9856L15.7149 47.1808L17.2039 47.9645L20.0449 48.1212L20.4563 48.7874L21.5927 48.6502L22.6899 45.8876L30.1155 46.6322L34.3475 51.0601L35.1313 49.4535L33.8381 49.3163L33.7597 48.5326L31.9768 47.0632L32.7997 45.7897L33.4855 45.8485L33.8185 44.3202L36.7183 44.7317L37.0905 42.7528L37.9526 42.9096L38.7559 41.0091L41.9691 41.8515L41.6752 42.8116L44.9471 44.6925L45.0255 38.2073L46.397 37.2669L47.3179 35.3664L49.9042 35.4251L50.0608 33.8185L53.9599 33.9557L54.2733 32.1727L52.8038 31.8201L53.4895 30.3114L51.8438 28.8616L52.608 27.9603L53.1957 28.3326L53.6463 27.6468L52.9018 27.2354L54.7239 26.4125L54.9982 25.5112L56.0562 26.726L56.9183 26.6084L57.1143 23.3952L58.1135 23.4932L57.7999 21.0049L59.1322 20.7698L59.8964 19.751L62.032 20.0057L62.13 20.5935L63.09 19.9273L64.05 20.28L63.8541 19.7706L65.8134 18.8889L65.4608 16.7533L64.5398 15.852L65.0885 15.323L68.3604 14.7548L74.3558 11.5416L72.612 9.5432L65.4999 6.87859L68.4584 3.97885L69.3401 2.97963L73.0627 2.45062L85.0142 5.54627L86.9735 5.11523L87.0127 5.62466L88.2862 5.74221L88.7369 3.39109L89.9711 2Z" fill="#484848" fill-opacity="0.1" stroke="white" stroke-width="2"/>
</svg>
