<svg width="268" height="176" viewBox="0 0 268 176" fill="none" xmlns="http://www.w3.org/2000/svg">
<path d="M64.8345 31.2911L67.2836 33.603L70.8691 35.0724L73.181 35.0333L74.2978 37.2472L76.4726 38.893L79.9013 39.3045L80.3324 40.1078L79.9601 42.3022L80.6263 43.3993L82.2329 44.0655L83.5652 43.6932L85.1718 45.339L87.229 45.9072L88.6005 47.2591L90.9125 47.2983L91.559 47.8077L91.4611 49.3163L92.8717 47.0044L92.5386 44.908L94.4 43.0663L93.4007 42.3218L91.6766 43.0075L91.4415 39.4612L94.8898 39.1673L93.3616 38.2661L93.4595 37.2277L94.9877 37.0709L95.0269 36.0129L94.204 35.8954L94.2628 34.3083L92.4799 33.0152L91.9704 31.7809L92.7346 27.2354L95.36 23.1601L93.6162 21.4751L95.36 19.9077L96.0849 18.1052L99.5332 15.9304L98.6124 11.8943L102.629 14.794L103.413 14.1279L104.843 15.2251L106.097 14.2846L108.448 15.852L109.878 15.1075L109.388 13.1678L110.094 11.6984L111.21 12.051L111.113 10.1506L112.406 10.2485L113.542 8.95541L115.07 8.54395L115.874 9.54317L116.775 9.36684L117.794 7.95617L118.832 8.23046L121.046 6.81979L122.653 7.09408L122.692 4.0964L124.024 3.43026L125.827 4.23357L126.728 3.48903L126.414 2.7445L128.903 2.37227L129.197 3.01883L131.548 3.74375L130.94 4.68419L129.51 4.54706L129.314 5.27198L131.469 6.44755L132.723 5.64424L133.527 3.03841L134.957 2L138.895 5.56585L138.915 6.66304L139.444 6.40836L141.07 5.7226L141.755 3.88088L143.48 5.17401L143.852 6.97653L144.4 5.66382L146.36 4.76258L147.673 6.32997L149.064 5.19359L151.023 5.35033L152.12 6.15364L151.101 6.48671L151.023 7.11369L153.394 8.79867L150.729 9.32765L150.807 10.4249L153.335 11.0322L153.844 9.87627L155.216 10.0918L156.391 12.0706L158.625 12.7172L158.821 13.736L158.155 14.4805L161.093 15.9108L160.956 16.6945L163.993 19.1044L164.757 18.6538V19.9273L168.48 21.965L169.851 23.454L170.537 23.356L170.322 24.3944L171.654 23.9046L171.869 22.9642L172.261 23.7871L175.533 24.3161L177.63 23.1209L179.805 23.1405L179.961 24.8647L183.449 24.6296L185.193 26.6476L186.172 25.1585L187.054 25.139L187.367 26.1578L188.739 25.7463L190.385 26.1774L190.894 28.3326L191.56 28.744L192.892 26.6084L194.362 26.5104L194.93 25.6092L196.458 25.1194L196.831 23.983L198.849 24.4728L200.494 21.5535L203.629 24.5708L202.904 25.5112L207.371 29.8804L205.412 32.7605L207.176 34.23L205.863 36.1892L209.487 38.031L208.802 40.6956H212.681L215.052 43.0075L216.09 42.7136L216.835 43.2818L216.208 44.8296L213.778 45.0451L215.287 46.7693L214.053 49.1988L223.339 55.7624L221.341 59.6221L225.671 62.8549L222.556 67.3612L224.26 68.6152L226.082 66.264L228.003 67.6747L228.061 68.3604L230.628 65.2844L229.805 64.7162L232.528 60.8369L234.253 60.2491L233.195 60.0531L233.88 59.0539L232.822 58.6621L233.097 58.2114L234.057 58.3682L236.565 55.4489L241.992 60.1119L242.913 60.1707L243.775 61.5814L248.124 60.876L247.967 60.1903L249.339 59.9552L249.3 59.2499L253.649 59.0539L254.1 62.0124L256.275 61.601L258.117 62.032L258.43 64.7946L261.565 64.8142L262.349 66.6167L264.327 67.2241L264.66 69.4772L261.016 70.1238L261.291 72.9255L259.723 73.3566L260.037 77.3927L260.781 77.4514L261.075 80.0573L260.115 79.783L259.174 80.3708L259.821 80.8214L259.018 81.1741L259.429 84.544L258.528 85.2885L258.254 86.9735L258.841 90.4218L262.27 90.03L262.466 91.0684L264.974 90.7353L266.698 102.275L264.974 102.236L264.602 102.902L263.798 102.511L263.309 103.921L262.427 103.294L263.936 113.561L262.623 116.206L261.467 116.186L261.134 118.145L258.332 117.381L257.842 116.206L255.883 116.774L255.021 115.677L254.12 116.265L253.708 114.462L252.141 112.993L251.729 113.62L249.378 112.542L248.477 112.757L247.87 111.602L246.909 112.326H247.615L245.793 113.306L244.46 112.444L244.578 113.012L242.991 113.502L243.344 116.265L242.501 117.44L243.637 119.419L242.266 120.281L243.814 121.496L242.854 121.77L243.383 125.512L246.243 125.179L247.027 129.235L243.775 129.196V130.097L240.561 130.724L241.032 133.408L242.873 133.291L243.344 136.347L239.308 137.366L239.17 138.189L235.075 138.698L229.688 138.15L229.492 137.307L226.278 137.052L226.337 138.973L222.928 139.462L222.164 137.954L217.579 137.934L216.874 137.307L217.383 135.27L214.758 136.406L209.507 136.425L209.272 134.643H212.23L213.073 130.9L211.799 128.882L212.505 128.275L211.78 127.178L210.173 128.236L209.429 124.787L207.998 125.277L207.9 124.768L209.272 124.043L208.763 121.319L207.313 120.947L206.842 119.713L208.939 118.91L208.096 115.481L203.002 116.656L203.766 115.461L203.296 115.03L202.767 115.442L202.689 114.188L203.59 113.62L203.512 112.855L202.356 112.033L192.344 114.599L191.795 111.484L187.563 111.817L185.016 107.546L172.947 113.737L172.692 111.935L160.643 109.113L157.645 106.978L154.687 107.957L152.904 107.095L149.651 108.408L145.008 108.271L142.206 109.309L140.678 111.602L137.641 112.385L137.288 111.739L132.684 112.326L132.704 108.369L130.411 108.682L130.274 108.114L128.805 108.173L130.117 115.873L127.766 116.382L128.217 119.87L128.961 119.928L129.549 123.004L131.979 122.828L132.684 127.785L130.333 128.334L129.921 127.217L128.276 127.844L128.432 129.098L125.141 129.548L126.14 134.545L129.02 133.212L129.686 135.877L131.528 135.798L131.783 137.915L130.274 139.012L131.136 144.85L135.368 144.106L135.78 146.692L135.212 146.908L135.349 149.513L133.703 149.709L134.193 153.001L132.018 153.628L132.664 157.174L133.703 157.115L134.506 160.387L133.977 161.308L133.566 160.76L133.664 161.778L132.919 162.092L134.545 162.876L133.781 163.816L135.329 163.561L135.839 165.442L135.29 167.108L132.743 168.322L129.628 168.46L120.38 166.304L115.834 164.521L111.642 164.208L101.453 167.597L92.9893 168.499L86.798 171.242L81.1749 172.633L71.79 174.514L69.9679 172.985L67.2836 168.891L48.22 171.947L47.6518 169.145L44.6737 170.145L44.7129 164.933L45.7121 164.58L45.9472 163.307L44.9088 163.072L43.89 160.622L37.1893 161.974L37.7966 166.167L27.2754 168.166L27.4125 169.38L28.8232 171.144L26.3349 172.202L26.2174 170.262L24.3169 169.184L24.4932 166.402L24.0034 166.03L21.6718 167.48L19.8302 167.343L20.0653 165.912L21.2604 164.678L21.0253 162.974L16.7933 163.953L11.6796 162.738L11.7775 160.858L3 161.328L5.35115 158.918L3.76414 148.73L10.3081 147.045L10.0338 144.831L9.34807 144.713L8.93658 142.832L10.0534 142.323L9.4264 137.915L10.9742 137.464L10.2102 133.036L11.2093 132.624L10.8567 129.274L6.76182 130.058L5.89974 129.627L5.09643 127.922L6.01729 127.55L5.15521 123.671L5.84096 122.417L6.95776 122.848L7.09493 120.457L7.99617 119.713L8.32922 117.714L12.8551 117.185L12.62 114.678L13.0315 115.128L15.1671 114.834L15.7549 117.029L15.0299 113.6L20.5943 112.072L20.4375 110.877L21.2604 110.759L21.1625 110.054L17.8905 110.896L17.6554 109.544L20.6922 108.8L19.7713 104.274L21.7306 104.137L21.8874 106.253L23.6507 106.096L23.925 110.975L24.8851 111.19L25.7275 109.446L26.5896 109.466L25.0026 106.488L26.4721 106.311L26.5505 105.587L34.1916 104.391L34.0544 102.706L37.4244 102.079L37.4636 101.472L38.6196 101.021L38.8547 98.494L41.7936 97.6515L40.8139 93.9093L39.658 93.733L39.7951 88.5997L37.0913 88.7369L37.0717 86.7972L36.0921 86.2094L36.817 84.9163L36.6603 82.8199L38.6 82.2713L36.9346 67.1065L37.6595 66.793L37.6007 65.9309L39.4229 65.8722L39.364 64.8142L44.2818 64.1676L44.6541 65.6371L46.8485 64.9513L46.1235 61.8361L48.6902 61.7773L49.278 63.0704L54.7835 59.9748L56.1158 59.0539L55.7239 56.115L58.6825 55.5468L58.9763 52.8822L55.3517 53.4896L55.1166 52.2944L54.0194 52.4316L50.8845 49.3751L48.7294 49.5711L46.6134 48.8069L45.908 46.4558L44.8892 46.8673L44.4386 46.2207L44.2427 41.9495L45.5553 41.6948L46.6134 42.7136L49.1016 42.3413L50.8454 39.951L51.4331 40.6564L53.2161 40.578L53.6667 42.5569L54.3329 42.694L56.155 41.8319L56.8407 42.4197L58.3102 42.165L58.2318 41.5772L59.3094 41.3225L59.7405 44.1831L61.9349 44.4378L61.9152 41.4597L62.9145 37.6979L63.6198 37.3452L64.8345 31.2911Z" fill="#484848" fill-opacity="0.1" stroke="white" stroke-width="2"/>
</svg>
