<svg width="143" height="187" viewBox="0 0 143 187" fill="none" xmlns="http://www.w3.org/2000/svg">
<path d="M2.39186 86.0135L2 84.6028L4.37072 80.41L2.76412 76.3543L4.01805 74.0619L4.11601 72.1027L6.34958 71.0642L6.07528 70.3197L3.93968 69.5556L3.25394 67.7139L4.9585 63.4231L3.58701 61.3071L7.13329 57.4277L7.46636 56.0758L8.15211 55.5273L9.13175 56.1542L10.4249 55.1746L11.8159 49.0029L13.1482 48.278L13.9515 48.8069L16.3027 46.1423L17.3215 46.8869L17.8701 46.593L19.0065 47.9057L21.6515 47.122L25.8247 48.4543L26.3733 47.3963L30.331 44.5945L32.8781 45.6134L33.5246 46.8869L36.248 43.752L41.5185 44.5358L42.2238 45.6525L43.223 45.8093L43.7128 44.1439L45.339 44.6925L46.0052 43.6541L47.5922 44.0851L50.7858 41.5772L55.9583 39.8923L57.5453 39.6376L59.7593 41.5577L60.9544 41.0483L60.9152 39.1673L61.7969 37.5411L61.3463 36.8358L62.1104 35.3272L57.8 35.6211L55.3313 35.0529L54.6847 33.9557L55.5664 33.1328L56.3501 30.331L54.5672 29.5277L52.314 29.9392L52.1377 28.0779L52.2161 26.628L54.8611 27.2942L56.0758 26.1382L57.2318 27.1178L58.7404 24.6491L58.2702 22.7683L61.072 20.2604L57.9763 18.8105L56.7812 15.0683L57.5649 13.8928L59.4458 13.5597L59.8572 10.8167L58.956 8.60276L59.6613 7.54474L61.8753 7.36841L61.2091 4.29234L63.2272 3.01883L63.2859 2.41146L64.0892 2.68576L63.815 2L65.5587 2.37227L66.9302 3.68497L65.9701 4.31195L66.6755 5.4875L68.2429 5.64424L70.2609 4.40992L71.8284 6.40836L74.6105 8.01497L75.7665 7.25086L78.6858 8.54395L80.1944 8.30885L82.8982 14.3826L83.917 19.4963L84.9751 20.0253L86.327 19.3591L87.1498 19.9469L87.816 22.2588L89.3246 23.2973L87.189 26.4713L87.3654 29.6061L88.1883 30.4682L88.4038 32.1728L94.0269 34.9745L89.2463 40.5976L89.2855 42.2826L92.2048 45.6525L96.0449 46.0444L97.5144 46.8281L96.907 50.3548L97.9454 50.6291L98.0434 51.5891L93.106 50.4136L92.3223 53.2545L96.476 57.5061L96.4172 59.387L99.8263 57.6041L104.607 60.6018L106.233 59.0148L105.861 62.228L108.31 64.2068L106.429 66.1661L107.859 71.8284L109.054 72.2398L109.799 71.7108L109.603 69.1246L111.562 67.3416L111.151 66.0093L112.464 66.4796L114.109 65.5195L113.757 70.4765L112.405 73.9444H113.58L114.874 71.9067L117.146 72.4553L118.106 74.2579L119.654 74.0423L120.183 74.6301L119.439 76.0016L115.951 76.0408L114.619 76.9421L114.325 78.5291L115.422 80.2924L117.225 80.4687L118.087 78.2156L119.458 76.7657L120.359 76.9029L121.339 78.2156L122.084 78.0197L121.476 72.8668L123.024 72.808L127.08 74.395L127.668 73.6505L126.943 71.8676L127.432 71.4561L128.628 71.9655L129.705 73.1607L128.392 74.7281L128.745 75.5706L132.096 78.1176L134.701 78.4507L138.306 82.1341L141.03 83.8387L140.755 84.7791L138.992 86.131L139.227 87.0127L141.813 88.0315L141.735 89.0112L139.717 90.7549L140.285 91.4994L137.288 95.7902L137.777 96.4564L137.679 99.8851L138.639 101.746L138.541 113.972L139.972 118.87L139.286 120.536H134.819L133.232 119.066L129.666 118.479L127.55 119.301L125.023 119.262L120.751 121.065L115.912 126.022L110.7 133.526L108.114 134.016L105.665 136.171L106.409 136.68L106.233 137.738L107.801 139.031L107.644 140.344L106.997 140.677L105.234 139.972L104.195 140.442L104.685 142.264L103 142.676L102.942 145.262L101.139 145.712L100.884 147.397L98.6704 146.516L97.5928 146.966L97.2401 147.672L98.1609 149.827L92.7729 155.724L93.2432 157.507L92.4203 158.879L93.3803 162.014L93.0472 162.797L93.6742 163.111L93.1256 163.777L95.6335 166.539L95.849 168.029L94.889 168.42L95.1045 169.4L97.5144 171.614L97.3381 172.339L98.3373 172.711L97.4164 175.415L95.0261 178.785L93.3607 185.348L90.8137 185.662L90.3435 182.801L87.6201 180.117L87.6593 178.863L86.6796 177.629L87.1107 176.238L84.1718 175.748L83.8191 174.592L83.0354 174.337L82.0949 175.239L80.9977 173.926L78.9993 174.161L78.7838 172.927L76.7461 171.829L76.3739 170.654L76.8637 168.753L75.4138 166.422L74.4342 165.952L73.8268 163.444L72.5925 163.287L71.9655 163.836L70.8683 161.896L69.6928 161.622L70.4765 156.449L73.7876 153.589L71.9655 149.768L69.3597 148.122L68.9286 146.672L67.4396 146.104L65.5979 142.715L66.7539 141.03L66.1661 139.972L67.0673 139.149L66.8518 138.522L68.478 136.778L67.1849 135.27L64.4615 134.133L64.9317 131.469L64.4223 130.469L61.5814 128.295L59.7788 125.571L56.4873 123.847L55.5272 122.671L55.8603 121.045L54.7239 120.046L51.2364 119.321L51.354 120.693L49.238 123.769L48.4151 122.907L44.1635 122.025L44.2027 121.32L42.2042 119.968L42.3805 118.655L41.5577 117.832L41.8319 115.403L40.8131 114.286L40.6368 112.405L41.6948 110.857L40.6956 109.721L40.5976 107.311L41.2246 106.253L40.3625 105.351L38.3249 106.194L37.4236 107.546L36.6987 107.076L34.661 108.584L32.1336 108.114L30.7425 111.288L30.9384 112.209L30.2331 112.777L27.0199 111.954L26.1186 110.269L27.255 104.313L25.9815 102.589L22.2784 103.333L18.7126 99.6892L18.3207 95.1437L12.8348 94.8498L8.36763 90.461L8.26966 88.8348L7.42718 88.0903L5.82058 88.0511L5.25239 86.758L2.39186 86.0135Z" fill="#484848" fill-opacity="0.1" stroke="white" stroke-width="2"/>
</svg>
