<svg width="218" height="201" viewBox="0 0 218 201" fill="none" xmlns="http://www.w3.org/2000/svg">
<path d="M175.826 2L176.473 2.2743L176.12 4.62541L174.847 5.1936L174.905 9.79788L176.218 12.5409L177.511 13.0699L178.687 14.7744L180.96 15.5385L182.194 17.635L183.957 16.6945L186.328 17.3019L185.642 19.3004L185.662 24.7471L184.839 26.8827L186.602 29.6257L186.7 31.3694L191.069 36.1109L194.185 41.2638L196.947 40.7347L200.592 43.3994L203.119 44.0067L205.313 45.4958L208.154 51.6087L210.153 53.039L210.721 52.7451L213.288 56.311L211.955 57.0751L211.838 58.5445L212.563 59.6221L216.481 65.0297L215.286 66.1661L211.818 66.1857L211.093 68.6347L214.013 70.7116L213.993 71.4757L212.759 71.6716L210.309 74.7477L208.86 73.2978L207.292 76.9225L208.801 79.2148L209.839 78.5486L211.368 78.725L211.603 79.5283L210.525 80.0965L211.328 80.6843L212.249 83.9366L213.425 84.4656L209.369 85.5824L210.27 87.5613L208.899 87.9923L208.703 89.1287L206.763 89.2658L206.411 90.99L207.135 93.3999L203.844 93.1256L202.864 95.3396L205.646 95.7511L205.372 96.6523L202.884 98.5332L200.494 98.3569L199.749 101.1L200.592 101.884L200.2 106.018L202.355 105.998L202.316 108.839L203.609 110.289L202.335 117.969L202.707 119.772L206.94 120.693L207.606 122.534L203.746 124.004L204.549 125.062L201.512 126.472L201.845 127.393L200.611 128.765L200.16 131.116L198.887 130.998L198.848 130.489L196.889 130.92L184.937 127.824L181.214 128.353L180.333 129.353L177.374 132.252L184.467 134.897L186.21 136.915L180.215 140.128L176.963 140.677L176.395 141.226L177.335 142.127L177.668 144.263L175.728 145.144L175.905 145.634L174.945 145.281L174.004 145.948L173.906 145.379L171.771 145.105L171.007 146.124L169.674 146.379L169.988 148.867L168.969 148.769L168.793 151.982L167.911 152.08L166.853 150.885L166.579 151.786L164.756 152.609L165.481 153.02L165.031 153.706L164.443 153.354L163.679 154.255L165.325 155.685L164.639 157.194L166.108 157.546L165.795 159.329L161.876 159.192L161.72 160.779L159.133 160.72L158.213 162.621L156.841 163.581L156.763 170.047L153.51 168.185L153.785 167.225L150.591 166.383L149.768 168.283L148.926 168.107L148.553 170.086L145.654 169.674L145.321 171.222L144.635 171.163L143.812 172.437L145.595 173.906L145.673 174.69L146.966 174.827L146.183 176.453L141.931 172.006L134.505 171.261L133.408 174.043L132.272 174.161L131.86 173.495L129.019 173.338L127.53 172.554L127.452 171.34L125.493 170.909L123.514 173.945L123.729 174.553H124.905L125.179 177.12L126.629 180.881L126.061 181.998L125.238 182.155L125.747 186.132L126.864 188.738L122.515 188.934L122.554 189.639L121.182 189.874L121.339 190.56L116.99 191.265L116.127 189.855L115.207 189.796L109.779 185.133L107.272 188.052L106.311 187.895L106.037 188.346L107.095 188.738L106.409 189.737L107.467 189.933L105.743 190.521L103.02 194.4L103.843 194.968L101.276 198.044L101.217 197.359L99.2973 195.948L97.4752 198.299L95.7706 197.045L98.8859 192.539L94.5559 189.306L96.5544 185.446L87.2674 178.883L88.5017 176.453L86.9931 174.729L89.4226 174.514L90.0496 172.966L89.305 172.398L88.2666 172.692L85.8959 170.38H82.0165L82.7023 167.715L79.0776 165.873L80.3904 163.914L78.627 162.445L80.5863 159.564L76.1191 155.195L76.8441 154.255L73.7093 151.238L72.0635 154.157L70.0454 153.667L69.6732 154.803L68.145 155.293L67.5767 156.194L66.1073 156.292L64.775 158.428L64.1089 158.017L63.5994 155.861L61.9537 155.43L60.5821 155.842L60.2687 154.823L59.387 154.843L58.4074 156.332L56.6636 154.314L53.1761 154.549L53.0194 152.825L50.8446 152.805L48.7481 154L45.4762 153.471L45.0843 152.648L44.8688 153.589L43.5365 154.078L43.752 153.04L43.0663 153.138L41.6948 151.649L37.9722 149.611V148.338L37.2081 148.788L34.1712 146.379L34.3083 145.595L31.3694 144.165L32.0356 143.42L31.8397 142.401L29.6061 141.755L28.4305 139.776L27.0591 139.56L26.5496 140.716L24.0222 140.109L23.9438 139.012L26.6084 138.483L24.2377 136.798L24.3161 136.171L25.3349 135.838L24.2377 135.034L22.2785 134.878L20.8874 136.014L19.5746 134.447L17.6154 135.348L17.0668 136.661L16.6945 134.858L14.9704 133.565L14.2846 135.407L12.6584 136.092L10.2093 126.12L13.0895 118.439L13.8732 117.832L16.4006 119.106L17.4587 120.771L20.0057 120.614L21.8474 121.339L27.3921 120.693L27.8624 121.065L27.0982 121.672L29.8412 123.338L30.6445 121.515L30.1155 119.027L36.3852 111.17L34.6023 110.426L35.4643 106.057L32.3883 104.999L33.7206 100.316L43.3994 102.177L43.6149 99.1602L39.9119 97.8475L39.8335 95.3788L38.3249 95.0457L38.7559 94.2816L43.6932 93.204L40.9699 86.2094L39.6375 84.4264L40.1861 82.957L34.8374 83.7603L33.4462 82.1537L29.2338 81.6835L27.5489 80.743L28.411 79.1756L27.5293 78.7446L28.5089 78.1176L28.313 76.6286L26.5105 76.413L25.3545 75.1395L25.4721 71.5149L24.8255 69.9279L26.1774 69.4185L25.8443 66.793L20.9657 63.9325L19.6922 64.4811L16.0284 63.8933L15.0684 61.1503L13.6185 61.1112L12.0707 62.561L10.6208 60.9152L9.46481 61.1503L7.58393 59.6025L5.80099 56.017L4.42947 56.3893L3.80255 55.7819L2 50.6879L9.03377 41.4009L7.09411 38.7559L6.89817 35.7582L7.56432 33.6226L9.60197 32.9173L8.87705 30.2723L11.3457 30.5074L11.7767 31.1147L12.0118 30.4486L13.3833 30.8404L13.4617 32.0748L14.3238 32.2707L16.2047 29.6845L16.1068 28.1954L18.9085 26.9807L21.3968 24.3161L24.1397 25.6876L24.4924 24.7471L26.9807 25.9227L27.2746 25.0802L28.5481 25.1194L29.1163 22.0629L31.5262 22.1805L33.2895 20.9853L31.1343 19.5159L33.3287 16.4594L36.6986 18.9085L36.5811 16.4594L38.3444 16.4202L39.5788 15.0291L40.6564 16.7925L41.8711 16.91L44.2615 19.1044L44.8884 18.5166L46.2011 19.3787L46.8869 18.2423L45.7309 16.7141L49.4143 16.4594L50.7858 15.421L53.1369 15.9892L52.8626 16.4986L53.8031 17.1843H54.9787L55.2529 16.048L56.2326 15.7541L56.5852 14.1083L55.0374 13.7164L55.3901 13.0111L60.4842 12.6388L64.7162 8.23048L64.9317 6.99614L64.2852 6.34958L66.7538 4.6842L67.1065 5.52669L68.0862 5.05646L69.1637 5.70302L70.4765 3.80252L72.9647 4.64501L82.1733 2.80329L88.4233 4.86053L89.4618 7.87781L90.4414 7.42717L93.4979 12.1098L96.378 14.3826L95.751 15.8912L97.4752 19.1828L102.138 19.6334L102.922 19.1436L102.55 18.4383L104.705 17.4195L106.468 15.4014L107.154 17.2627H109.897L110.896 18.6342L112.679 18.9673L112.757 19.8685L114.188 20.2996L116.656 19.9077L117.087 20.907L115.951 21.0245L116.225 22.2784L115.089 23.5324L118.322 26.1382L120.888 26.6868L122.711 24.8255L123.514 21.769L124.258 22.0237L125.277 20.7698L127.374 20.3192L128.824 18.164L133.016 16.9296L134.936 15.0291L139.56 13.4029L145.614 13.2658L147.182 13.9124L151.002 13.2658L150.924 12.4625L153.02 12.1882L154 12.8152L163.346 8.1521L164.717 5.40912L166.206 4.29234L171.457 4.74298L175.826 2Z" fill="#484848" fill-opacity="0.1" stroke="white" stroke-width="2"/>
</svg>
