<svg width="243" height="179" viewBox="0 0 243 179" fill="none" xmlns="http://www.w3.org/2000/svg">
<path d="M214.718 157.037L217.578 156.626L217.128 159.094L214.894 158.448L211.975 155.411L213.366 155.646L214.718 157.037ZM71.3973 150.258L78.0197 151.434L84.7987 153.628L88.1099 152.981L91.6366 150.807L94.0269 152.785L95.9078 153.099L96.7307 152.139L99.0034 153.765L102.863 154.098L104.666 155.176L102.197 155.881L91.9697 155.117L70.594 150.375L71.3973 150.258ZM197.868 144.85L196.712 145.654L196.32 147.025L194.048 148.24L194.322 150.904H193.832L193.048 147.456L195.635 144.948L197.868 144.85ZM221.556 143.538L224.044 159.29L230.333 176.453L229.256 177.022L227.747 171.927L226.278 169.929L225.102 170.184L224.495 172.319L223.182 173.593L221.654 173.808L221.125 172.515L222.496 169.282L223.299 163.483L222.437 162.445L222.398 160.74L224.573 162.915L222.888 158.624L221.615 158.095L221.948 156.057L221.184 156.136L220.576 152.923L219.361 151.649L218.127 151.825L217.069 155.763L215.619 152.883L213.699 151.864L214.385 150.238L213.836 148.847L211.289 147.828L211.27 146.888L214.62 147.476L217.245 146.496L218.303 149.396L219.028 149.69L220.243 147.946L219.655 143.557L220.988 142.421L221.556 143.538ZM9.48442 133.291L12.6584 132.86L13.0503 133.349L11.6984 133.761L11.5025 134.447L31.2715 139.325L14.2063 135.524L7.58393 133.036L4.09643 130.156L2.25471 126.943L2 123.259L2.80331 121.613L3.43029 121.751L3.33235 126.668L4.03766 129.176L5.70305 131.351L9.48442 133.291ZM106.625 4.11601L111.739 5.33078L115.971 4.33154L116.206 6.0557L114.991 7.29005L114.756 8.72031L116.598 8.85744L118.949 7.42718L119.439 7.77987L119.262 10.562L121.163 11.62L121.28 13.5597L123.769 12.5017L122.358 10.7579L122.221 9.5432L132.742 7.54474L132.154 3.3519L138.855 2L139.874 4.4687L140.893 4.7038L140.677 5.97731L139.678 6.33L139.639 11.5221L142.597 10.5228L143.165 13.3246L162.229 10.2681L164.913 14.363L166.735 15.8912L176.12 14.0103L181.783 16.9688L182.919 18.2227L184.134 25.3545L185.015 25.3153L186.328 33.1916L187.21 33.9165L188.718 32.3687L190.619 32.114L191.736 33.0348L193.519 32.6625L193.323 31.6438L194.655 31.3694L194.4 29.1555L201.101 27.8428L200.807 29.4494L198.671 30.0959L199.338 33.3483L201.219 33.0544L201.748 34.6023L201.983 36.1893L199.416 36.6595L201.336 50.3744L203.511 50.1784L204.451 58.3486L205.94 58.1527L206.548 61.1112L207.821 61.17L208.056 63.09L212.132 62.5806L212.386 64.6182L215.619 64.1089L216.756 72.0635L220.145 71.7696L220.948 77.0008L216.951 77.6082L217.48 81.7618L216.501 81.8011L216.481 83.8779L215.56 83.9367L215.58 84.7987L210.349 85.5237L210.466 86.7972L208.291 87.1107L208.821 90.6765L211.955 90.3239L212.151 91.617L216.285 91.088L216.912 96.5935L214.091 97.3968L214.698 100.865L216.442 100.806L216.971 103.843L225.847 102.432L226.199 105.038L225.298 105.293L225.905 108.232L229.432 107.703L234.507 110.837L236.72 110.544L237.916 128.059L239.816 127.883L238.131 130.038L235.408 131.723L226.199 133.682L222.006 137.111L220.654 141.226L218.127 141.343L217.128 140.05L215.286 140.56L212.19 139.07L208.429 140.089L208.037 142.401L209.467 147.515L207.018 153.647L205.744 155.763L202.923 158.35L202.335 157.252L201.434 156.841L200.788 157.311L199.729 158.271L198.73 160.995L198.084 157.801L198.671 156.508L197.751 155.626L194.479 154.803L194.596 153.628L195.635 152.1L198.652 152.57V151.962L196.36 151.551L195.772 148.397L197.28 147.221L198.24 145.379L197.927 144.596L198.711 144.713L199.416 148.064L200.239 145.36L203.001 144.243L204.353 146.751L204.275 147.28L203.393 147.123L203.491 147.985L204.608 148.397L205.842 145.595L205.98 140.873L204.412 139.893L202.943 137.797L202.022 137.856L201.316 138.855V140.266L202.414 142.401L200.592 142.871L200.317 143.655L198.417 143.244L196.849 141.794H195.968L195.458 140.442L194.675 140.422L191.99 137.64L190.051 138.13L188.914 136.367L189.051 134.486L187.935 132.076L186.877 131.802L187.895 134.643L186.935 138.091L187.739 140.54L189.012 140.07L189.522 140.834L188.248 143.009L187.954 146.339L186.602 146.672L186.387 141.52L184.114 138.933L182.566 134.427L181.097 133.212L180.235 130.92L178.334 128.745L177.355 128.804L176.395 131.527L174.827 130.156L173.985 131.135L176.884 131.978L178.883 138.071L180.764 139.776L180.47 140.971L177.57 143.244L176.884 142.401L178.138 139.306L177.159 136.641L175.944 136.269L175.101 139.012L173.397 139.58L173.671 140.05L175.023 139.404L175.944 140.226L176.551 141.382L176.297 142.773L177.864 143.851L176.904 145.732L175.944 143.871L174.886 143.224L173.612 144.87L172.672 144.733L172.554 142.715L171.124 141.382L169.753 143.498L169.811 145.301L165.207 136.954L163.268 135.426L161.7 135.015L159.839 135.681L158.82 134.094L158.075 135.113L156.116 135.446L151.962 132.135L151.394 133.408L148.534 133.487L148.122 134.838L149.592 137.483L148.279 137.738L146.496 136.817L145.438 135.936L145.242 134.838L144.537 135.172L142.891 133.565L143.185 134.721L141.265 135.054L142.695 143.342L141.324 143.832L140.795 142.44L139.11 141.559L137.836 143.675H136.798L136.21 145.399L135.309 145.634L134.427 144.968L134.76 147.26L137.797 149.474L134.858 148.867L133.565 149.494L133.232 151.571L134.839 153.843L133.095 153.706L131.077 152.041L128.882 152.844L128.647 153.863L122.848 146.046L122.299 145.83L121.359 146.712L120.986 149.455L119.321 149.18L119.184 147.907H120.418L120.986 145.144L119.439 143.988L117.46 143.42L115.05 144.067L114.462 144.439L114.442 146.672L113.816 146.32L114.109 143.89L115.579 142.049L114.188 140.031L115.461 135.936L113.992 138.522L112.914 138.189L113.463 139.58L112.62 141.853L109.015 144.831L105.9 143.675L104.96 141.99L102.628 141.755L101.982 142.48L102.589 143.479L101.59 144.948L102.393 145.908L101.453 146.281L98.2001 146.104L96.2605 146.712L91.0292 145.654L89.2267 146.222L85.1906 145.027L83.5448 145.595L83.1921 146.398L79.1169 147.28L77.5299 146.555L74.2579 147.299L70.3785 149.161L70.0258 150.062L70.5353 150.454L67.1457 149.67L47.7686 143.616L49.2576 143.89L50.0609 142.676L49.4731 140.638L49.7278 140.168L50.0217 140.834L50.6095 140.599L50.0609 139.168L47.9449 138.541L47.024 139.384L47.8077 139.991L47.0828 139.913L44.5358 137.248L42.8116 137.268L40.245 135.348L39.3241 132.82L37.5216 132.037L36.6203 132.899L32.5058 132.193L31.1735 130.881L30.4486 128.863L27.4901 128.216L26.2166 130.881L20.3584 130.587L19.653 131.331L19.3395 128.569L18.164 128.334L18.5558 127.237L20.3388 125.826L23.1209 124.729L29.038 124.572L31.6634 123.769L34.4651 122.417L35.4644 120.614L37.2081 120.516L38.3249 119.595L36.248 114.638L35.1509 113.463L34.23 113.247L32.5058 114.619L31.1735 114.678L21.4164 110.877L22.4744 109.074L24.0418 108.996L24.7863 107.252L26.1382 107.781L27.8036 107.115L28.1759 107.859L33.3091 109.721L37.3648 109.936L39.4613 109.133L42.6744 109.054L47.6706 110.877L51.7263 111.092L57.1535 112.483L61.072 111.68L62.5219 110.308L62.6982 109.486L61.1503 109.25L58.6621 109.76L56.9379 110.7L56.7812 111.425H55.6056L53.3133 109.917L54.7827 109.466L54.6848 108.78L52.6276 108.388L55.057 108.232L53.8815 107.742L53.5484 106.507L54.5672 105.528L53.4896 104.627L54.4105 104.45L54.4888 102.53L53.8619 101.746L50.6095 100.081L43.4386 103.294L41.0874 98.0238L37.8351 97.8083L33.2112 93.9093L33.5442 92.9885L36.3264 92.8317L35.5623 91.7541L40.0099 91.0292L39.3829 86.7384L38.5012 86.8756L38.1485 85.2886L41.3813 84.4852L41.9887 85.0142L45.3391 84.4461L45.7114 83.3881L48.8854 82.6827L48.4739 79.3127L50.9034 78.0785L49.2772 75.2571L57.4474 80.4492L59.2303 80.2728L58.7405 76.9029L65.1669 75.8449L65.6175 78.2352L69.7124 77.7062L69.3009 75.2571L70.163 75.0612L69.634 71.9851L70.3589 71.8872L70.5353 73.1019L72.3574 72.808L73.1607 74.591L80.1553 74.0815L80.6647 77.9021L84.6224 77.2751L85.3277 77.9217L85.602 76.9029L88.2471 76.5894L88.3255 75.8645L97.3185 74.2382L97.1422 73.1411L95.4572 73.4349L95.1437 71.75L91.0488 72.4553L90.2063 72.0831L90.0104 70.3785L95.8882 69.0462L95.6531 67.4788L99.4736 66.989L99.1798 65.4803L97.3773 65.6762L96.1429 61.6989L97.4752 60.5038L102.236 63.1292L105.254 58.4074L96.2605 52.9018L94.6147 48.3563L97.3381 44.5945L97.9063 42.1259H100.884L101.021 41.4989L101.766 43.0467L103.196 43.2818L103.098 42.4001L105.038 41.1658L105.077 39.2653L107.213 38.9518L108.212 40.6564L109.309 40.8327L110.191 40.245L109.329 39.4808L109.427 37.9722L112.66 37.4824L109.858 34.2888L108.526 33.2111L107.644 33.2504L107.526 29.2143L109.662 28.2542L108.839 22.827L103.314 23.7087L102.981 22.9642L102.706 17.2039L104.176 16.7337L104.117 14.9508L105.156 14.5393L105.43 20.4563L109.799 19.7902L108.937 11.2674L110.426 10.4641L110.113 8.25007L109.838 7.66229L106.86 9.46484L106.625 4.11601Z" fill="#484848" fill-opacity="0.1" stroke="white" stroke-width="2"/>
</svg>
