<svg width="120" height="222" viewBox="0 0 120 222" fill="none" xmlns="http://www.w3.org/2000/svg">
<path d="M6.81903 44.7904L7.56356 45.4958L11.2862 44.7512L12.3834 43.0663L12.4813 41.2246L13.7549 39.6963L16.1843 37.5215L17.4775 37.404L18.5159 36.0913L25.7064 36.2676L24.9619 35.8758L24.8835 34.4651L26.3138 34.3671L25.8827 33.4854L26.9015 32.6822L27.1563 31.3303L28.371 31.6045L28.3318 30.6445L29.2723 30.6249L28.9196 29.3122L31.1532 28.3326L32.1328 25.4328L35.2089 25.7659L36.0317 22.925L37.4424 23.1993L38.2261 20.0449L39.4213 20.3583L39.7935 17.2431L41.1062 17.439L40.4793 16.0479L41.0083 14.0103L41.6744 13.8144L41.4002 15.6757L44.3978 15.0095L44.6329 14.1866L42.8304 14.7548L43.0851 12.776L43.6925 12.7564L44.2215 11.4241L46.4747 11.3653L46.9645 9.54317L47.5914 9.34725L48.9433 10.7775L51.9606 6.97655L54.0374 8.4068L57.2898 9.26887L57.76 8.15209L59.1315 7.5839L59.7389 5.50709L63.1872 6.27121L63.3635 3.80252L66.2437 2L67.2233 2.66614L67.2429 5.4483L71.4553 5.25238L72.4154 8.36761L75.7461 10.3073L76.2752 12.6388L78.3911 12.4821L77.9013 16.0284L75.6874 19.8098L75.1388 22.6703L79.6843 25.4133L79.5275 29.273L82.8387 29.3318L83.9947 30.2331L86.3262 32.6234L85.2094 33.0348L85.4837 33.6618L84.4257 33.5442L86.5613 35.4643L86.6005 34.9353L87.9328 35.0529L87.9524 36.5223L90.4015 36.9729L91.048 38.6971L92.9485 40.0686L93.5951 40.0294L94.5355 38.0505L98.1406 36.8554L97.9055 41.3421L98.8459 41.1462L99.9039 45.7701L101.138 45.5937L100.746 44.0655L102.549 43.4973L102.627 45.7897L103.685 47.0828L100.472 48.5131L100.041 50.7466L101.119 51.5891L99.9823 51.7263L100.257 52.7842L99.3553 54.5084L102.804 55.488L103.646 59.6613L102.784 60.7781L101.04 59.6221L99.0027 62.9529L96.7299 61.4638L95.8482 61.405L95.5739 62.2083L94.849 62.3063L94.9078 64.3048L96.5536 68.7523L95.4956 69.1245L95.378 70.3197L94.7315 70.4373L94.7706 73.3958L95.6523 73.5917L96.3577 72.808L98.0818 74.8652L100.002 74.6105L99.081 76.2759L100.002 78.8425L99.7472 80.0573L102.157 84.3873L102.823 83.1921L106.781 83.8779L105.096 87.1694L107.055 87.5613L110.837 91.4994L112.149 91.2839L112.561 89.6969L113.795 89.4422L113.932 91.2447L111.914 93.3215L112.228 94.1248L109.112 94.5559L109.328 97.8279L112.247 99.983L112.306 101.962L112.169 103.098L111.385 102.608L110.837 104.391L109.7 104.92L108.74 106.801L111.15 109.074L110.954 111.621L109.779 112.699L108.525 111.131L107.408 111.758L107.388 115.167L110.464 116.029L110.053 117.048L109.152 116.99L108.623 118.459L107.819 119.615L108.231 120.83L109.308 120.359L111.072 121.182L111.895 120.849L113.325 122.456L114.853 121.868L113.736 125.493L112.306 126.081L112.424 126.903L113.462 127.08L113.482 127.922L112.424 128.118L112.522 129.255L114.383 129.96L115.5 132.213L115.049 133.918L115.794 135.27L115.715 137.111L114.834 138.463L116.479 140.364L115.304 141.363L116.009 143.675L117.224 143.538L117.655 144.086L118.066 146.398L117.087 147.397L115.186 147.946L113.776 146.947L112.874 147.084L112.58 146.222L111.091 147.417L110.131 145.516L110.229 147.985L108.603 149.122L108.799 149.846L107.565 151.1L105.958 150.395L104.802 151.179L101.001 148.357L100.453 149.024L97.9838 149.455L98.2385 151.669L96.8671 153.02L93.9282 151.081L94.1045 152.942L92.1844 152.1L91.244 152.903L91.7926 154.607L90.3623 156.332L91.6554 158.115L87.5997 158.291L83.7791 164.404L85.0135 165.188L84.6216 166.285L86.1499 168.224L86.0911 169.87L84.6412 171.281L84.4845 174.749L86.1107 177.257L86.1694 181.469V182.605L85.758 184.173L86.8356 185.838L85.4249 187.935L85.5817 188.64L84.2689 188.797L84.3278 189.796L85.6992 191.383L84.9155 192.715L85.9931 195.752L84.3081 198.005L83.1914 202.453L81.8591 202.57L81.2713 204.804L79.7235 205.529L77.1176 203.178L74.7861 203.217L74.2571 204.726L76.04 207.175L74.7861 208.958L69.3785 207.214L67.7915 207.88L66.3025 209.643L64.1473 209.741L58.485 208.389L57.858 206.626L56.3494 207.88L53.7239 208.017L52.0194 210.662L50.5107 211.348L47.9049 209.604L46.5922 207.214L46.9841 204.98L45.5538 204.432L43.8688 205.882L45.0444 208.801L43.9276 210.819L42.5953 210.623L41.9096 207.527L40.5773 206.646L39.9895 207.508L41.2238 208.723L41.5177 210.172L41.3022 211.563L40.4989 212.249L38.8727 212.19L35.8946 209.31L34.3468 209.291L33.3671 210.035L33.0928 211.074L33.7198 211.897L36.9526 211.407L37.3053 212.955L39.2449 214.718L39.6368 216.05L38.5396 216.853L35.875 216.912L34.3076 214.835L32.7794 214.737L32.5638 216.011L33.7786 219.224L32.0152 220.243L28.8608 219.596L24.4329 211.015L21.5919 211.701L21.0825 210.78L19.3388 211.348L17.595 209.114L16.8701 211.191L16.0864 211.211L16.4195 209.663L14.5386 208.625L15.9884 206.802L14.95 206.959L13.7157 204.412L11.6388 203.237L13.6177 202.531L13.3238 201.885L11.4037 201.65L12.6773 200.004L10.189 200.748L10.5025 198.476L8.58239 198.613L8.504 197.065L7.28927 197.261L6.97578 196.653L8.15135 195.595L7.52437 194.459L8.38645 191.696L7.01497 190.109L8.28848 190.462L8.46484 189.992L7.46559 189.228L7.87705 187.719L6.50557 187.366L5.99614 185.623L6.48596 185.172L7.81828 186.348L7.1913 184.036L8.66075 184.526L9.34651 183.663L7.77908 183.389L6.6427 180.254L5.64349 179.725L6.38799 177.355L5.81982 175.63L6.97578 174.318L6.23128 174.063L5.19283 174.866L4.42872 173.436H5.23203L5.03612 171.771L5.95698 169.87L3.95852 167.989L6.29005 166.873L4.40914 166.402L4.01729 165.599L4.91854 164.913L6.07453 165.305L6.46638 164.6L5.34958 162.954L5.97656 161.818L4.46792 159.819L6.4468 158.036L4.89896 157.644L5.66307 155.313L5.19283 152.335L5.70226 151.806L4.76182 149.141L6.17247 148.926L4.76182 147.887L5.07528 146.888L4.40914 145.379L5.0949 143.871L4.78141 143.028L5.58471 142.852L5.66307 140.599L8.36687 140.638L8.3081 139.599L9.26812 138.679L8.2689 137.229L9.15057 137.405L8.75872 136.367L9.46406 136.053L8.64117 135.152L8.69994 133.722L7.21091 132.291L7.23049 130.117L8.3081 130.273L7.62234 128.98L8.32768 127.961L6.83864 127.06L7.68112 124.768L5.0949 121.731L4.91854 116.578L1.66617 113.463L3.88013 109.505L5.25164 108.663L5.70226 109.701L6.70148 109.348L5.95698 106.449L6.4076 105.626L5.46716 103.451L7.21091 101.923L7.64192 100.63L9.28773 100.747L9.34651 99.1798L10.3653 98.7291L10.1498 97.4948L8.13174 95.2025L4.85976 93.0864L6.34883 90.6765L8.40607 89.4814L8.0338 86.5033L7.07375 85.8959L6.46638 82.9374L3.95852 79.1756L5.52594 77.0008L2.84172 75.6098L2.72417 74.9436L1 74.0815V73.2782L3.05724 71.6128L1.78373 67.9294L1.99925 65.931L3.31195 64.9121L3.39031 63.9913L5.48674 64.1676L6.17247 61.7185L3.9389 60.876L5.33 59.7201L6.58393 59.6613L6.62312 58.6817H7.23049L6.917 57.2318L5.58471 56.3109L5.52594 53.2741L10.3457 52.941V51.8046L7.7595 49.8258L8.32768 48.6502L6.97578 48.709L6.07453 47.5922L6.6819 47.024L6.25086 45.3782L6.81903 44.7904Z" fill="#484848" fill-opacity="0.1" stroke="white" stroke-width="2"/>
</svg>
