<svg width="43" height="43" viewBox="0 0 43 43" fill="none" xmlns="http://www.w3.org/2000/svg">
<path d="M36.2088 10.5228L35.8366 13.2854L36.6007 14.2846V16.0675L39.8727 19.026L40.2449 22.5723L37.5999 26.1382L33.8185 27.9015L30.7817 25.9423L29.1359 26.1382L28.5089 26.9219L28.2542 29.8804L29.0183 30.4682L29.273 32.8389L28.2542 34.6022V36.5811L29.0183 39.7355L27.255 41.6948L25.2369 40.9111L23.3364 37.9526L21.8278 33.6226L21.1813 28.7048L19.1632 28.9008L17.3998 27.3138L16.2635 27.1178L14.6177 22.1805H12.5997L11.6004 21.3968L10.7187 17.439L8.1913 17.0472L5.66382 17.8309L4.40992 18.6342L3.90049 20.0057L2.50943 20.2016L2 18.4383L4.15521 13.0895V11.1106L5.1544 9.52359L7.17244 7.54472L8.93583 7.93658L9.58236 6.76103L9.07293 5.56587L6.42797 3.78293L6.2908 2.78371L6.91779 2.39185L12.2274 2L16.8905 2.78371L22.827 9.13172L25.8639 7.3488H31.5458L32.7997 6.34958L34.0732 3.78293L36.346 2.97963L40.0098 4.17479L41.1462 5.36995V8.13251L39.8727 8.9358L38.4816 8.54395L36.8358 9.32766L36.2088 10.5228Z" fill="#484848" fill-opacity="0.1" stroke="white" stroke-width="2"/>
</svg>
