<svg width="195" height="248" viewBox="0 0 195 248" fill="none" xmlns="http://www.w3.org/2000/svg">
<path d="M84.211 28.2738L80.6647 29.0771L81.2524 25.5504L77.3339 25.2565L72.6904 20.5739L72.181 19.7118L74.2383 17.9289L73.141 13.6772L73.8268 13.2462L72.6904 12.9719L69.7515 9.07296L66.9302 6.74143L63.9717 5.72261L62.1104 3.93967L61.2875 6.2908L58.9559 4.35112L58.5249 4.56664L58.9756 6.11446L58.427 6.42795L51.6087 4.6842L51.2952 6.23202L49.9041 7.11369L49.0029 6.8198L48.278 8.23048L45.7505 6.27121L43.6149 6.8198L42.8311 7.56433L43.2622 8.1521L42.4393 10.9539L40.0882 9.71952L38.2857 10.5032L37.5608 9.44522L36.7966 9.69993V11.3457L33.5834 9.66074L32.4079 6.32998L33.6226 5.78139L33.5051 3.56741L33.0152 2L31.6437 2.01959L31.1735 2.92085L28.8028 3.97886L28.5089 4.88012L27.7252 4.56664L26.7847 5.25239L26.1382 4.66461L25.4133 5.87935L24.4924 6.07528L24.4532 7.81903L22.8466 9.11215L19.9665 7.25084L18.497 10.7775L18.6734 13.2462L17.439 15.8912L11.4633 14.461L9.56278 15.4406L8.05413 17.3019L8.07372 18.2815L10.3857 17.9289L10.6795 23.7871L7.81903 29.0967L6.11445 29.3514L6.15364 28.7048L2 30.0371L3.80252 38.9714L5.36995 44.5357L5.93812 44.6925L6.27119 41.4989L7.36838 41.2246L11.62 44.1439L14.6765 48.5914L17.9485 51.5695L14.9312 56.2522L15.0879 59.5242L15.754 60.2295L13.4617 59.3282L11.6004 59.4458L11.5024 63.2468L13.1091 63.7954L14.7353 65.4411L16.1459 68.9482L18.2227 70.6332L18.7713 71.848L17.3215 75.1003L19.1828 76.3543L20.0645 75.9428L20.5543 77.5298L17.8309 77.0008L16.9688 77.4711L17.1647 78.9405L18.595 79.8222L17.7721 80.4296L18.0464 81.5267L15.4798 81.8598L17.8505 82.4084L19.4767 81.4092L22.1609 81.8402L22.2196 83.9954L23.8654 86.229L22.4744 89.4618L19.4963 91.6366L19.4375 93.0472L17.8701 93.9681L16.7337 93.4195L16.1655 93.7918L15.7932 94.262L16.381 95.1437L15.2251 96.3388L15.4406 96.9266L14.3826 96.7307L14.6177 97.3185L13.7556 97.6907L16.91 100.492L17.6545 102.452L17.4194 104.94L16.5378 106.351L14.7353 106.194L15.2251 107.33L14.7548 108.584L17.7329 110.073L18.0072 113.032L16.2439 114.344L14.4218 113.189L13.9711 115.03L17.0668 115.403L17.3215 116.461L15.3426 118.949L13.5597 118.812L14.5981 120.438L15.9304 120.124L16.6161 119.086L21.5339 118.243L23.3168 120.849L23.3952 123.102L24.7079 123.436L25.2173 124.337L26.4909 123.71L25.041 126.747L25.7071 127.903L28.744 128.765L30.1939 128.412L29.0771 131.273L29.8608 133.036L28.3326 133.624L30.7425 138.189L29.802 138.6L29.0379 140.912L27.0198 143.165L30.1743 146.163L27.9799 148.847L27.8623 149.729L29.0967 149.827L27.2746 151.12L30.3898 154.764L30.233 157.684L29.0967 158.585L30.4878 161.367L29.9979 162.17L31.8593 164.306L31.5458 164.933L32.9956 167.539L32.4079 168.851L28.8224 170.83L30.3702 171.692L27.4901 174.377L28.3717 174.808L27.4705 175.787L26.7456 175.356L25.3937 177.159L24.2573 176.767L23.8654 177.923L20.5739 178.765L20.0645 180.411L17.8897 178.824L16.8513 179.686L17.1843 180.646L16.2243 182.096L15.421 180.92L14.0691 182.096L13.207 181.861L14.8528 186.269L13.2854 189.776L13.8732 191.363L16.9884 191.403L16.7337 195.752L18.3599 196.438L17.6742 197.829L19.555 199.142L17.9485 200.69L17.439 203.432L19.4179 207.194L20.1624 210.936L22.0237 212.661L23.0621 212.426L22.925 213.464L20.5151 214.581L20.7502 215.776L23.6107 218.068L21.2988 222.026L17.7525 223.75L17.439 225.866L18.6538 226.865L18.9672 229.785L20.0253 231.235L22.2196 231.137L25.3545 232.939L24.8255 234.507L25.0998 235.996L25.8443 236.074L24.8843 237.21L26.8043 238.915L28.3326 238.641L29.9196 239.797L30.5662 237.916L31.487 237.445L32.0552 240.228L32.976 240.757L34.3867 241.07L33.6814 242.579L32.4666 243.01L34.9941 245.811L38.2465 245.165L38.7755 245.968L41.009 244.969L42.89 245.145L42.3022 243.676L43.7912 243.166L46.0444 238.758L47.651 238.112L47.5726 235.31L46.7301 233.351L47.1219 232.234L47.9057 232.665L50.3939 231.979L51.452 230.49L52.4708 230.235L55.4881 231.097L56.2914 234.84L57.6433 236.466L58.6621 234.918L57.7608 233.017L59.1519 232.39L60.2491 230.039L60.445 230.999L63.8737 230.647L63.09 235.976L74.5909 237.955L74.7477 239.797L75.355 239.894L77.0008 233.37L78.3723 232.978L78.1372 230.549L79.7046 230.079L79.7634 228.198L81.9577 226.846L84.975 230.608H86.2682L88.443 227.982L89.305 228.315L90.8528 226.415L92.8905 227.767L95.2612 227.786L99.023 230.235L100.336 228.923L102.53 228.942L103.764 227.982L108.075 228.178L109.231 227.198L110.837 227.453L111.7 225.22L112.385 225.2L112.66 222.535L111.68 221.634L116.656 220.89L117.381 219.91L117.264 218.343L118.89 216.129L119.928 217.598L119.615 215.893L121.065 215.384L123.122 213.386L123.612 208.683L124.396 207.469L125.101 207.135L126.159 208.233L126.512 207.273L127.119 207.351L126.276 205.568L126.923 204.902L125.649 204.706L126.002 202.453L130.567 195.497L130.371 193.871L131.253 194.302L131.586 193.479L130.195 192.696L130.9 189.796L131.606 189.345L130.685 187.386L131.194 184.917L129.529 183.565L131.508 179.314L130.861 177.178L133.134 175.728L134.211 176.688L136.308 173.965L141.931 172.182L142.088 171.418L140.285 168.695L139.325 168.401L139.286 167.617L140.109 167.049L137.64 165.697L136.171 166.363L137.758 164.541L136.621 164.404L137.19 162.993L142.617 162.543L145.085 162.974L146.202 163.992L146.477 164.796L145.085 168.773L145.144 172.182L146.281 174.592L148.005 174.984L148.573 176.414L149.886 176.179L150.278 178.001L151.081 177.786L151.414 175.101L153.98 174.71L154.686 172.711L155.724 172.398L156.057 171.438L157.546 171.536L157.86 176.806L164.423 177.394L166.951 173.083L168.205 172.985L168.068 170.321L169.851 168.714L171.124 165.481L175.924 165.815L176.786 168.028L177.903 165.619L176.688 160.054L181.038 157.507L182.076 157.664L182.37 156.704L178.55 155.783L177.119 156.136L177.374 151.492L181.489 149.2L180.548 147.652L179.804 147.907L179.079 145.81L180.979 146.359L183.193 141.97L182.899 141.245L184.232 140.834L187.033 142.617L188.993 139.11L190.345 139.266L190.991 138.404L189.208 136.425L190.227 132.958L189.835 132.487L192.617 130.626L191.892 129.47L193.323 127.413L192.852 126.218L192.696 125.512L193.832 124.023L193.597 123.2L191.128 122.75L188.914 123.396L188.385 121.496L189.855 119.203L186.563 120.732L184.878 114.736L181.097 113.443L181.802 112.287L180.862 111.778L182.155 111.935L182.312 110.739L183.311 110.622L183.801 111.699L186.191 110.935L187.406 109.172L186.739 107.938L187.406 106.057L180.098 105.743L178.06 100.492L175.474 99.2385L173.848 96.7699L170.693 97.6319L170.654 99.1798L168.949 99.4932L169.263 101.982L168.518 102.413L168.695 104.176L162.484 103.843L161.191 105.175L159.839 104.764L159.819 106.821L158.8 108.016L154.803 107.487L153.785 108.388L151.61 107.272L151.257 108.055L149.572 108.016L146.085 110.25L144.615 110.112L144.341 108.545L141.461 106.782L138.737 110.269L138.032 107.585L133.957 106.037L133.996 104.313L133.447 104.372L133.193 103.196L129.392 102.491L129.372 101.1L128.059 101.08L128.099 99.0034L131.39 99.2385L131.978 98.5724L131.449 97.8475L131.9 97.1225L130.195 95.418L131.664 92.6162L131.39 90.0888L130.646 89.8341L130.606 88.9524L129.568 89.305L129.49 86.9931L127.942 86.8755L128.001 85.9155L125.101 84.1326L125.238 81.6443L122.025 81.1153L121.339 82.7611L114.109 82.8395L113.639 83.5056L110.348 82.5847L109.623 81.801L108.741 82.3692L108.506 84.5636L107.036 84.8379L105.939 84.7791L105.665 83.6428L106.527 83.7799L106.586 82.6827L108.506 81.1545L105.841 83.1529L101.962 81.3112L99.5128 81.9382L99.3561 80.6451L100.199 79.0189L99.1601 77.3535L100.061 77.0204L101.08 77.8237L101.335 76.413L102.256 75.6097L101.452 71.0446L99.4932 69.9279L99.1406 68.9874L96.0841 68.1645L94.5363 63.5406L93.3019 61.8361L93.2628 58.0743L90.6961 56.9967L90.4218 55.2921L83.8387 55.7036L83.4076 52.5687L84.3285 50.296L82.7611 48.1016L84.6028 47.2199L84.8967 46.4362L83.3096 44.1047L83.0745 40.4017L83.7995 39.4024L85.5236 39.6376L86.3465 39.1086L84.7791 38.3249L85.7392 36.5027L83.9954 34.1516L84.5636 33.505L86.8755 33.7402L87.4829 33.2503L87.385 31.6633L86.3465 30.2527L84.211 28.2738ZM105.097 107.017L103.843 107.801L102.452 107.409L100.806 108.192L99.7871 110.759L100.924 115.696L103.823 117.871L104.195 121.417L101.55 124.964L97.7691 126.747L94.7322 124.768L93.0864 124.964L92.4595 125.747L92.2047 128.706L92.9689 129.294L93.2235 131.664L92.2047 133.428V135.407L92.9689 138.561L91.2055 140.52L89.1875 139.737L87.287 136.778L85.7783 132.448L85.1514 127.511L83.1333 127.707L81.37 126.12L80.2336 125.924L78.5878 120.986H76.5698L75.551 120.203L74.6693 116.245L72.1418 115.853L69.6144 116.637L68.3605 117.421L67.851 118.812L66.46 119.008L65.9506 117.225L68.1058 111.876V109.897L71.1426 106.331L72.9059 106.723L73.5329 105.528L73.0235 104.333L70.3785 102.55L70.2609 101.55L70.8879 101.159L76.1975 100.767L80.8606 101.55L86.7971 107.898L89.834 106.116H95.5159L96.7699 105.116L98.0238 102.55L100.297 101.766L103.96 102.961L105.097 104.156V107.017Z" fill="#484848" fill-opacity="0.1" stroke="white" stroke-width="2"/>
</svg>
