<svg width="278" height="154" viewBox="0 0 278 154" fill="none" xmlns="http://www.w3.org/2000/svg">
<path d="M207.939 2L210.172 3.0776L212.817 3.37148L215.697 2.11755L216.638 2.97963L216.383 5.25239L217.049 6.2908L218.538 6.46713L219.773 8.09333L224.828 8.30885L227.649 12.7368L227.081 14.0691L227.825 15.2447L228.08 18.5167L229.785 18.2032L230.823 19.2612L233.782 19.0261L233.742 12.4429L233.135 10.4053L233.586 10.3269L234.879 11.9139L235.075 13.4617L235.682 13.1874L237.465 14.8332L236.623 16.9884L235.035 17.537L236.133 18.5362L237.778 18.8693L237.543 19.5159L238.738 20.5347L238.425 21.9845L239.424 24.1789L237.328 26.4517L239.287 30.7229L238.288 31.0952L238.66 31.8397L240.796 31.5066L244.068 34.0536L244.44 31.1539L245.616 31.1344L245.655 31.7613L246.105 31.1931L248.652 31.5066L249.103 31.6242L248.907 35.2684L253.08 33.7598L253.805 35.5819L255.412 35.6603L255 35.0333L256.842 34.8178L258.037 32.9957L257.254 32.5646L259.546 30.6053L259.703 29.4102L261.544 28.9204L262.818 31.1344L264.797 32.7997L267.873 32.2511L271.537 33.074L276.729 36.6007L275.514 42.6548L274.809 43.0075L273.809 46.7693L273.829 49.7474L271.635 49.4927L271.204 46.6322L270.126 46.8869L270.204 47.4747L268.735 47.7293L268.049 47.1416L266.227 48.0037L265.561 47.8665L265.11 45.8877L263.327 45.966L262.74 45.2607L260.996 47.651L258.508 48.0233L257.449 47.0044L256.137 47.2591L256.333 51.5303L256.783 52.1769L257.802 51.7655L258.508 54.1166L260.624 54.8807L262.779 54.6848L265.914 57.7412L267.011 57.6041L267.246 58.7992L270.871 58.1919L270.577 60.8565L267.618 61.4246L268.01 64.3635L266.678 65.2844L261.172 68.3801L260.584 67.0869L258.018 67.1457L258.743 70.2609L256.548 70.9467L256.176 69.4772L251.258 70.1238L251.317 71.1818L249.495 71.2406L249.554 72.1027L248.829 72.4161L250.494 87.5809L248.554 88.1295L248.711 90.2259L247.986 91.519L248.966 92.1068L248.985 94.0465L251.689 93.9093L251.552 99.0426L252.708 99.219L253.688 102.961L250.749 103.804L250.514 106.331L249.358 106.782L249.319 107.389L245.949 108.016L246.086 109.701L238.445 110.896L238.366 111.621L236.897 111.797L238.484 114.776L237.622 114.756L236.779 116.5L235.819 116.284L235.545 111.406L233.782 111.562L233.625 109.446L231.665 109.583L232.586 114.109L229.55 114.854L229.785 116.206L233.057 115.363L233.155 116.069L232.332 116.186L232.488 117.381L226.924 118.91L227.649 122.338L227.061 120.144L224.926 120.438L224.514 119.987L224.749 122.495L220.223 123.024L219.89 125.023L218.989 125.767L218.852 128.157L217.735 127.726L216.912 121.711L214.326 123.102L213.64 122.515L211.857 122.926L211.955 123.494H208.84L209.898 124.729L210.29 128.099L204.412 129.117L203.609 127.315L197.026 128.432L197.339 131.919L199.867 131.41L200.494 133.33L194.42 134.447L194.655 135.857L196.007 135.759L196.536 138.973L195.184 139.208L195.478 140.775L196.144 141.245L194.577 144.321L180.548 147.143L179.49 147.201L179.04 145.967L175.337 147.162L171.105 143.773L166.951 144.811L166.97 146.79L165.814 147.084L166.285 150.14L161.857 151.042L161.465 150.003L160.407 151.375L159.78 150.434L158.82 150.571L158.428 147.73L157.076 147.907L156.194 145.673L155.176 145.752L154.764 144.596L148.651 145.419L148.769 146.633L140.344 147.77L139.756 144.556L142.48 143.969L141.559 142.088L141.676 140.07L143.459 139.972L143.009 134.662L141.402 134.995L140.736 130.175L136.759 130.959L136.327 130.587L134.643 132.017L133.251 124.023L133.369 123.083L136.661 122.26L135.759 116.382L130.959 117.264L130.293 114.717L127.374 115.109L126.786 113.189L123.553 113.796L123.455 116.108L122.417 116.637L121.79 115.755L120.771 115.912L121.28 119.772L118.616 119.909L118.498 120.81L117.519 121.437L117.283 120.026L116.167 120.105L116.637 118.302L117.969 117.773L117.127 113.757L112.62 114.599L112.66 115.442L111.014 115.814L110.23 113.482L109.113 114.717L106.409 115.324L106.037 113.13L100.453 114.952L99.3953 109.623L98.063 109.819L96.7502 108.721L97.5536 107.35L95.7118 104.862L94.2228 104.607L94.066 103.706L88.5017 104.568L88.247 103.608L83.486 104.568L84.1717 108.055L80.4296 108.31L79.9789 110.113L78.2547 110.818L77.373 110.132L75.3942 110.681L74.8064 108.467L73.5525 108.565L72.7296 107.742L72.6708 109.779L71.2797 109.975L70.6724 107.683L66.4207 108.055L66.1268 107.115L61.4442 108.271L61.934 109.623L59.8768 110.171L59.5633 111.21L55.2137 111.268L53.2937 109.094L51.7458 111.033L51.1972 109.838L42.9879 109.113L38.6187 112.229L36.0913 111.817L34.5238 112.444L30.233 111.033L26.6867 110.994L25.5112 112.111L22.1021 111.249L20.5347 108.388L18.8105 108.33L19.1044 105.959L17.7917 103.745L16.7337 105.077L13.8927 103.549L11.1301 108.251L8.30879 105.449L4.91929 106.801L4.0376 105.88L3.46945 104.509L4.1356 102.589L3.39106 101.217L3.52823 99.6304L2 97.9062L2.03916 97.0638L2.86202 97.2597L3.64578 96.4368L4.25315 94.0073L5.54627 93.7134L6.09487 92.0284L4.48825 89.9124L9.83708 85.3277L9.4452 84.4265L15.1271 82.0166L16.3614 79.7438L21.7102 78.8426L24.6099 81.6443L26.0011 81.7815L28.215 79.4303L28.5481 77.2555L29.3709 76.4914L33.1131 78.8426L33.8577 78.725L35.5818 78.0784L35.5035 76.4718L38.8146 75.7665L40.1274 74.7085L44.281 74.0619L45.339 69.536L48.6502 68.6739L50.4331 70.5548L56.017 70.2218L56.1933 67.8902L55.6252 67.4004L56.3893 66.46L53.7247 64.2068L55.3901 61.6206L58.1134 60.6605L58.9559 57.3494L56.6832 54.9395L58.8971 55.057L59.8964 52.7647L60.6409 53.039L60.7585 51.883L64.5986 50.2372L67.0673 51.0405L68.38 50.923L68.5759 50.0805L71.8283 51.3148L72.3769 50.0217L73.8072 51.7458L77.0792 52.3141L77.8237 52.0201L77.9412 50.7662L81.2916 51.0601L81.1152 49.9237L81.6247 49.865L82.4476 50.7074L84.544 50.3939L85.0142 51.0797L86.4249 50.7074L87.9727 51.7067L88.6193 51.4128L89.5597 53.2545L90.7549 53.7639L91.1468 53.0782L92.5574 54.1754L93.1648 52.8626L93.5958 53.2349L94.2815 52.3336L95.0457 52.843L96.3388 50.8642L98.592 51.3344L99.3169 50.0413L101.609 50.3744L102.295 52.0985L105.391 51.1973L106.703 54.2341L108.31 54.1754L108.486 53.039L110.132 54.0774L111.092 52.1573L110.955 53.47L112.268 52.3924V51.3932L113.326 52.0593L113.698 51.4912L113.012 50.6291L114.932 48.9245L119.889 46.6518L119.928 45.2607L122.064 43.9088L121.476 43.3014L122.495 41.4793L121.986 40.8131L123.416 39.5788L122.593 37.8351L123.161 37.2865L122.397 36.8358L123.533 35.6407L124.317 36.2284L123.298 38.2465L126.061 36.3852L130.391 37.2081L131.39 33.7598L134.505 34.1908L137.679 32.8977L138.287 31.9181L139.639 33.3679L140.853 33.4463L145.673 36.1697L145.634 38.6188L147.593 36.2284L151.531 35.4447L152.981 33.6618L154.49 35.0529L157.194 34.9941L156.978 36.3264L157.723 36.5811L158.173 35.7582L160.779 35.6407L161.308 35.1508L161.387 32.6626L160.015 31.6242L160.093 30.331L162.954 29.4885L163.503 27.0395L165.599 28.1955L166.598 20.9461L168.401 20.8482L168.479 18.9281L169.909 18.8889L170.047 18.3207L170.987 19.4963L174.416 18.7518L174.631 19.8686L175.474 19.6138L176.081 21.769L175.689 23.023L176.493 23.5128L179.235 23.9046L180.607 21.6123L181.214 22.925L182.625 23.3952L182.155 23.9046L182.645 26.1578L184.271 25.4133L185.799 32.976L187.543 32.8977L186.994 30.2135L189.287 30.9972L189.816 31.8397L191.363 30.4878L191.54 31.4087L196.203 31.0952L195.439 29.469L196.026 28.4306L197.3 28.6265L197.496 29.371L199.632 29.1359L199.867 30.331L207.194 28.7636L207.214 27.784L209.056 27.5881L208.977 26.9415L206.156 25.7268L207.018 24.1202L206.175 20.182L205.176 19.3787L210.27 17.1648L210.29 14.9508L202.57 12.3058L201.434 10.5816L202.453 8.1521L207.292 3.64578L207.939 2Z" fill="#484848" fill-opacity="0.1" stroke="white" stroke-width="2"/>
</svg>
