<svg width="683" height="683" viewBox="0 0 683 683" fill="none" xmlns="http://www.w3.org/2000/svg">
<g clip-path="url(#clip0_8_172)">
<path d="M329.6 37.8667C288.267 53.2 270.667 96.8 283.333 151.733C286.533 165.333 286 174.267 281.333 183.467C276.933 192.267 269.067 200.933 242.4 225.733C210.667 255.2 198.133 275.733 193.2 306C190.133 325.6 194.133 361.067 200.133 367.6C206.133 373.867 215.2 372.667 222.667 364.667C232 354.4 250 355.2 260.267 366.133C264.933 371.2 266.667 376 266.667 384.133C266.667 396.667 259.467 405.6 245.333 410.267C239.333 412.267 237.6 413.467 235.733 417.333C234.4 420.133 233.867 423.467 234.267 425.733C235.733 433.2 256.667 450.133 276.667 459.867C299.333 471.067 316.4 474.933 342.533 474.8C370.4 474.667 392.8 468.533 416.667 454.267C430.133 446.4 449.867 428.4 459.867 414.933C478.667 389.867 490.667 354.133 490.667 323.333C490.667 301.6 483.2 270.267 476 262.267C472.933 258.8 471.333 258 466.667 258C460.8 258 461.2 257.733 450.4 271.2C445.6 276.933 439.2 280 431.467 280C415.333 280 404.533 266.667 408 251.333C409.733 243.733 411.6 240 419.867 227.6C427.867 215.867 430.667 207.867 430.667 196.8C430.667 183.067 424.8 167.6 412.933 150C409.867 145.6 398.4 132.667 387.333 121.333C361.2 94.2667 356.933 85.7333 355.067 56.6667C354.267 43.8667 354 43.2 349.867 38.9333C344.667 33.7333 341.333 33.6 329.6 37.8667ZM338.667 102.8C345.6 116.4 349.6 121.333 369.067 140.933C394.667 166.667 405.067 184 403.733 198.533C403.2 203.467 401.333 207.467 394.933 217.2C384.133 233.467 380.933 243.733 381.6 259.733C381.867 269.733 382.667 272.667 386.4 280.267C394.267 296.133 409.467 305.467 429.467 306.4C440.933 306.933 443.333 306.4 459.467 299.2C462.133 298 464.4 316.4 463.6 331.333C460.933 376.267 433.6 416.8 392.667 436.8C375.467 445.067 367.6 446.933 345.733 447.6C325.067 448.4 314.133 446.667 298.667 440.667C289.733 437.2 273.333 428.4 273.333 427.067C273.333 426.667 276 423.467 279.2 420C294.667 403.467 298 381.067 288 360.533C276.533 337.067 250.267 325.2 225.867 332.667C222.267 333.733 219.2 334.667 219.067 334.667C217.467 334.667 219.2 311.733 221.2 303.6C226.8 282 237.2 266.533 260.267 245.067C295.6 212.533 304 202.533 309.6 186.933C312.933 177.333 313.2 161.467 310.133 148.933C302.267 115.867 306 90.1333 321.067 74.6667L328.267 67.3333L331.333 80.8C333.067 88.1333 336.4 98.1333 338.667 102.8Z" fill="white"/>
<path d="M63.2 426.533C59.0667 428.267 54.6667 434.533 54.6667 438.533C54.6667 440.4 55.7333 443.733 57.2 446C59.3333 449.467 67.0667 453.2 113.2 473.2C142.533 486 166.533 496.667 166.267 496.8C166.133 497.067 141.467 490.667 111.6 482.533C81.6 474.533 55.2 468 52.6667 468C44.4 468 42 471.733 35.8667 494.667C32.8 506 29.8667 515.733 29.4667 516.267C28.9333 516.8 25.3333 516.4 21.3333 515.333C17.3333 514.267 12.4 513.733 10.4 514.133C5.86667 515.067 0 521.867 0 526.133C0 530.8 3.2 536.533 6.93333 538.4C8.53333 539.2 65.2 554.667 132.667 572.667C200.133 590.8 263.2 607.6 272.8 610.267L290.4 615.067L295.467 623.067C301.467 632.4 312.667 641.333 323.067 644.933C332.4 648.133 350.267 648.133 359.6 644.933C369.6 641.467 380.133 633.333 386.133 624.4C388.933 620.133 391.6 616.267 392 615.733C392.4 615.2 455.333 598 532.133 577.467C608.8 556.933 673.2 539.467 675.2 538.533C679.333 536.667 682.667 531.067 682.667 526.133C682.667 521.867 676.8 515.067 672.267 514.133C670.267 513.733 665.333 514.267 661.333 515.333C657.333 516.4 653.733 516.8 653.2 516.267C652.8 515.733 649.867 506 646.8 494.667C640.667 471.733 638.267 468 630.133 468C627.733 468 601.2 474.533 571.333 482.667C541.333 490.667 516.667 497.067 516.4 496.933C516.267 496.667 540.133 486 569.6 473.2C615.733 453.2 623.467 449.467 625.6 446C629.067 440.267 628.667 435.467 624.133 430.4C621.067 426.933 619.333 426.133 615.2 426.133C611.467 426.267 573.733 442.133 478 484C405.333 515.733 344.667 542 343.2 542.267C341.467 542.667 334.133 540.267 325.867 536.667C317.867 533.2 257.733 507.067 192.267 478.4C126.667 449.867 71.4667 426.267 69.6 426C67.6 425.6 64.6667 426 63.2 426.533ZM188 530.8C254.4 548.533 308.933 563.2 309.2 563.467C309.6 563.733 307.467 566 304.533 568.533C301.733 570.933 297.6 576.133 295.333 579.867C293.2 583.6 290.4 586.667 289.333 586.667C288.267 586.667 265.2 580.667 238 573.333C210.933 566 158.933 552.133 122.667 542.4C86.4 532.8 56.4 524.667 56.1333 524.533C55.6 524.133 57.6 515.733 60.8 504.267C62.4 498.8 63.3333 497.333 65.0667 497.867C66.2667 498.267 121.6 513.067 188 530.8ZM621.867 504.267C625.067 515.733 627.067 524.133 626.533 524.533C625.467 525.2 394.8 586.667 393.067 586.667C392.133 586.667 389.6 583.6 387.333 579.867C385.2 576.133 380.933 570.933 378.133 568.533C375.2 566 373.067 563.733 373.467 563.467C374 563.067 616.933 497.6 618.933 497.467C619.467 497.333 620.667 500.533 621.867 504.267ZM352.8 583.867C361.867 588 368.933 597.467 367.467 603.467C366.933 605.2 364.667 608.8 362.267 611.467C350.933 624.4 331.733 624.4 320.4 611.467C314.933 605.333 313.867 601.333 316.4 596.533C321.2 587.333 330.933 581.333 341.333 581.333C344.667 581.333 349.733 582.533 352.8 583.867Z" fill="white"/>
</g>
<defs>
<clipPath id="clip0_8_172">
<rect width="682.667" height="682.667" fill="white"/>
</clipPath>
</defs>
</svg>
