<svg width="161" height="232" viewBox="0 0 161 232" fill="none" xmlns="http://www.w3.org/2000/svg">
<path d="M34.6414 3.52823L36.1892 8.48518L35.9933 10.3661L40.2449 12.7564L41.3224 11.0126L43.7324 11.4829L43.5953 12.6976L44.4377 12.776L45.0843 14.5981L47.6313 15.4014L51.4127 13.3834L53.5875 13.834L55.586 15.6169L57.7607 13.7948L57.6824 11.1106H58.2898L59.8964 13.0895L58.2114 14.99L58.6228 17.8701L60.6213 18.6734L62.1495 21.5535L63.7365 21.7886L64.9708 23.4932L67.1652 23.4736L69.0854 24.9822L72.3965 24.4728L73.6309 25.6092L72.8079 26.6476L73.337 28.4501L72.8864 28.842L74.493 31.9376L75.6881 31.9964L80.5863 29.1359L83.4076 29.7628L86.1701 27.7252L87.8551 24.9626L90.9508 22.3764L93.9289 27.3725L94.2032 30.8208L95.5551 33.5834L97.9062 35.8954L104.019 37.6587L108.525 35.5231L111.327 35.9737L114.815 37.8546L119.262 38.3053L118.577 40.8523L122.534 50.4527L128.549 52.2944L132.35 56.2913L138.032 55.9975L140.246 55.1942L142.382 52.314L148.534 51.5695L149.709 52.1965L154.372 50.4723L154.451 52.4904L156.43 55.1942L148.122 60.1119L147.476 65.8526L150.591 71.4169L154.666 74.297L157.938 77.8237L156.978 83.2509L159.682 86.0331L159.447 88.1882L158.428 88.7369L154.333 88.7173L150.336 94.0269L147.319 94.8302L141.382 104.411L141.206 107.252L137.307 106.566L132.585 106.782L130.038 108.839L124.944 107.683L123.612 108.78L124.356 109.368L123.102 112.934L123.906 113.855L125.218 112.836L126.766 114.031L128.804 114.188L129.196 116.186L131.312 118.968L130.332 120.438L131.586 121.79L132.115 121.378L133.271 122.26L133.918 124.435L135.093 122.926L135.642 123.867L140.05 123.338L142.284 125.61L144.831 126.12L145.614 122.769L147.613 121.182L149.161 122.064L150.454 125.904L143.812 133.702L132.076 128.863L131.566 129.392L131.9 130.489L131.155 130.548L130.704 131.821L130.92 133.78L129.823 135.172L129.921 136.425L127.922 136.504L127.942 138.679L127.099 139.031L127.001 140.383L125.728 140.951L126.218 141.657L125.669 142.421L126.629 142.695L126.864 144.576L125.552 146.046L126.159 146.359L126.1 147.456L124.905 148.044L125.081 149.082L122.848 152.002L124.67 154.314L128.451 153.883L128.921 154.666L131.566 153.647L132.605 154.47L133.702 154.372L133.526 155.039L135.328 155.979L136.465 161.935L135.132 162.738L135.191 165.638L138.502 168.087L138.052 169.243L139.345 170.674L139.09 172.358L139.854 172.966L139.09 173.691L140.187 175.258L141.382 174.122L140.971 175.787L141.715 177.688L137.993 179.412L135.367 179.451L134.838 181.822L137.542 181.9L138.091 183.017L138.757 182.743L139.658 183.918L139.266 185.035L139.874 185.682L142.186 182.488L143.263 182.841L142.832 182.527L143.557 181.43L144.439 181.136L146.712 187.406L145.889 188.522L145.908 190.325L141.48 189.933L141.108 194.635L139.306 194.87L138.698 198.515L136.817 200.983L136.504 204.628L134.447 205.823L137.562 207.684L137.621 208.546L130.45 208.664L131.684 211.446L133.075 212.445L132.585 213.817L133.291 214.404V217.226L132.448 217.461L131.566 220.282L131.586 225.063L129.529 225.513L129.548 227.629L127.805 229.687L120.261 228.511L116.421 228.707L115.109 229.824L114.227 229.138L113.247 229.648L110.524 226.258L108.251 226.924L107.546 228.629L106.37 229.275L104.509 225.259L94.9085 225.651L94.4187 226.963L88.8347 227.336L88.6192 228.158L84.5831 227.198V225.357L83.8582 225.337L83.2705 223.123L85.073 218.519L83.819 217.402L82.7414 217.676L81.6051 216.775L81.5855 212.053L68.2037 211.132L66.6754 207.998L67.7335 206.234L67.655 204.647L66.2836 203.864L67.0282 201.003L58.5249 198.142L58.7013 196.908L54.9198 196.83L52.941 195.772L52.2944 194.537L53.1565 193.734L53.2937 192.461L51.7654 190.09L51.8046 187.406L49.3947 185.094L43.4385 185.799L40.6563 184.33L40.7935 182.174L41.6556 181.175L41.3813 179.04L45.2802 176.591L43.5169 174.964L42.263 175.337L41.2441 168.381L37.8742 169.968L37.306 168.753L35.4251 169.165L33.3483 167.499L33.7597 166.481L32.0551 165.305L32.7604 165.286L32.4666 163.659L33.6421 161.857L30.8404 158.546L29.9196 146.261L31.5653 145.712L31.7025 144.831L33.5442 144.4V142.519L32.8585 141.52L34.2495 140.991L33.7597 139.58L31.6045 139.345L30.0566 137.719L31.4085 135.465L31.0755 132.762L31.7808 131.782L33.4854 131.625L33.3874 130.313L30.7425 130.528L29.6649 128.686L27.4313 128.921L27.5096 119.635L26.2753 120.105L22.1216 119.497L21.3967 120.32L20.0252 120.242L18.2619 119.36L15.4406 119.419L15.1662 118.518L12.9915 118.439L14.5393 115.54L16.1459 116.421L16.1263 114.384L19.1827 113.365L16.0479 106.978L16.6161 106.351L17.8896 98.0826L15.5973 97.6711L15.1075 100.101L11.5024 99.9243L6.62385 97.7887L5.60499 96.8482L6.21236 96.2213L5.56577 95.3984L8.36763 93.6154L6.52591 91.4211L5.33066 91.6758L4.09631 89.0307L3.76327 88.1099L6.80011 86.6992L5.99687 85.6412L9.85657 84.1718L9.19049 82.33L4.9584 81.4092L4.58613 79.6067L5.8597 71.9263L4.56664 70.4765L4.60574 67.6355L2.45059 67.6551L2.84247 63.521L2 62.7374L2.74453 59.9944L5.13478 60.1707L7.62309 58.2898L7.8973 57.3886L5.11517 56.9771L6.09481 54.7631L9.38636 55.0374L8.66144 52.6275L9.0141 50.9034L10.9538 50.7662L11.1498 49.6298L12.5213 49.1988L11.62 47.2199L15.6757 46.1031L14.5001 45.5741L13.5792 42.3218L12.776 41.734L13.8536 41.1658L13.6185 40.3625L12.0902 40.1861L11.0518 40.8523L9.54314 38.56L11.1105 34.9353L12.5604 36.3852L15.0095 33.3091L16.2438 33.1132L16.2634 32.3491L13.3441 30.2722L14.069 27.8232L17.537 27.8036L18.7321 26.6672L14.8136 21.2596L16.381 18.9085L20.8286 17.0864L21.044 19.1436L23.9829 17.106L23.5127 15.9696L25.5503 14.99L25.5896 14.2062L27.059 13.2462L25.0409 8.85744L24.4924 2.80329L30.6249 3.6066L33.4266 2L34.5238 2.35267L34.6414 3.52823Z" fill="#484848" fill-opacity="0.1" stroke="white" stroke-width="2"/>
</svg>
