<svg width="189" height="202" viewBox="0 0 189 202" fill="none" xmlns="http://www.w3.org/2000/svg">
<path d="M97.965 2.21552L101.394 2L103.862 6.5455L105.097 6.89817L105.783 8.7007L108.349 10.5032L112.993 11.3457L113.913 8.97499L116.441 8.99459L117.362 7.91699L119.321 10.0134L118.655 11.2869L119.086 12.8348L121.829 14.7548L123.083 14.794L125.943 13.207L127.08 13.5989L128.902 16.9884L128.784 19.7118L129.431 20.2996L130.783 19.9665L130.998 19.0064L131.684 19.3787L131.194 19.9665L131.841 22.6311L131.135 23.1405L131.743 23.5715L131.566 28.1758L135.407 28.5089V29.2143L139.893 31.918L139.345 35.2684L143.557 35.817L144.517 35.0725L149.102 34.5435L149.69 33.7402L150.963 33.8577L150.924 35.2292L154.235 35.2488L153.843 31.8789L154.607 30.7621L159.721 35.5231L161.896 35.6015L162.503 37.0709L162.288 39.6963L165.932 41.1854L166.775 41.5968L169.557 40.7543L172.143 41.9691L172.045 45.339H171.085L170.145 46.7301L170.458 47.8077L169.596 48.3563L169.753 50.0805L172.77 52.2748L171.869 53.6267L171.496 57.4669L179.118 68.4192L181.567 70.3589L184.957 72.377L185.603 74.0227L185.113 75.9428L186.563 76.8833L184.036 77.7258L183.311 79.8418L184.33 81.3896L183.095 84.544L178.236 85.8175L177.531 88.5213L175.65 87.4829L174.827 87.6984V88.7564L173.73 88.9328L170.36 87.4241L169.811 88.0511L168.322 87.9531L167.421 89.6969L163.914 88.5997L164.443 92.6946L163.444 94.36L166.167 97.1617L162.895 100.512L161.406 98.4548L159.819 97.8866L158.389 101.825L157.625 107.605L156.175 108.075L155.215 110.093L154.059 109.956L154.333 110.739L152.491 110.132L151.786 110.779L152.178 111.797L150.003 110.7L149.278 111.758L147.672 111.778L147.828 113.541L147.045 112.385L145.007 113.149L144.654 114.462L139.619 114.697L140.364 117.068L140.031 122.299L138.522 122.534L135.603 121.241L134.447 122.005L131.664 120.399L130.097 118.4L128.079 119.635L126.512 119.478L125.806 118.302L126.766 117.675L125.395 116.363L123.651 115.99L123.925 116.676L123.122 116.402L123.063 117.009L121.045 118.283L121.711 121.359L119.497 121.535L118.792 122.593L119.693 124.807L119.282 127.55L117.401 127.883L116.617 129.059L117.812 132.801L120.908 134.251L118.106 136.759L118.577 138.639L117.068 141.108L115.912 140.128L114.697 141.284L112.052 140.618L111.974 142.068L112.15 143.929L114.403 143.518L116.186 144.321L115.403 147.123L114.521 147.946L115.167 149.043L117.636 149.611L121.946 149.317L121.182 150.826L121.633 151.531L120.751 153.158L120.791 155.039L119.595 155.548L117.381 153.628L115.794 153.883L110.622 155.568L107.428 158.075L105.841 157.644L105.175 158.683L103.549 158.134L103.059 159.8L102.06 159.643L101.355 158.526L96.0841 157.742L93.3607 160.877L92.7142 159.604L90.1671 158.585L86.2094 161.387L85.6608 162.445L81.4876 161.112L78.8425 161.896L77.7062 160.583L77.1576 160.877L76.1388 160.133L73.7876 162.797L72.9843 162.268L71.652 162.993L70.261 169.165L68.9678 170.144L67.9882 169.518L67.3025 170.066L66.9694 171.418L63.4231 175.297L64.7946 177.413L63.09 181.704L63.7758 183.546L65.9114 184.31L66.1857 185.055L63.9521 186.093L63.8541 188.052L62.6002 190.345L64.2068 194.4L61.8361 198.593L62.2279 200.004L59.485 199.436L57.0359 200.827L53.8815 199.867L50.8446 198.436L49.8454 195.772L47.4159 197.359L44.7513 195.204L43.3602 196.477L39.2065 196.634L35.8366 189.404L34.7002 189.169L34.6022 187.582L32.3295 186.308L29.7237 187.915L28.5481 187.504L27.0787 188.052L25.9227 189.561L25.0802 189.247L24.1006 188.013L23.5716 184.898L21.338 183.997L18.8105 181.861L17.439 178.569L17.4978 176.904L19.0848 175.689L20.4171 175.67L19.3395 172.437L21.7102 170.791L17.9485 168.675L16.9884 168.616L17.5174 167.362L16.8904 165.873L18.5166 162.856L16.4398 162.268L16.0088 161.053L14.5393 161.308L13.5401 159.466L12.1294 158.604L11.8747 156.665L9.40604 157.135L8.54396 156.567L9.64115 154.157L8.25007 154.176L7.21166 155.979L6.44754 154.921L8.19129 151.355L9.05337 150.846L7.25084 150.317L6.93736 149.298L7.3684 148.181L8.58315 147.574L9.32767 140.599L9.01418 136.014L5.78139 122.613L3.44986 121.829L2 118.91L3.52823 117.969L5.72261 113.463L11.4045 106.057L11.718 103.941L12.7368 102.452L14.1083 102.06L15.519 100.59L17.2431 97.6711L18.7713 96.4564L20.3584 93.204L23.1601 90.892L23.7675 87.4633L25.57 86.9539L33.3875 75.453L39.9315 67.6943L40.2449 65.7742L41.8515 65.1081L44.3594 61.9928L44.3006 60.2099L45.2803 60.2883L46.7301 59.1715L57.0947 48.3955L64.3635 43.3798L67.9882 37.9526L71.1818 36.6595L72.1614 32.3687L73.866 30.86L79.1952 29.0771L88.0903 28.0779L91.9501 28.313L92.4203 25.9031L94.3404 24.7863L97.6907 14.7548L98.6899 8.19128L98.1805 6.78062L98.5528 4.91931L97.8279 4.89971L97.3772 3.99845L97.965 2.21552Z" stroke="white" stroke-width="2"/>
</svg>
