<svg width="202" height="179" viewBox="0 0 202 179" fill="none" xmlns="http://www.w3.org/2000/svg">
<path d="M93.7534 167.499L98.6907 167.578L105.45 166.598L108.703 168.577L112.17 169.518L111.426 171.261L109.859 171.34L108.801 173.142L105.411 172.241L103.275 172.731L101.708 174.376L101.414 175.944L102.413 177.1H101.943L96.8294 171.634L91.8333 167.519L88.9727 163.365L90.6773 165.756L93.7534 167.499ZM9.15207 10.6012L13.5213 7.50554L21.711 8.21088L22.2596 9.40604L23.8074 7.46635L25.7079 9.64114L30.0575 9.58236L30.371 8.54395L32.4282 7.99536L31.9384 6.64346L36.6211 5.4875L36.9149 6.42794L41.1861 6.05567L41.7935 8.34801L43.1846 8.1521L43.2434 6.11445L44.0663 6.93734L45.3202 6.83937L45.908 9.07296L47.8869 8.50476L48.7881 9.2101L50.4927 8.48518L50.9629 6.70223L54.7051 6.44752L54.0194 2.96002L58.7804 2L59.0351 2.94044L64.5994 2.09794L64.7561 2.97963L66.2452 3.25393L68.0869 5.74218L67.2836 7.11369L68.5964 8.21088L69.9286 8.01494L70.9867 13.3442L76.5705 11.5221L76.9232 13.7164L79.627 13.1091L80.7438 11.8747L81.5275 14.2062L83.1929 13.834L83.1537 12.9915L87.6404 12.149L88.4829 16.1655L87.1506 16.6945L86.7 18.497L87.8168 18.4187L88.0714 19.8293L89.0511 19.2024L89.1687 18.3011L91.8333 18.164L91.3238 14.3042L92.3231 14.1475L92.9501 15.0291L93.9885 14.5001L94.0864 12.1882L97.3192 11.5808L97.907 13.5009L100.807 13.1091L101.492 15.6561L106.293 14.794L107.174 20.6718L103.883 21.4947L103.765 22.4156L105.156 30.429L106.841 28.9791L107.272 29.371L111.25 28.5873L111.916 33.4071L113.522 33.074L113.973 38.3836L112.19 38.4816L112.072 40.5192L112.993 42.4001L110.29 43.0075L110.858 46.2207L119.302 45.0843L119.185 43.85L125.298 43.0271L125.709 44.1831L126.728 44.1047L127.61 46.3382L128.981 46.1815L129.373 49.0225L130.333 48.8853L130.96 49.8454L132.018 48.4738L132.41 49.5123L136.857 48.611L136.367 45.5349L137.543 45.2411L137.504 43.2622L141.657 42.2238L145.889 45.6133L149.593 44.4182L150.043 45.6525L151.082 45.5937L165.11 42.7724L166.697 39.6767L166.011 39.2261L165.717 37.6391L167.069 37.404L166.54 34.1908L165.188 34.3083L164.973 32.8781L171.046 31.7613L170.4 29.8412L167.872 30.3506L167.579 26.8631L174.142 25.7463L174.945 27.5489L180.823 26.5496L180.431 23.1797L179.373 21.9453H182.489L182.391 21.3772L184.174 20.9657L184.859 21.5535L187.426 20.1624L188.249 26.1774L187.563 27.4313L188.425 31.3107L187.504 31.6829L188.308 33.4071L189.17 33.8185L193.265 33.0544L193.617 36.3852L192.598 36.8162L193.363 41.2442L191.815 41.6948L192.442 46.1031L191.325 46.6322L191.736 48.4935L192.422 48.611L192.696 50.825L186.172 52.51L187.759 62.6982L185.408 65.1276L194.185 64.6378L194.088 66.5383L194.185 71.7892L197.164 69.9866L197.438 70.5744L197.751 72.7884L196.262 73.5917L197.124 82.1145L192.755 82.7806L192.481 76.8637L191.442 77.2751L191.501 79.058L190.032 79.5283L190.306 85.2885L190.639 86.033L196.164 85.1514L196.987 90.5786L194.852 91.5386L194.969 95.5747L195.851 95.5355L197.183 96.6131L199.985 99.8067L196.752 100.297L196.654 101.805L197.516 102.569L196.635 103.157L195.537 102.981L194.538 101.276L192.403 101.59L192.363 103.49L190.424 104.724L190.522 105.606L189.091 105.371L188.347 103.823L188.21 104.45H185.232L184.663 106.919L181.94 110.681L183.586 115.226L192.579 120.732L189.562 125.454L184.801 122.828L183.468 124.023L184.703 128.001L186.505 127.805L186.799 129.313L182.978 129.803L183.214 131.371L177.336 132.703L177.532 134.407L178.374 134.78L182.469 134.074L182.783 135.759L184.467 135.465L184.644 136.563L175.651 138.189L175.572 138.914L172.927 139.227L172.653 140.246L171.948 139.599L167.99 140.226L167.481 136.406L160.486 136.915L159.683 135.132L157.861 135.426L157.684 134.211L156.959 134.309L157.488 137.386L156.626 137.581L157.038 140.03L152.943 140.56L152.492 138.169L146.066 139.227L146.556 142.597L144.773 142.774L136.603 137.581L138.229 140.403L135.799 141.637L136.211 145.007L133.037 145.712L132.664 146.77L129.314 147.339L128.707 146.81L125.474 147.613L125.827 149.2L126.708 149.063L127.335 153.354L122.888 154.078L123.652 155.156L120.87 155.313L120.537 156.234L115.442 155.822L113.934 158.271L108.134 160.622L106.743 159.271L103.824 158.879L99.7879 157.155L96.0457 157.076L93.8121 158.467L91.9312 161.543L89.7956 159.78L87.66 159.055L83.33 158.781L82.37 159.643L79.7642 159.349L78.667 161.504L74.5917 160.368L70.8887 160.505L67.2052 158.898L67.9889 156.959L67.1269 156.488L68.4592 155.724L67.0485 154.784L67.5579 151.179L65.1676 148.024L67.0485 145.262L65.4223 142.284L65.6966 139.07L63.8941 137.836L62.6205 137.954L61.2686 134.192L59.2506 132.683L57.9771 132.585L56.5076 126.688L61.1707 125.434L61.2295 124.474L64.2468 123.945L64.7561 124.885L71.5353 123.749L70.5752 120.771L72.9067 120.242L74.6505 120.595L74.7484 118.479L75.4538 118.243L74.8464 115.109L75.3754 114.854L73.1614 106.272L71.8879 106.488L71.4569 105.645L68.7335 106.194L68.4004 107.742L62.6989 107.781L62.6402 104.529L63.2671 104.411L63.6002 105.645L65.7946 105.273L65.0696 101.688L67.0485 101.217L66.7742 97.0637L56.6448 99.6696L55.8611 96.7307L54.5288 96.907L55.1361 94.8106L49.2192 96.0057L48.2395 91.8717L47.1815 92.0676L46.7897 90.5394L49.2192 89.305L48.6706 87.9923L47.7497 88.0707L47.4558 87.2282L46.9464 84.0542L48.2787 83.7407L47.7301 81.5071L45.3006 81.899L45.2027 79.7438L46.3194 79.5087L45.4769 73.9248L47.495 73.4741L46.7897 70.065L44.1447 70.496L43.8116 69.4576L40.2849 69.5556L38.835 68.38L38.6195 67.42L38.4432 66.5187L40.6963 66.0289L40.3633 62.2671L41.6172 60.9152L41.3429 59.6221L36.0332 60.6605L36.7582 63.5406L33.7997 64.3439H32.7417L33.0356 61.1112L30.0183 61.9536L29.5873 60.9936L20.4766 62.6785L19.9673 60.4058L17.0284 60.9348L14.9123 49.3163L17.2243 48.5326L16.6365 46.0444L18.0276 45.8484L17.9884 44.712L17.4594 44.6533L17.0675 42.6744L10.9546 43.4973L8.91697 32.6821L9.44601 32.0748L7.8394 29.8608L5.40992 28.4305L5.66458 27.0786L4.19513 23.7283L6.19362 22.6899L4.76333 19.555L3 18.4579L4.52823 18.1444L5.72335 16.3614L7.85901 16.7141L8.19205 15.5777L10.5236 15.6365L9.79867 15.2251L10.0142 14.6177L10.8959 15.3622L12.62 14.9312V13.9711L9.81828 13.5989L9.15207 10.6012Z" fill="#484848" fill-opacity="0.1" stroke="white" stroke-width="2"/>
</svg>
