<svg width="209" height="295" viewBox="0 0 209 295" fill="none" xmlns="http://www.w3.org/2000/svg">
<path d="M106.096 4.31195L106.978 5.25239L110.367 3.90049L113.188 6.70226L115.951 2L118.792 3.52826L119.85 2.19594L121.163 4.40992L120.888 6.76104L122.613 6.81982L124.16 9.68036L127.57 10.562L128.745 9.42565L132.291 9.48442L136.563 10.8951L138.13 10.2485L140.658 10.66L141.343 13.6577L144.145 14.0299V14.99L142.421 15.421L141.539 14.6765L141.324 15.2839L142.049 15.6953L139.717 15.6365L139.384 16.7729L137.248 16.4202L136.053 18.2032L134.525 18.5167L136.288 19.6138L137.719 22.7487L135.72 23.7871L137.19 27.1374L136.935 28.4893L139.364 29.9196L140.971 32.1336L140.442 32.7409L142.48 43.5561L148.593 42.7332L148.984 44.7121L149.513 44.7709L149.553 45.9072L148.161 46.1032L148.749 48.5914L146.437 49.3751L148.553 60.9936L151.492 60.4646L152.002 62.7373L161.112 61.0524L161.543 62.0124L164.561 61.17L164.267 64.4027H165.325L168.283 63.5994L167.558 60.7193L172.868 59.6809L173.142 60.974L171.888 62.3259L172.221 66.0877L169.968 66.5775L170.144 67.4788L170.36 68.4388L171.81 69.6144L175.337 69.5164L175.67 70.5548L178.315 70.1238L179.02 73.5329L177.002 73.9836L177.844 79.5675L176.728 79.8026L176.826 81.9578L179.255 81.5659L179.804 83.7995L178.471 84.113L178.981 87.287L179.275 88.1295L180.196 88.0511L180.744 89.3638L178.315 90.5982L178.706 92.1264L179.764 91.9305L180.744 96.0645L186.661 94.8694L186.054 96.9658L187.386 96.7895L188.17 99.7284L198.299 97.1225L198.573 101.276L196.595 101.746L197.32 105.332L195.125 105.704L194.792 104.47L194.165 104.587L194.224 107.84L199.925 107.801L200.258 106.253L202.982 105.704L203.413 106.547L204.686 106.331L206.9 114.913L206.371 115.167L206.979 118.302L206.273 118.537L206.175 120.653L204.432 120.301L202.1 120.83L203.06 123.808L196.281 124.944L195.772 124.004L192.754 124.533L192.696 125.493L188.033 126.747L189.502 132.644L190.776 132.742L192.794 134.251L194.146 138.012L195.419 137.895L197.222 139.129L196.947 142.342L198.573 145.321L196.693 148.083L199.083 151.238L198.573 154.843L199.984 155.783L198.652 156.547L199.514 157.017L198.73 158.957L187.993 161.622L176.159 166.167L173.299 165.579L170.419 166.873L168.91 170.282L169.459 171.829L170.458 172.476L170.811 172.006L171.81 176.63L170.34 183.095L168.224 184.584L165.756 188.013L161.347 197.163L157.331 204.079L154.333 207.469L152.393 211.466L145.497 218.676L134.976 232.018L101.335 259.115L96.2213 265.012L95.4767 267.853L94.4775 267.579L94.3403 268.226L97.0637 270.89L97.965 270.126L97.4556 269.323L98.063 268.402L99.121 269.382L99.1014 270.616L99.6696 269.597L102.354 269.186L104.039 270.106L104.548 269.44L104.94 269.852L104.058 271.341L104.744 273.359L103.725 275.788L104.744 282.665L103.059 288.406L103.412 291.952L101.766 292.129L101.55 293.48L99.552 293.892L98.9642 293.324L97.8475 289.836L99.0426 288.014L98.4352 284.331L97.534 281.823L93.8114 277.179L90.5198 274.926L85.8371 273.633L82.4672 271.713L77.5102 272.301L75.8449 271.204L73.337 273.222L70.0454 272.673L68.7523 273.907L66.5971 274.554L66.0289 275.808L64.246 276.885L59.7593 278.296L53.4112 282.097L51.9026 282.293L50.7662 284.076L51.0601 286.055L50.2568 287.113L48.4935 286.466L45.7505 283.645L43.85 283.567L42.2042 281.882L40.7151 281.94L39.618 283.038L41.1854 284.194L40.8915 285.271L37.6587 286.878L38.4424 288.543L40.2841 289.719L40.3429 290.64L35.4643 292.285L30.2527 290.522L25.1585 290.032L10.7775 283.096L6.62388 276.043L6.44752 271.458L2 269.617L4.15518 265.855L8.25007 262.073L13.5793 264.111L16.1851 263.602L15.8324 264.875L16.5378 267.677L21.9453 266.345L20.4367 259.703L24.1789 258.821L22.2784 250.749L19.8685 250.71L22.0825 245.968L23.8655 244.146L27.1766 244.597L27.4901 243.46L26.7847 240.737L29.3514 241.325L34.9745 239.836L34.3671 236.446L39.9706 234.84L38.1681 226.121L38.5991 224.965L38.1877 223.045L39.6767 222.712L39.3045 221.771L52.8822 218.715L54.6064 214.463L50.923 209.82L58.4661 200.415L51.0405 194.263L53.9206 187.386L49.6494 175.297L55.9583 174.827L55.8211 173.26L53.5876 173.299L53.47 172.378L56.2718 172.065L56.8203 170.732L58.5445 170.086L64.9317 169.811L65.0493 167.049L69.8103 165.638L70.065 171.242L70.7116 171.281L71.123 172.672L68.7915 174.749L70.4373 179.236L67.8902 182.312L70.1042 183.076L71.8871 181.391L71.7892 180.333L73.9248 179.216L74.5125 180.019L75.6881 179.49L74.5125 176.708L75.4334 176.022L74.826 174.572L76.6286 173.71L76.3347 171.594L77.3339 170.889L80.5863 178.393L79.9985 176.316L84.2501 171.712L87.6593 175.141L86.1506 177.022L87.718 178.511L91.5386 179.196L92.5966 184.526L94.0269 184.271L94.36 185.152L98.9838 184.486L98.1609 177.472L99.0818 176.943L99.8459 178.334L102.961 177.629L103.529 176.649L102.452 174.494L103.392 173.985L105.743 175.572L106.703 179.471L108.878 181.136L107.938 182.253L113.032 185.348L112.934 183.409L116.382 180.666L119.615 182.449L120.457 181.724L122.044 182.312L124.591 180.862L126.708 182.605L131.273 179.569L130.959 177.982L129.47 179.764L128.882 178.354L128.177 177.825L127.589 178.158L126.962 176.963L127.06 178.295L126.061 177.433L125.767 178.511L124.396 178.158L124.885 176.708L122.182 176.747L122.299 175.689L120.242 175.023L122.123 174.141L120.497 173.945L119.948 173.201L120.673 171.594L119.733 171.751L119.772 170.282L119.439 171.261L118.714 170.948L118.048 171.986H117.44L117.93 170.184L116.48 171.673L116.715 170.869L115.716 170.889L115.696 169.909L114.384 169.753L114.776 169.008L113.678 168.44L114.051 167.931L113.188 166.637L112.346 166.677L117.244 165.462L116.363 164.521L116.323 163.228L117.969 161.485L117.185 157.057L118.91 152.883L118.87 146.849L116.363 141.676L118.048 140.52L119.106 140.618L118.459 139.07L117.068 138.287L114.325 140.266L112.934 137.366L113.443 136.974L112.895 133.957L110.563 134.349L110.171 135.172L104.215 136.386L102.119 129.627L101.472 130.293L97.3381 130.508L96.7111 127.334L92.3419 128.569L91.3231 126.962L93.9093 126.472L94.2816 119.223L95.9274 118.518L94.9477 113.286L90.5982 113.659L90.6961 115.442L89.5793 115.736L88.5801 111.935L87.3458 112.209L87.2282 110.975L92.8905 109.564L90.9508 98.5136L94.066 97.7104L92.3419 86.6992L87.8356 87.4633L86.6208 88.247L86.6404 89.6969L87.287 90.03L86.3661 90.5982L86.3857 92.9297L82.8394 94.5755L82.428 93.0277L80.743 93.4783L79.783 89.1679L80.7038 88.443L80.1748 85.7392L76.7069 86.6992L75.3942 79.1952L72.4161 80.5079L70.7312 82.3692L70.3981 77.9609L66.9694 81.4875L66.3032 78.9993L67.3416 77.7846L67.0673 77.236L65.304 78.6466L64.8729 78.1372L66.8126 76.4914L66.891 72.7296L66.5579 72.2594L64.4027 73.239L61.934 68.6935L66.5187 66.989L66.6363 65.833L68.7327 63.1292L68.2821 61.5814L69.7515 60.2099L68.0274 60.2883L68.9678 58.4662L68.9286 56.2718L69.634 56.0758L68.0078 52.4512L68.6152 50.6683L70.8291 49.2968L72.5141 44.3398L70.8095 43.6149L69.0266 45.0256L67.6551 43.0663L67.6747 42.0083L69.2225 39.2849L72.4161 36.875L72.7688 35.7386L68.7523 36.1305L68.7915 35.19L68.4388 36.3068H67.7923L66.0093 25.6876L62.8353 25.5896L63.09 26.726L60.5234 26.7652L59.9944 27.2746L60.7781 27.686L60.9348 28.8812L59.6221 27.9603L60.0923 30.0763L58.6816 30.6249L56.1934 30.331L52.0789 26.9415L49.238 28.94L46.3382 24.9626L46.3579 23.6499L43.6541 21.5143L44.4574 18.9477L44.2614 17.8113L43.3014 17.5958L44.281 16.8513L45.6329 18.0073L45.8093 16.7925L49.6102 15.5386L50.8054 9.42565L53.3916 10.562L54.0774 9.91546L55.1941 10.1506L56.017 13.3638L57.0163 12.7172L56.5656 11.6592L57.7804 10.033L57.4865 7.76026L58.4661 6.78062L58.2114 5.99693L58.9559 5.72263L63.1684 9.69994L64.0109 9.44523L64.7162 10.0722L63.7561 10.9931L66.362 10.8363L67.7923 11.5809L68.478 10.7579L70.0454 10.9147L71.0055 10.2485L71.6128 11.9727L70.3785 12.1686L70.0846 12.874L67.851 13.1091L68.8698 14.6373L71.5149 13.7948L72.0047 15.4798L73.0627 16.048L75.1199 16.3027L77.6082 15.3818L77.8041 16.0676L78.7838 15.4994L79.0581 15.9304L80.0377 15.4406L79.783 14.6373L80.5079 13.5401L85.4453 12.6584L86.1114 14.1475L87.6396 14.7549L92.2047 15.1859L92.4595 14.6373L93.4783 14.6961L93.0668 13.7165L93.9877 13.2658L94.3208 11.7963L96.8286 12.6193L96.7111 13.8144L98.4744 14.1671L98.7487 13.5009L97.965 13.0307L98.8467 12.7564L99.2973 8.54398L97.965 5.68344L99.7283 6.31042L102.354 4.80177L105.665 4.84096L106.096 4.31195Z" fill="#484848" fill-opacity="0.1" stroke="white" stroke-width="2"/>
</svg>
