<svg width="229" height="190" viewBox="0 0 229 190" fill="none" xmlns="http://www.w3.org/2000/svg">
<path d="M66.891 5.40912L69.1833 5.7226L70.1629 6.91776L73.8268 5.03686L75.0219 6.56509L76.9812 7.0745L78.0784 6.48671L78.3527 3.46944L80.743 2L82.232 3.8417L83.2901 4.15519L83.5252 5.31115L87.1302 5.38953L87.3262 7.72106L89.6577 7.62309L90.1867 9.30807L91.1075 10.0134L91.1663 9.07295L93.0276 8.34803L94.0073 8.6615L94.3795 9.87626L95.5355 7.83861L97.1029 9.58236L98.0825 8.60273L100.277 8.05413L109.819 10.7187L111.327 11.8551L112.66 11.7572L114.893 9.87626L118.361 8.50476L118.733 7.72106L118.185 6.97653L116.441 6.76101L116.147 5.91852L120.281 4.15519H121.496L123.102 5.91852L125.63 2.66614L130.626 6.44753L130.371 7.66227L132.86 5.95772L135.524 7.01572L134.349 8.62232L135.25 9.48439L136.504 8.42639L136.621 6.56509L140.148 4.86052L142.068 5.17401L143.244 3.97885L145.144 5.58545L145.869 14.3238L154.333 21.3184L153.765 22.2196L155.842 24.3749L155.156 26.4125L155.979 27.255L158.467 29.4298L162.543 29.9783L163.032 33.8577L163.757 34.3867L163.914 33.603L165.207 33.8969L166.618 35.8758L165.814 37.8938L163.346 40.6368L164.325 41.6948L163.855 43.2818L164.913 45.535L166.696 46.8673L167.774 46.1815L170.536 47.7881L171.908 47.122L172.496 47.8861L173.456 46.7497L174.024 47.1024L173.769 47.7489L175.16 47.8469L175.18 44.0067L177.355 42.6744L178.393 43.1251L177.923 44.3202L181.724 43.3798L181.959 42.8116L184.173 42.9683L184.937 42.2826L191.109 43.5169L190.443 45.6525L190.638 48.6502L192.578 51.2952L185.544 60.5822L187.347 65.6762L187.974 66.2836L189.345 65.9113L191.128 69.4968L193.009 71.0446L194.165 70.8095L195.615 72.4553L197.163 71.0055L198.613 71.0446L199.573 73.7876L203.237 74.3754L204.51 73.8268L209.389 76.6873L209.722 79.3128L208.37 79.8222L209.016 81.4092L208.899 85.0338L210.055 86.3073L211.857 86.5229L212.053 88.0119L211.074 88.6389L211.955 89.0699L211.093 90.6373L212.778 91.5778L216.991 92.048L218.382 93.6546L223.73 92.8513L223.182 94.3207L224.514 96.1037L227.238 103.098L222.3 104.176L221.869 104.94L223.378 105.273L223.456 107.742L227.159 109.054L226.944 112.072L217.265 110.21L215.933 114.893L219.009 115.951L218.147 120.32L219.93 121.065L213.66 128.921L214.189 131.41L213.386 133.232L210.643 131.566L211.407 130.959L210.936 130.587L205.392 131.233L203.55 130.508L201.003 130.665L199.945 129L197.418 127.726L196.634 128.334L193.754 136.014L196.203 145.987L195.674 146.241L195.654 145.144L191.716 141.578L190.286 142.617L189.482 145.223L188.229 146.026L186.073 144.85L186.269 144.125L187.7 144.263L188.307 143.322L185.956 142.597L185.662 141.951L183.174 142.323L183.487 143.067L182.586 143.812L180.783 143.009L179.451 143.675L179.412 146.672L177.805 146.398L175.591 147.809L174.553 147.535L173.534 148.945L172.633 149.122L171.829 148.122L170.301 148.534L169.165 149.827L167.872 149.729L167.97 151.629L166.853 151.277L166.148 152.746L166.637 154.686L165.207 155.43L162.856 153.863L161.602 154.803L160.172 153.706L159.388 154.372L155.372 151.473L156.292 155.509L152.844 157.684L152.119 159.486L150.375 161.053L152.119 162.738L149.494 166.814L148.73 171.359L149.239 172.594L151.022 173.887L150.963 175.474L151.786 175.591L151.747 176.649L150.219 176.806L150.121 177.844L151.649 178.746L148.201 179.04L148.436 182.586L150.16 181.9L151.159 182.645L149.298 184.486L149.631 186.583L148.22 188.895L148.318 187.386L147.672 186.877L145.36 186.837L143.988 185.486L141.931 184.917L140.324 183.272L138.992 183.644L137.386 182.978L136.719 181.88L137.092 179.686L136.661 178.883L133.232 178.471L131.057 176.826L129.94 174.612L127.628 174.651L124.043 173.181L121.594 170.869L116.402 167.343L112.738 166.52L109.662 167.068L107.683 165.403L106.409 163.189L104.568 163.679L104.411 164.874L102.119 166.833L102.902 167.264L101.707 169.086L99.8655 169.302L100.277 169.929L98.6703 169.851L97.9454 168.028L93.7722 169.537L93.9681 165.893L93.5175 165.775L90.9704 165.462L90.5198 166.03L90.4806 165.403L89.305 165.423L88.9328 168.322L85.6608 165.775L83.5252 166.108L83.1529 165.364L84.1522 164.992L82.1929 160.72L84.2893 158.448L83.2901 156.253L83.6036 154.803L82.4084 153.785L82.6435 153.138L80.9978 152.805L79.9005 151.806L81.4876 151.257L82.33 149.102L80.5471 147.456L79.9397 147.73L79.7438 146.183L78.4507 144.596L78 144.674L78.6074 146.712L78.6466 153.295L75.6881 153.53L74.6497 152.472L72.9451 152.785L72.6904 149.513L71.9459 148.338L72.5141 147.006L69.6927 142.578L64.6378 142.362L63.4035 140.736L61.9144 140.56L61.2483 139.521L61.503 137.248L60.5625 136.386L57.6824 137.64L55.0374 137.346L52.8038 136.269L50.1393 135.994L46.6125 137.797L45.3782 135.936L43.5953 135.191L39.5004 136.132L37.8154 134.799L36.5811 135.603L35.2292 133.134L33.4266 132.429L32.3687 131.057L29.6649 130.175L27.0198 127.961L27.8035 126.668L26.8435 126.61L26.6868 126.022L27.784 125.003L29.802 119.928L31.918 122.573L35.6211 123.004L39.4808 125.199L45.1627 125.375L44.9864 123.24L43.4777 122.064L41.9887 122.123L41.0874 120.536L41.3421 118.047L39.4024 116.754L40.8131 115.598L40.9894 110.504L43.2426 110.426L45.8485 107.82L45.7505 103.079L46.2599 102.55L42.3805 99.7479L43.4189 98.6507L42.4197 95.3788L43.125 94.1053L41.4597 93.7134L40.0882 91.8129L34.2299 89.7165L34.1516 84.642L33.0152 82.7023L30.3898 82.33L29.5277 79.1364L26.0206 80.0573L25.0997 77.3535L20.9853 72.0635L22.1021 71.025L22.8662 71.9851L25.0214 70.6528L23.6695 69.0854L23.983 66.8126L24.6491 66.5383L23.8655 65.833L24.4336 63.2859L21.338 61.2679L20.378 55.8799L19.0456 55.6644L19.2612 54.3125L18.0856 53.372L17.4194 55.2529L16.7141 55.3509L13.0699 50.8054L14.0887 49.2184L12.7564 47.8077L16.2047 46.9848L15.8324 44.4769L7.68187 42.1062L6.78062 39.951L3.46945 37.3256L4.29231 36.1109L3.76333 35.6798L2 33.6814L3.0188 30.2135L2.62698 29.7628L5.40911 27.9015L4.68419 26.7456L6.11448 24.6883L5.64421 23.4932L10.4444 22.4156L11.1302 23.2189L11.7963 22.6507L12.8348 23.4344L13.5597 21.8474L12.8739 20.711L15.323 20.0253L15.5581 18.3403L17.4978 17.4586L17.008 16.2047L17.4978 15.3818L20.378 15.1075L20.6718 16.479L22.2001 17.2431L22.7095 16.7729L25.4916 18.1052L28.6656 18.0464L28.2542 21.1029L30.86 23.6695L33.3091 22.1805L37.8938 22.5135L38.1093 21.338L40.6956 20.9853L40.5976 22.3372H45.0843L45.3194 22.8858L45.7505 22.1805L46.6909 23.2189L47.1024 22.7291L48.4934 23.3952L49.1204 22.5135L48.2192 21.9453L48.4543 21.0049L51.5695 20.6914L56.8399 17.0864L56.6048 15.4993L58.4662 14.892L57.9567 14.1866L58.8776 13.3442L59.8376 13.5009L60.249 11.8355L60.974 11.5416L60.6018 10.2681L63.2663 10.3661L63.9717 7.3292L65.2452 7.19205L66.891 5.40912Z" fill="#484848" fill-opacity="0.1" stroke="white" stroke-width="2"/>
</svg>
