<svg width="178" height="209" viewBox="0 0 178 209" fill="none" xmlns="http://www.w3.org/2000/svg">
<path d="M50.2168 4.80176L57.1527 5.82057L60.5814 4.01805L62.1096 3.90049L64.5195 4.6646L64.8134 5.7618L67.6935 6.25162L70.7892 9.85667L71.8472 9.66074L71.9647 11.091L73.3362 10.8167L74.0807 11.4241L76.1576 10.3661L80.7227 10.6992L81.7611 11.5808L85.7776 11.3261L87.6193 10.033L87.8152 14.363L89.4414 14.1279L90.8521 16.2831L92.5371 16.7141L92.7526 18.1836L97.4744 18.3599L98.2973 16.6945L100.531 15.9304L100.766 15.0095L102.235 15.5973L107.29 15.4406L108.486 16.7729L111.248 17.7721L111.816 18.6538L111.444 20.5739L113.756 21.7103L114.167 22.7291L117.694 21.769L119.81 23.5912L122.259 23.7283L124.316 25.041L127.373 21.4947L141.244 20.9461L141.695 32.6038L144.419 32.3099L146.006 33.6618L144.105 37.0905L144.046 39.1282L150.473 38.8539L151.805 37.5999L153.843 38.6579L156.115 38.9322L156.213 38.0702L157.859 37.2081L158.623 38.5796L159.858 37.7175L160.249 38.3249L159.603 39.8335L161.268 40.7935L162.796 38.6383L161.817 38.6971L161.582 36.3264L162.189 35.5819L163.502 37.0513L164.344 35.5819L169.047 38.9126L170.692 37.7567L173.004 38.1877L173.729 38.9714L175.767 39.0106L176.159 40.5584L175.551 43.2426L172.848 45.8485L172.691 47.9253L171.848 48.2975L172.26 50.2764L170.947 49.8454L169.203 51.9614L166.264 52.412L166.362 57.5845H167.616L168.557 60.5038L166.499 60.5234L165.696 59.0539L162.934 57.2318L163.227 55.1354L161.366 55.1942L160.485 63.188L162.267 64.0305L162.307 66.793L160.563 69.4185L156.997 70.163L158.486 74.9632L157.506 75.9624L159.074 76.8049L159.231 77.8629L155.43 81.5463L152.647 86.4837L152.941 87.4633L151.981 87.9532L152.06 92.675L149.238 94.5951L148.846 96.7699L149.571 98.3765L146.456 98.4744L146.123 99.4149L142.577 99.6892L142.753 102.021L140.97 102.863L143.576 108.643L143.615 109.603L142.479 110.054L142.244 111.484L144.791 113.737L144.144 114.913L144.673 115.344L144.144 116.598L144.516 117.891L143.321 119.772L143.929 120.986L143.38 124.043L143.987 124.65L143.948 126.982L145.79 127.766L145.339 129.568L146.104 132.096L144.027 136.974L141.832 137.483L141.244 138.346L141.93 138.992L141.813 140.755L140.441 142.303L143.047 144.243L142.165 146.143L143.145 148.161L140.794 148.651L136.581 148.847L136.562 146.065L135.582 145.399L132.702 147.201L132.526 149.67L129.077 148.906L128.47 150.983L127.099 151.551L126.628 152.668L123.376 151.806L121.299 150.375L118.282 154.176L116.93 152.746L116.303 152.942L115.813 154.764L113.56 154.823L113.031 156.155L112.424 156.175L112.169 158.154L113.971 157.586L113.736 158.408L110.739 159.075L111.013 157.213L110.347 157.409L109.818 159.447L110.445 160.838L109.132 160.642L108.76 163.757L107.565 163.444L106.781 166.598L105.37 166.324L104.547 169.165L101.471 168.832L100.492 171.732L98.2581 172.711L98.6108 174.024L97.6704 174.043L97.7095 175.003L96.4948 174.729L96.2401 176.081L95.2213 176.884L95.6523 177.766L94.222 177.864L94.3004 179.275L95.0449 179.667L87.8544 179.49L86.816 180.803L85.5229 180.92L83.0934 183.095L81.8198 184.624L81.7219 186.465L80.6247 188.15L76.9021 188.895L76.1576 188.189L73.4734 186.367L74.2767 184.428L73.8456 182.939L75.942 183.056L76.2555 179.333L74.3942 179.529L72.3566 183.174L65.6559 180.352L62.2663 183.056L61.8157 182.135L59.7193 181.41L58.818 180.274L56.9371 180.294L53.3713 184.173L52.0782 187.151L49.6878 188.091L48.0421 187.7L45.9848 188.385L43.5161 187.562L43.1243 188.934L40.734 188.483L36.9134 191.187L33.4847 188.875L32.0348 191.461L28.469 190.834L28.5277 189.972L26.784 189.757L24.9227 191.344L25.0402 193.695L25.4909 194.694L27.3522 195.047L27.6265 196.281L25.2362 197.065L25.4713 198.319L24.2565 199.416L23.7863 201.356L19.3583 202.1L18.3591 206.391L15.91 204.451L8.28848 193.499L8.66074 189.659L9.562 188.307L6.54474 186.113L6.38799 184.388L7.25007 183.84L6.93658 182.762L7.87704 181.371H8.83708L8.93503 178.001L6.3488 176.786L3.56664 177.629L2.72415 177.217L1.99923 175.905L2.56741 174.768L3.76256 174.808L3.70379 173.965L6.30962 172.75L5.15364 171.163L4.78139 168.695L6.38799 167.676L7.13251 169.635L8.36686 169.4L9.18975 167.597L8.22971 165.971L6.62309 165.952L6.46636 163.601L5.72183 162.366L4.36995 162.738L5.19284 160.113L1 157.703L5.25161 158.369L5.87858 154.647L5.38876 153.491L3.40989 151.943L3.54704 149.886L7.89662 149.807L8.28848 150.65L11.1294 151.002L11.7956 151.708L14.9696 151.375L15.8904 149.102L16.8113 148.397L16.2823 146.574L14.8716 147.201L15.4398 145.066L14.2055 141.578L15.7141 141.598L16.8505 142.989L18.5159 143.146L18.8098 143.792L21.8858 143.498L19.711 141.304L19.4955 140.128L18.7706 140.285L19.4563 139.247L20.338 139.384L21.298 137.836L20.6711 135.661L22.0425 137.581L26.1374 138.385L25.9023 137.542L29.2723 135.994L34.19 134.212L35.0325 134.701L34.7974 132.703L37.1289 132.801L41.0867 131.625L41.1258 133.78L43.2222 136.073L42.2818 137.209L44.3586 137.444L46.6118 136.7L47.8853 137.581L49.8054 141.97L50.6087 142.264L51.2161 141.52L49.9621 139.854L52.9794 135.328L53.4692 133.271L53.0382 129.725L54.0374 127.237L54.0766 124.004L55.5265 120.536L62.9521 121.711L64.1081 119.419L64.0493 118.42L62.3839 116.872L61.0124 116.696L61.7569 109.427L59.1511 107.33L61.3847 106.449L66.8706 105.92L67.1057 102.844L68.5164 102.334L67.38 97.2989L62.717 94.1836L59.9544 94.5363L57.4857 93.8114L57.9952 91.8129L57.1135 90.3043L58.6809 89.5402L60.9536 89.8536L60.9732 88.0903L61.8941 88.1883L62.1684 89.0503L64.9897 87.816L65.0093 86.6796L66.1849 86.66L65.6559 83.6624L61.5414 79.1169L57.9168 78.294L57.8384 76.511L56.9959 75.4138L57.4269 74.0619L55.7224 72.6904L54.5272 72.6121L54.0178 70.3393L51.7059 69.2617L50.1189 67.5572L50.2952 64.5791L49.7858 64.148L51.1573 63.5602L50.354 62.0712L48.6298 63.4035L47.5326 62.9921L46.9057 63.4231L45.3775 62.6002L45.6322 60.6605L43.477 60.6801L42.6932 61.9341L43.3594 62.8549L42.2818 62.5022L41.5765 63.2076L41.694 61.5226L41.0867 61.5814L40.636 60.1903L37.7363 58.0155L37.7559 52.0593L36.2864 52.1377L36.5411 50.8838L35.0521 50.8446L35.3656 49.5123L31.9564 49.8845L31.7213 48.7678L34.6407 47.651L34.6211 46.6909L32.8185 45.868L33.563 44.1439L34.719 43.5561L35.1892 41.1854L33.7786 38.8735L32.5051 39.0302L31.9173 36.9338L30.487 37.7959V36.1501L32.9557 35.9345L32.7402 36.6595L33.4651 36.8358L34.2292 34.7198L35.3656 35.0725L37.7755 30.9188L38.4612 27.8624L39.48 26.8631L39.3037 25.6484L40.5772 23.0034L39.9111 21.2596L39.0882 21.9846L38.422 21.6711L39.1078 20.0449L37.1681 17.9093L37.6383 16.2831L38.5396 15.6561L37.6188 13.2266L39.2058 10.5032L41.1846 9.28848L42.0075 7.95618L39.6956 7.11369L37.0897 7.25084L34.7974 5.72261L34.4251 4.70379L42.223 5.60506L45.6126 4.72338L46.9841 4.99768L46.122 2.23511L46.9449 2L49.8446 2.76411L49.5899 4.27275L50.2168 4.80176Z" fill="#484848" fill-opacity="0.1" stroke="white" stroke-width="2"/>
</svg>
