<svg width="40" height="43" viewBox="0 0 40 43" fill="none" xmlns="http://www.w3.org/2000/svg">
<path d="M13.3637 2.23516L15.0487 2L16.7533 3.05802L21.0245 3.2148L22.0629 4.13566L22.7095 7.05495L21.3968 7.72109L19.4963 7.44683L18.6538 8.38724L18.8497 9.85669L20.5347 11.4437L25.2761 9.58242L28.5873 11.5612L29.0575 13.7165L28.7832 14.4806L26.5105 15.8325L26.4125 19.2612L26.9807 20.3192L32.5646 23.1014L33.3287 27.6077L38.3444 35.817L37.404 37.5412H35.9737L35.3076 38.1877L35.2292 39.7943L32.5842 39.7552L28.6656 41.2442L25.7659 41.4009L23.6891 38.1877L21.0637 38.4424L19.9861 37.7763L19.0064 33.701L17.7329 32.0944L16.8708 31.683L13.7165 32.0748L10.4053 30.6641L9.22971 31.2323L7.09411 28.215L3.44984 25.5112L2 23.4149L3.44984 22.6703L3.46945 24.3749L3.95927 23.9635L4.01805 24.708L4.50786 22.5332L5.58544 24.4924L4.91929 22.1413L5.66382 21.5144L10.8167 20.2996L16.0479 20.6131L14.1279 19.4571L10.7971 18.889L12.2862 17.8505L13.1874 15.0096L12.4233 3.82217L13.3637 2.23516Z" fill="#484848" fill-opacity="0.1" stroke="white" stroke-width="2"/>
</svg>
