<svg width="185" height="243" viewBox="0 0 185 243" fill="none" xmlns="http://www.w3.org/2000/svg">
<path d="M61.1699 2.8033L62.3259 5.7618L61.4246 7.25084L63.5798 8.68111L65.637 9.32767L66.0093 8.56355L66.6559 8.95541L68.3408 11.4437L68.0078 15.1075L69.2029 15.3622L69.4185 16.5378L71.9263 17.0668L72.6316 19.6726L75.4334 20.0645L76.0995 22.0629L75.8449 23.7871L79.6066 26.5105L79.254 28.8616L77.8433 30.2723L78.4703 31.8397L76.0604 34.0536L77.2359 34.1516L78.4898 37.2277L78.0588 38.7755L78.4507 40.9111L81.0957 41.7732L80.645 43.6345L81.468 45.1431L84.446 45.0451L85.602 48.0624L86.9147 49.3359L86.5816 50.296L89.1483 51.3148L89.1287 53.6267L88.4626 54.4888L89.501 54.7043L90.4806 53.7247H91.7933L93.7917 55.7428L95.7706 56.5461L96.4564 58.0743L97.6123 58.3682L99.5128 60.2883L99.023 64.2656L100.904 66.7343L101.178 69.0658L99.9439 71.3385L96.1625 72.4357L92.4399 71.6128L91.2251 73.239L87.5809 74.0815L86.0526 73.5133L85.3865 74.395L82.6239 75.2767L80.4491 74.9828L77.4514 77.2947L77.9609 77.9217L78.9209 77.6866L79.3519 79.0581L80.6059 79.156L80.6255 79.9789L82.9766 79.7242L84.0346 84.6812L86.0526 84.4069L86.3269 86.9931L87.62 85.9743L88.9328 88.6389L89.0895 91.4994L91.519 91.6758L92.4203 93.0668L92.2439 93.8701L91.0488 93.8897L91.2447 97.1029L89.7752 97.7887L88.3254 99.6304L88.7956 101.413L88.2274 102.354L86.7776 102.628L87.2282 103.666L86.5033 103.941L87.0323 105.861L88.5409 105.743L89.8536 107.193L91.1663 106.997L90.9508 108.251L92.0284 108.094L94.0464 109.172L94.3404 110.426L92.6554 112.757L90.6373 112.601L91.0684 114.011L90.6569 115.207L90.1475 115.109L89.834 116.363L88.0707 117.048L88.7956 118.674L87.4829 119.203L87.287 120.085L92.5574 122.946L93.9877 122.789L97.5339 119.282L100.884 120.947L101.629 120.555L104.293 122.28L105.939 122.495L106.566 121.555L107.84 121.574L110.446 123.396L111.935 121.28L115.873 122.025L116.421 127.334L119.595 129.823L120.457 128.941L123.377 129.627L124.239 128.569L125.591 129.921L127.06 130.136L127.276 128.784L129.059 127.099L130.019 127.785L131.488 127.315L132.311 126.257L134.074 126.472L134.427 125.14L136.837 123.357L138.757 123.553L140.638 124.866L140.932 126.433L142.362 125.218L143.028 123.631L146.418 123.729L148.161 124.494L146.888 127.687L147.28 130.038L146.555 130.822L147.476 131.919L147.711 133.957L149.67 134.995L148.945 136.523L149.886 137.738L149.69 138.698L148.514 138.483L148.044 139.306L149.063 139.227L150.709 142.48L152.315 143.146L154.784 141.147L156.175 141.951L156.332 141.108L158.389 140.344L158.448 139.795L161.23 141.382L163.072 141.128L163.777 142.342L165.031 142.832L165.266 145.262L163.679 145.967L162.836 147.201L159.408 146.379L161.563 150.454L159.995 153.883L160.368 154.803L162.621 155.097L162.68 155.803L164.11 155.999L164.756 156.939L164.952 158.213L163.483 158.937L164.58 160.524L163.601 161.563L165.031 162.425L165.991 164.188L165.717 168.93L168.185 170.85L169.89 170.811L170.615 171.418L169.518 174.729L169.811 175.532L168.381 176.669L168.577 177.472L169.322 177.629L168.753 179.177L169.341 180.607L171.026 181.978L170.517 184.232L168.871 183.134L164.619 184.623L164.384 185.897L166.422 189.737L164.306 192.167L166.755 194.048L167.225 197.241L169.87 201.571L175.513 205.117L176.022 204.099L177.041 205.529L176.982 212.112L178.902 213.229L178.315 214.13L179.823 215.6L182.233 215.639L181.881 216.344L183.428 216.736L183.076 218.382L182.096 218.676L181.822 219.812H180.646L179.706 219.126L179.98 218.617L177.629 218.049L176.257 219.087L172.574 219.342L173.73 220.87L173.044 222.006L171.732 221.144L171.105 221.732L168.714 219.538L167.499 219.42L166.422 217.657L165.188 219.048L163.424 219.087L163.542 221.536L160.172 219.087L157.977 222.143L160.133 223.613L158.369 224.808L155.959 224.691L155.391 227.747L154.118 227.708L153.824 228.55L151.336 227.375L150.983 228.315L148.24 226.944L145.752 229.608L142.95 230.823L143.048 232.312L141.167 234.898L140.305 234.702L140.226 233.468L138.855 233.076L138.62 233.742L138.189 233.135L135.72 232.9L136.445 235.545L134.407 236.25L128.236 235.016L127.472 235.702L125.258 235.545L125.022 236.113L121.221 237.054L121.692 235.858L120.653 235.408L118.479 236.74L118.459 240.58L117.068 240.482L117.323 239.836L116.754 239.483L115.794 240.619L115.207 239.855L113.835 240.521L111.072 238.915L109.995 239.601L108.212 238.268L107.154 236.015L107.624 234.428L106.645 233.37L109.113 230.627L109.917 228.609L108.506 226.63L107.213 226.336L107.056 227.12L106.331 226.591L105.841 222.712L101.766 222.163L99.2777 219.988L98.4548 219.146L99.1405 217.108L97.0637 214.953L97.6319 214.052L89.1679 207.057L88.443 198.319L86.5425 196.712L85.3669 197.907L83.4468 197.594L79.9201 199.298L79.8026 201.16L78.5486 202.218L77.6474 201.356L78.8229 199.749L76.1583 198.691L73.6701 200.396L73.9248 199.181L68.9286 195.399L66.4012 198.652L64.7946 196.889H63.5798L59.4457 198.652L59.7397 199.494L61.4834 199.71L62.032 200.454L61.6597 201.238L58.1918 202.61L55.9582 204.49L54.6259 204.588L53.1173 203.452L43.5757 200.787L41.3813 201.336L40.4016 202.316L38.8342 200.572L37.6783 202.61L37.306 201.395L36.3264 201.081L34.465 201.806L34.4063 202.747L33.4854 202.041L32.9564 200.356L30.6249 200.454L30.429 198.123L26.8239 198.044L26.5888 196.889L25.5308 196.575L24.0418 194.733L21.6515 196.203L21.3771 199.22L20.28 199.808L18.3207 199.298L17.1256 197.77L13.4617 199.651L12.482 198.456L10.1897 198.142L8.97499 196.007L12.1882 192.03L12.4037 190.776L13.7948 190.403L12.58 189.639L13.7556 185.995L13.4421 185.055L15.5386 183.957L15.7344 180.019L14.8332 178.256L19.8293 177.1L21.4947 175.983L21.0441 175.435L19.8685 175.572L19.3983 174.494H18.1835L15.852 169.929L16.8121 169.106L15.9892 166.265L17.8896 163.992L16.8904 163.561L17.6154 161.974L17.008 159.917L17.8113 159.133L19.4375 159.153L18.7321 156.018L19.0064 152.119L16.4202 152.256L15.6169 152.883L14.9311 152.511L13.4813 147.319L10.8755 148.847L10.8559 149.846L8.50473 148.847L9.58236 145.399L11.2478 144.165L9.71953 142.871L10.3857 140.834L8.28924 140.422L8.1913 139.443L3.03841 138.502L2.76408 139.012L2 138.326L5.13478 132.938L3.15596 131.018L4.64497 128.726L4.09637 128.216L5.03684 127.158L7.48593 127.06L8.36763 126.453L7.81903 124.062L10.2485 121.339L9.62153 120.085L10.5816 117.558L8.40679 117.068L9.62153 116.794L8.75944 116.088L10.131 115.657L10.9343 113.913L9.99379 111.523L8.15207 111.562L8.28924 109.152L6.9765 106.312L8.85744 104.94L9.46481 105.449L8.21085 106.86L9.7783 107.703L9.73908 108.898L11.4241 109.27L13.0502 109.015L12.9131 107.624L11.9335 107.546L11.4829 106.625L13.0502 106.762L13.4421 107.761L14.3434 107.82L14.6373 106.057L13.4617 105.41L14.5197 104L13.2658 102.824L13.736 99.6892L14.6177 98.5724L14.3238 96.907L14.794 95.6335L15.5777 95.9862L18.4187 94.4579L17.9484 91.1272L16.8904 90.5394L16.0284 88.443L16.2635 87.6201L19.3395 87.718L20.378 86.6012L18.3011 86.229L15.9304 83.5056L15.754 80.1161L14.167 79.6458L15.1663 77.5494L14.6373 71.3385L12.5409 68.9678L11.718 66.1073L10.9538 65.8722L11.5024 65.0493L12.3841 65.1472L13.7948 62.0712L15.323 61.3855L14.794 59.8768L14.0691 59.5633L13.7164 56.4089L17.3019 54.1362L17.3607 52.0397L20.28 51.8046L20.1624 50.9426L21.965 50.825L22.7094 49.767L24.7667 50.2764L25.1781 48.9637L26.4125 48.5718L27.353 49.3751L28.9791 49.3359L30.5073 44.2027L27.8623 40.9699L25.8443 40.1078L26.6476 38.364L29.2142 38.4424L31.4282 36.3264L32.3687 36.3656L33.9361 38.8734L36.679 37.6587L38.7755 37.5999L38.8146 32.2903L38.2269 32.8389L36.0325 32.0748L34.759 32.4275L35.1508 31.4478L34.563 30.0763L32.9564 29.5081L33.1132 28.4109L28.313 26.197L27.4117 26.7456L28.3914 27.2158L27.0395 27.0199L27.3921 25.1586L28.0974 24.943L26.6476 22.8074L26.4321 21.3576L27.7644 20.0057L26.6476 18.6734L28.9007 17.7917L30.1155 15.5973L29.5669 13.9907L30.429 13.8732L31.1147 12.7956L31.0363 11.3653L31.8592 10.4249L31.2715 9.71952L32.2903 9.34726L31.5261 7.56432L33.0936 6.97654L34.0145 4.52746L35.288 4.91931L34.7981 3.64579L35.9933 2.15674L36.6007 3.13638L39.7551 3.27353L40.1861 4.80176L39.5788 5.70302L38.3444 5.89895L37.502 7.97577L42.6156 9.28848L43.0663 8.19129L41.8123 6.93736L44.2222 8.19129L45.8092 5.80098L49.2967 5.17402L50.6878 4.1552L50.923 3.21475L53.0193 2.66615L54.0774 3.56742L58.0155 2L61.1699 2.8033Z" fill="#484848" fill-opacity="0.1" stroke="white" stroke-width="2"/>
</svg>
