<svg width="119" height="183" viewBox="0 0 119 183" fill="none" xmlns="http://www.w3.org/2000/svg">
<path d="M43.948 29.0575L44.9472 24.7667L49.3751 24.0222L49.8454 22.0825L51.0601 20.9853L50.825 19.7314L53.2153 18.9477L52.941 17.7134L51.0797 17.3607L50.6291 16.3614L50.5115 14.0103L52.3728 12.4233L54.1166 12.6388L54.0578 13.5009L57.6237 14.1279L59.0735 11.5416L62.5023 13.8536L66.3228 11.1498L68.7131 11.6004L69.105 10.2289L71.5737 11.0518L73.6309 10.3661L75.2767 10.7579L77.667 9.8175L78.9601 6.8394L82.526 2.96005L84.4069 2.94046L85.3081 4.07684L87.4046 4.80176L87.8552 5.72262L91.2447 3.01883L97.9454 5.84017L99.9831 2.19592L101.844 2L101.531 5.72262L99.4345 5.60506L99.8655 7.0941L99.0622 9.03379L101.746 10.8559L101.178 11.4437L101.609 13.0895L101.002 13.6577L101.903 14.7744L103.255 14.7157L102.687 15.8912L105.273 17.8701V19.0065L100.453 19.3395L100.512 22.3764L101.844 23.2973L102.158 24.7471H101.55L101.511 25.7268L100.257 25.7855L98.8663 26.9415L101.1 27.784L100.414 30.2331L98.3177 30.0567L98.2393 30.9776L96.9266 31.9964L96.7111 33.9949L97.9846 37.6783L95.9274 39.3437V40.147L97.6515 41.009L97.7691 41.6752L100.453 43.0663L98.8859 45.2411L101.394 49.0029L102.001 51.9614L102.961 52.5688L103.333 55.5469L101.276 56.742L99.7871 59.1519L103.059 61.2679L105.077 63.5603L105.293 64.7946L104.274 65.2452L104.215 66.8127L102.569 66.6951L102.138 67.9882L100.395 69.5164L101.335 71.6912L100.884 72.5141L101.629 75.4138L100.63 75.7665L100.179 74.7281L98.8075 75.5706L96.5935 79.5283L99.8459 82.6435L100.022 87.7964L102.608 90.8333L101.766 93.1256L103.255 94.0269L102.55 95.0457L103.235 96.3388L102.158 96.1821L102.138 98.3569L103.627 99.7871L103.569 101.217L104.391 102.119L103.686 102.432L104.078 103.471L103.196 103.294L104.195 104.744L103.235 105.665L103.294 106.703L100.59 106.664L100.512 108.917L99.7088 109.094L100.022 109.936L99.3365 111.445L100.003 112.953L99.6892 113.953L101.1 114.991L99.6892 115.207L100.63 117.871L100.12 118.4L100.59 121.378L99.8263 123.71L101.374 124.102L99.3953 125.885L100.904 127.883L100.277 129.019L101.394 130.665L101.002 131.371L99.8459 130.979L98.9447 131.664L99.3365 132.468L101.217 132.938L98.8859 134.055L100.884 135.936L99.9635 137.836L100.159 139.502H99.3561L100.12 140.932L101.159 140.129L101.903 140.383L100.747 141.696L101.315 143.42L100.571 145.791L101.57 146.32L102.706 149.455L104.274 149.729L103.588 150.591L102.119 150.101L102.746 152.413L101.413 151.238L100.924 151.688L101.433 153.432L102.804 153.785L102.393 155.293L103.392 156.057L103.216 156.528L101.942 156.175L103.314 157.762L102.452 160.524L103.079 161.661L101.903 162.719L102.217 163.326L103.431 163.13L103.51 164.678L105.43 164.541L105.116 166.814L107.605 166.069L106.331 167.715L108.251 167.95L108.545 168.597L106.566 169.302L108.643 170.478L109.877 173.025L110.916 172.868L109.466 174.69L111.347 175.728L111.014 177.276L111.797 177.257L112.522 175.18L114.266 177.413L116.01 176.845L116.519 177.766L113.11 178.04L110.544 180.783L108.721 179.902L107.134 180.666L104.92 177.57L100.199 179.04L98.2785 178.726L96.8874 176.728L96.6719 171.594L94.889 169.557L93.8114 170.203L93.4783 171.634L95.4375 174.847L95.5551 176.297L93.4195 177.786L90.0888 173.142L91.5386 170.909L91.1272 167.5L90.5198 166.814L89.2267 167.284L88.5409 170.517L85.5041 169.361L82.8199 172.319L81.0957 172.809L78.9013 171.516L77.2555 171.771L77.5494 169.282L74.1795 164.737L72.906 163.992L72.1419 164.012L71.0838 165.227L69.634 168.224L68.0862 165.286L62.5023 164.188L61.9341 163.444L63.9521 161.7L64.0305 160.72L61.4442 159.702L61.2091 158.82L62.9725 157.468L63.2468 156.528L60.5234 154.823L56.9183 151.14L54.3125 150.807L50.9622 148.259L50.6095 147.417L51.9222 145.85L50.8446 144.654L49.6494 144.145L49.1596 144.556L49.8845 146.339L49.2968 147.084L45.2411 145.497L43.6932 145.556L44.3006 150.709L43.5561 150.904L42.5765 149.592L41.6752 149.455L40.3037 150.904L39.4416 153.158L37.6391 152.981L36.5419 151.218L36.8358 149.631L38.1681 148.73L41.6556 148.691L42.4001 147.319L41.8711 146.731L40.3233 146.947L39.3633 145.144L37.0905 144.596L35.7974 146.633H34.6218L35.9737 143.165L36.3264 138.208L34.6806 139.168L33.3679 138.698L33.7794 140.031L31.8201 141.813L32.016 144.4L31.2715 144.929L30.0763 144.517L28.6461 138.855L30.527 136.896L28.0779 134.917L28.4501 131.704L26.8239 133.291L22.0433 130.293L18.6342 132.076L18.693 130.195L14.5393 125.943L15.323 123.102L20.2604 124.278L20.1624 123.318L19.124 123.044L19.7314 119.517L18.2619 118.733L14.4218 118.341L11.5025 114.971L11.4633 113.286L16.2439 107.663L10.6208 104.862L10.4053 103.157L9.58236 102.295L9.40604 99.1602L11.5416 95.9862L10.033 94.9477L9.36684 92.6358L8.54395 92.048L7.19205 92.7142L6.13404 92.1852L5.11523 87.0715L2.41144 80.9977L2.74452 75.7665L2 73.3958L7.03532 73.1607L7.38799 71.848L9.42562 71.0838L10.2093 72.2398L10.0526 70.4765L11.6592 70.4569L12.3841 69.3989L14.5589 70.4961L14.1671 69.4772L14.8724 68.8307L16.7141 69.4381L16.4398 68.6543L17.5958 68.7915L18.5558 66.7735L20.0057 66.3032L20.7698 60.5234L22.2001 56.5853L23.7871 57.1534L25.2761 59.2107L28.5481 55.8603L25.8247 53.0586L26.8239 51.3932L26.2949 47.2983L29.802 48.3955L30.7033 46.6518L32.1923 46.7497L32.7409 46.1227L36.1109 47.6314L37.2081 47.4551V46.397L38.031 46.1815L39.9119 47.22L40.6172 44.5162L45.4762 43.2426L46.7105 40.0882L45.6917 38.5404L46.4166 36.4244L48.9441 35.5819L47.4942 34.6414L47.9841 32.7213L47.3375 31.0756L43.948 29.0575Z" fill="#484848" fill-opacity="0.1" stroke="white" stroke-width="2"/>
</svg>
