<svg width="169" height="123" viewBox="0 0 169 123" fill="none" xmlns="http://www.w3.org/2000/svg">
<path d="M36.4831 6.85901L38.3444 7.76026L39.5396 6.60429L42.9879 7.4076L43.9676 6.36919L46.9456 9.19051L48.1408 9.11216L49.0812 11.5025L51.9418 10.9147L52.1377 9.83708L50.923 8.60276L51.354 7.81903L55.1158 9.93505L52.7451 11.5808L53.8227 14.8136L52.4904 14.8332L50.9034 16.048L50.8446 17.7133L52.2161 21.0049L54.7435 23.1405L56.9771 24.0418L57.5061 27.157L58.4857 28.3914L59.3282 28.7048L60.4842 27.1962L61.9536 26.6476L63.1292 27.0591L65.735 25.4525L68.0078 26.726L68.1058 28.313L69.2421 28.5481L72.6121 35.7778L76.7657 35.6211L78.1568 34.3476L80.8214 36.5027L83.2509 34.9157L84.2501 37.5803L87.287 39.0106L90.4414 39.9706L92.8905 38.5796L95.6335 39.1478L98.494 39.8923L99.0622 41.1854L100.669 41.2246L101.511 41.9691L101.609 43.5953L106.076 47.9841L111.562 48.278L111.954 52.8235L115.52 56.4677L119.223 55.7232L120.497 57.4473L119.36 63.4035L120.262 65.0885L123.475 65.9114L124.18 65.3432L123.984 64.4223L125.375 61.2483L127.903 61.7185L129.94 60.2099L130.665 60.6801L131.566 59.3282L133.604 58.4857L134.466 59.387L133.839 60.445L133.937 62.8549L134.936 63.9913L133.878 65.5391L134.055 67.42L135.074 68.5368L134.799 70.9663L135.622 71.7892L135.446 73.1019L137.444 74.4538L137.405 75.1591L141.657 76.0408L142.48 76.9029L144.596 73.8268L144.478 72.4553L147.966 73.1803L149.102 74.1795L148.769 75.8057L149.729 76.9812L153.02 78.7054L154.823 81.4288L157.664 83.6036L158.173 84.6028L157.703 87.2674L160.427 88.4038L161.72 89.9124L160.093 91.6562L160.309 92.2831L159.408 93.106L159.995 94.164L158.84 95.849L160.681 99.2385L162.17 99.8067L162.601 101.257L165.207 102.902L167.029 106.723L163.718 109.583L162.934 114.756L162.151 115.677L160.309 115.52L159.31 116.441L154.314 114.56L151.531 116.186L150.767 118.851L148.632 120.007L146.986 118.89L144.067 120.849L142.519 120.751L140.618 121.77L138.208 119.713L132.879 120.026L131.743 117.812L129.568 116.323L127.609 116.656L126.041 114.893L124.376 115.677L123.965 114.971L122.338 115.324L121.613 116.813L117.675 117.342L116.578 118.302L115.344 117.519L113.737 113.796L110.798 112.17L108.819 111.974L103.373 113.208L99.9439 110.837L96.6915 111.308L94.262 109.701L93.7722 112.052L92.0088 114.834L89.0895 113.992L87.9532 112.66L86.66 112.816L85.6608 111.464L84.113 111.288L82.3888 109.623L81.1937 109.642L81.4288 107.899L78.5487 107.115L77.7454 106.214L78.4703 104.431L77.0008 103.098L76.8441 101.766L75.982 101.648L75.4726 102.471L71.8871 101.962L71.0838 99.9635L70.2414 99.7284L69.105 100.532L68.3997 102.217L66.7343 102.961L67.3416 103.921L66.1465 105.058L66.5579 106.292L65.7154 107.369L66.3424 108.114L65.1864 109.701L65.6763 110.073L65.2844 111.053L61.4051 111.249L60.2099 112.62L57.3494 110.524L56.6244 110.877L54.4496 109.779L53.8815 111.033L55.1158 111.837L55.7819 114.952L52.3336 116.049L51.8242 114.717L48.5914 113.443L48.3171 112.679L50.2568 110.524L51.2952 106.37L50.4331 106.625L49.9825 104.489L48.4151 103.588L47.4942 101.864L47.6118 100.042L46.9848 99.9047L46.3383 101.041L46.0248 99.4933L45.3586 99.9635L44.1243 99.5324L44.379 100.414L43.8108 100.806L43.0467 99.7479L41.6752 99.7088L37.2864 102.511L31.9768 100.865L32.4862 99.9047L31.7613 97.5928L32.4079 97.3576L31.4478 95.7706L30.8796 95.8882L30.1547 93.9681L30.6249 92.0676L28.0387 90.8333L26.9219 89.1287L26.9611 88.0119L25.7659 87.7572L26.0402 86.9148L25.0802 86.3662L23.1013 87.5613L21.4751 86.5425L19.3591 86.758L18.0268 88.1883L15.2643 83.8387L15.0683 81.0957L13.5205 79.3324L13.8928 76.6482L10.5032 75.9036L8.75948 73.4154L10.3465 70.9663L8.48518 70.8487L6.54551 69.3205L2.45063 71.6324L2 68.3213L3.46945 55.253L4.97809 51.6283L7.13329 49.7474L8.15211 49.7278L9.54319 47.2199L12.9915 44.281L15.4014 43.5169L16.8709 38.5796L16.8121 37.7763L15.6365 36.8358L15.8129 35.719L18.5362 31.8789L17.7917 28.3914L18.2228 25.8051L19.1632 24.2181L20.7502 23.2973L21.4555 19.751L21.0245 18.9085L24.3161 14.1475L24.61 12.5605L26.1382 11.816L27.4313 12.1098L29.0771 11.1106L28.5285 9.66075L29.4298 8.83786L29.5473 3.93969L30.86 2.43104L31.8789 2L34.4063 3.66539L36.4831 6.85901Z" stroke="white" stroke-width="2"/>
</svg>
