<svg width="179" height="188" viewBox="0 0 179 188" fill="none" xmlns="http://www.w3.org/2000/svg">
<path d="M32.6038 16.5966L32.5842 15.7149L33.5442 16.1263L35.8953 15.5973L36.9926 14.3826L38.991 14.2454L40.7347 13.305L48.3759 14.167L50.7858 13.9907L53.5288 12.2666L58.0155 12.051L58.5641 12.5213L59.8768 11.3653L59.9944 9.7783L61.2091 10.993L65.7742 11.7767L68.6935 13.1678L70.5744 12.149L71.652 8.79867H74.7477L75.7273 10.3073L78.5878 9.19052L81.4288 13.6968L83.3488 12.9131L83.486 10.131L84.8771 9.73911L88.5605 10.6991L90.461 10.2289L91.5386 11.5024L92.2243 11.3457L93.5762 6.64346L95.5943 6.72182L95.8098 5.85976L99.5912 4.86052L100.492 2.21552L101.472 2L103 2.76411L102.863 4.19437L106.743 6.89817L106.37 9.07296L107.252 8.975L107.781 10.7187L106.018 12.8935L107.565 13.5793L107.546 15.7149L110.093 17.5566L109.486 19.8685L106.39 23.4932L108.055 25.0606L108.682 27.059L110.622 28.0779L109.25 30.2722L109.309 31.8789L111.073 32.5058L116.852 32.2315L117.891 33.2112L119.811 32.4078L124.121 32.7409L126.002 31.2715L126.688 32.5842H128.118L128.412 28.6657L131.684 28.7636L132.546 30.0763L133.506 28.5873L135.152 29.4298L136.915 25.6288L138.169 26.3537L138.483 25.4133L143.381 26.53L145.262 27.8624L143.675 29.4102L143.146 32.1532L145.144 35.8953L145.889 39.6572L147.73 41.3617L148.769 41.1266L148.632 42.165L146.222 43.2818L146.457 44.477L149.317 46.7693L146.986 50.727L143.44 52.4512L143.126 54.5672L144.341 55.5664L144.635 58.4857L145.693 59.9356L147.907 59.8376L151.042 61.6401L150.513 63.2076L150.787 64.677L151.512 64.775L150.552 65.9114L152.472 67.6159L154 67.3416L155.568 68.4976L156.234 66.6167L157.155 66.1465L157.723 68.9286L158.644 69.4381L158.017 70.2805L156.626 69.967L158.056 72.4749L157.213 78.0196L157.742 79.1364H158.546L158.624 80.2924L155.176 81.3112L155.568 83.8387L153.177 83.055L151.649 87.3066L150.807 85.9547V86.9539L150.219 87.189L152.511 91.4211L155.313 90.2455L155.372 92.0872L156.038 92.4986L153.138 96.9462L153.902 97.7299L153.158 98.8663L155.47 101.394L156.43 100.845L158.448 101.884L157.233 103.196L157.938 103.921L158.585 106.978L160.231 108.036L160.877 114.188L167.441 116.323L167.127 116.99L168.636 119.321L167.343 119.556L166.618 121.163L167.421 121.77L167.068 122.593L168.224 122.652L170.928 125.395L172.652 125.454L172.515 127.041L174.533 127.687L174.749 129.157L175.807 129.215L175.317 131.429L172.966 131.743L172.75 133.173L173.456 134.388L176.551 135.328L177.57 140.736L175.728 140.677L176.649 141.245L176.414 142.989L174.063 143.577L174.102 145.36L172.868 147.632L167.186 150.042L167.578 150.944L162.229 155.528L163.836 157.644L163.287 159.329L161.994 159.623L161.387 162.053L160.603 162.876L159.78 162.68L159.741 163.522L161.269 165.246L161.132 166.833L161.876 168.205L161.21 170.125L161.778 171.496L161.23 172.163L157.919 172.123L155.293 173.632L153.53 173.005L154.862 175.885L154.431 180.098L153.53 180.372L154.314 180.862L154.059 181.508L152.296 181.175L152.413 179.98L149.905 179.157L149.553 180.607L148.632 181.077L149.043 182.037L148.024 181.998L147.77 182.527L143.224 182.116L141.696 181.508L141.03 180.019L136.092 180.901L135.367 181.998L135.622 182.801L134.643 183.272L134.368 182.841L133.389 183.409L133.173 182.743L130.685 183.663L128.628 183.409L127.589 182.841L127.099 181.156L124.454 181.998L123.416 180.47L125.649 180.235L125.943 179.529L127.197 179.333L126.59 177.609L125.63 178.275L124.062 178.119L123.377 178.942L121.946 178.197L119.341 178.354L120.301 177.453L119.595 176.806L118.753 177.061L114.54 173.064L113.796 173.338L114.031 174.122L113.051 175.101L113.345 177.394L112.131 179L112.562 180.058L111.562 180.705L110.739 177.492L109.623 177.257L108.937 177.903L106.37 176.786L105.175 182.899L101.355 184.134L101.198 185.348L99.8459 184.192L100.473 182.233L99.3953 179.843L97.6515 179.921L97.1421 179.098L94.8302 179.823L93.733 178.706L89.4226 179.745L88.7956 177.766L86.7188 177.942L86.5817 177.276L84.1913 176.571L82.8199 175.003L82.0361 175.552L81.2132 174.866L78.6074 177.041L77.0792 177.276L78.0588 178.569L76.9029 179.549L76.5502 181.312L76.2955 184.702L76.8049 185.721L74.4734 184.976L71.6128 180.137L72.8668 178.04L72.0635 175.239L68.9874 175.023L66.9694 178.785L65.0297 179.177L64.0109 178.471L64.148 176.277L66.8322 174.514L68.047 172.261L68.0862 169.674L67.0477 167.833L65.0101 169.204L63.717 168.42L57.3494 172.025L56.0562 171.046L56.0367 167.421L54.528 166.481L53.1761 166.402L52.5883 168.028L50.923 169.302L49.669 169.145L48.9441 167.558L49.8454 163.032L48.8461 161.073L47.2591 160.211L40.3625 159.525L36.6203 156.449L35.0529 152.08L31.7025 150.63L29.3122 147.887L26.4909 146.829L22.3764 148.495L19.7902 148.299L16.4398 146.379L17.3411 144.086L16.7925 143.381L12.6192 145.575L10.3465 144.321L9.03377 141.833L9.22968 138.561L7.27041 132.664L2 129.607L3.11677 125.16L4.80174 122.907L3.72414 119.87L4.50786 118.537L3.13638 116.95L3.07757 115.951L4.39031 115.794L4.23357 115.089L5.64424 112.993L4.56664 111.327L4.97807 109.76V108.623L4.91929 104.411L3.2931 101.903L3.44984 98.4353L4.89971 97.0246L4.95849 95.3788L3.43026 93.4391L3.82211 92.3419L2.58776 91.5582L6.40836 85.4453L10.464 85.269L9.1709 83.486L10.6012 81.7618L10.0526 80.0573L10.993 79.254L12.9131 80.0965L12.7368 78.2352L15.6757 80.1749L17.0472 78.8229L16.7925 76.609L19.2612 76.1779L19.8098 75.5118L23.6107 78.3331L24.7667 77.5494L26.3733 78.2548L27.6076 77.0008L27.4117 76.2759L29.0379 75.1395L28.94 72.6708L29.9 74.5713L31.389 73.3762L31.6829 74.2383L32.5842 74.1011L33.9949 75.1003L35.8953 74.5518L36.875 73.5525L36.4635 71.2406L36.0325 70.692L34.8178 70.8291L34.1124 68.5172L35.288 67.518L33.6422 65.6175L34.5239 64.2656L34.6022 62.4239L33.8577 61.072L34.3083 59.3674L33.1916 57.1142L31.3303 56.4089L31.2323 55.2725L32.2903 55.0766L32.2707 54.2341L31.2323 54.0578L31.1147 53.2349L32.545 52.6471L33.6618 49.0225L32.1335 49.6102L30.7033 48.0036L29.8804 48.3367L28.1171 47.5138L27.0395 47.9841L26.628 46.7301L27.4313 45.6133L27.9603 44.1439L28.8616 44.2027L29.273 43.1838L26.197 42.3217L26.2166 38.9126L27.3333 38.2857L28.5873 39.8531L29.7628 38.7755L29.9588 36.2284L27.5489 33.9557L28.5089 32.0748L29.6453 31.5458L30.1939 29.7628L30.9776 30.2527L31.1147 29.1163L31.056 27.1374L28.1366 24.9822L27.9211 21.7102L31.0364 21.2792L30.7229 20.4759L32.7409 18.3991L32.6038 16.5966Z" fill="#484848" fill-opacity="0.1" stroke="white" stroke-width="2"/>
</svg>
