<svg width="169" height="182" viewBox="0 0 169 182" fill="none" xmlns="http://www.w3.org/2000/svg">
<path d="M109.466 2.96004L111.758 2.13715L116.813 5.58546L121.182 6.46714L121.751 7.27044H126.022L126.747 6.13406L128.392 7.05491L129.568 5.13483L133.624 6.70225L133.996 7.72107L136.288 9.2493L138.894 9.11215L141.206 9.95463L140.383 11.2869L138.404 12.5017L136.817 15.2251L137.738 17.6546L136.837 18.2815L136.367 19.9077L138.306 22.0433L137.621 23.6695L138.287 23.983L139.11 23.2581L139.776 25.0018L138.502 27.6468L138.679 28.8616L137.66 29.8608L136.974 32.9173L134.564 37.0709L133.428 36.7183L132.664 38.8343L131.939 38.6579L132.154 37.933L129.686 38.1485V39.7943L131.116 38.9322L131.704 41.0286L132.977 40.8719L134.388 43.1838L133.918 45.5546L132.762 46.1423L132.017 47.8665L133.82 48.6894L133.839 49.6494L130.92 50.7662L131.155 51.883L134.564 51.5107L134.251 52.843L135.74 52.8822L135.485 54.1362L136.954 54.0578L136.935 60.014L139.835 62.1888L140.285 63.5798L140.893 63.5211L140.775 65.206L141.48 64.5007L142.558 64.8534L141.892 63.9325L142.676 62.6786L144.831 62.659L144.576 64.5987L146.104 65.4215L146.731 64.9905L147.828 65.402L149.553 64.0697L150.356 65.5587L148.984 66.1465L149.494 66.5775L149.317 69.5556L150.904 71.2602L153.216 72.3378L153.726 74.6105L154.921 74.6889L156.626 76.0604L156.194 77.4123L157.037 78.5095L157.115 80.2924L160.74 81.1153L164.854 85.6608L165.383 88.6585L164.208 88.6781L164.188 89.8145L161.367 91.0488L161.093 90.1867L160.172 90.0888L160.152 91.8521L157.879 91.5386L156.312 92.3027L157.194 93.8114L156.684 95.8098L159.153 96.5348L161.916 96.1821L166.579 99.2973L167.715 104.333L166.304 104.842L166.069 107.918L160.583 108.447L158.35 109.329L160.956 111.425L160.211 118.694L161.582 118.87L163.248 120.418L163.307 121.417L162.151 123.71L154.725 122.534L153.275 126.002L153.236 129.235L152.237 131.723L152.668 135.27L152.178 137.327L149.161 141.853L150.415 143.518L149.807 144.263L149.004 143.969L147.084 139.58L145.81 138.698L143.557 139.443L141.48 139.208L142.421 138.071L140.324 135.779L140.285 133.624L136.328 134.799L133.996 134.701L134.231 136.7L133.389 136.21L128.471 137.993L125.101 139.541L125.336 140.383L121.241 139.58L119.87 137.66L120.497 139.835L119.537 141.382L118.655 141.245L117.969 142.284L118.694 142.127L118.91 143.302L121.084 145.497L118.008 145.791L117.714 145.144L116.049 144.987L114.913 143.596L113.404 143.577L114.638 147.064L114.07 149.2L115.481 148.573L116.01 150.395L115.089 151.1L114.168 153.373L110.994 153.706L110.328 153.001L107.487 152.648L107.095 151.806L102.746 151.884L102.608 153.941L104.587 155.489L105.077 156.645L104.45 160.368L100.199 159.702L104.391 162.111L103.569 164.737L104.92 164.365L105.665 165.599L105.822 167.95L107.428 167.97L108.388 169.596L107.565 171.398L106.331 171.634L105.587 169.674L103.98 170.693L104.352 173.162L105.508 174.749L102.902 175.964L102.961 176.806L101.766 176.767L101.198 177.903L101.923 179.216L98.2785 177.727L98.494 175.101L97.8866 173.632L95.7119 173.554L90.5982 168.793L89.834 169.909L90.2259 173.279L86.9147 173.26L86.9539 171.888L85.6804 171.771L85.0926 172.574L80.5079 173.103L79.5479 173.848L75.3354 173.299L75.8841 169.949L71.3973 167.245V166.539L67.5572 166.206L67.7335 161.602L67.1261 161.171L67.8315 160.662L67.1849 157.997L67.6747 157.409L66.989 157.037L66.7734 157.997L65.4215 158.33L64.775 157.742L64.8926 155.019L63.0704 151.629L61.9341 151.238L59.0735 152.825L57.8196 152.785L55.0766 150.865L54.6456 149.317L55.3117 148.044L53.3525 145.948L52.4316 147.025L49.9041 147.006L48.9833 149.376L44.3398 148.534L41.7732 146.731L41.0874 144.929L39.8531 144.576L37.3844 140.031L33.9557 140.246L33.6226 138.875L32.3491 138.483L32.8977 134.172L31.056 134.564L29.3122 133.78L29.1555 131.292L29.6649 130.861L28.94 130.626L29.6845 129.392L28.9596 128.726L26.7456 129.157L26.0206 128.412L25.2761 126.472L25.6092 124.337L27.1766 122.123L28.3718 121.476L31.0756 121.613L31.056 122.162L35.1704 121.653L37.3844 119.909L37.8154 118.616L35.8954 118.4L33.9165 116.461L31.6633 116.186L26.1578 109.956L25.2369 105.88L22.3568 103.686L23.7871 103.294L22.9642 103.098L22.494 101.884L23.4932 100.806L22.3764 100.414L22.1217 97.0638L20.4955 96.2017L19.8685 96.7503L19.4963 94.9281L18.6734 94.3404L18.8889 93.0277L18.0268 92.0676L18.3599 91.1076L19.3004 91.0684L19.4963 88.9524L17.6742 87.5025L16.381 87.6984L15.323 85.3473L13.834 84.8967L11.9139 82.428L10.8363 82.3105L11.0322 80.9586L9.97423 79.8418L9.93504 77.2164L8.03455 74.9632L7.99537 74.0619L7.72107 74.5322L5.7618 74.0227L5.38954 74.5909L4.60583 74.0619L5.03687 73.1803L4.25316 72.1614L4.01805 69.7124L5.2328 68.8699L4.84094 68.478L5.84017 66.0877L7.15288 65.9506L6.72184 64.8338L7.32922 63.8541L6.58469 63.3055L8.30885 62.3847L8.26966 61.3659L7.6231 61.0328L8.32844 60.6017L7.56433 60.5822L6.68265 59.3086L7.17247 58.1135L4.82135 57.7216L4.66461 56.3893L6.46713 55.057L6.15365 53.8423L5.4875 53.0586L4.11601 53.5092L2.84249 52.3336L2.70534 50.7466L2.99923 51.5499L5.84017 52.0985L6.60428 51.3932L3.97887 46.495L5.4875 44.7904L5.7422 43.2818L3.66538 42.1062L2 38.7951L5.7618 36.9534L6.68265 35.6407L8.77907 36.0325L13.5205 34.23L14.2062 35.0137L14.2846 37.1689L16.5966 36.4635L22.2197 37.9722L20.0057 40.5192L20.2016 42.3022L22.925 41.5381L27.8428 43.419L29.5081 41.2442L33.074 39.1673L36.1109 34.3279L45.966 28.9008L49.1008 25.4525L47.5922 19.8489L50.7466 14.8724L50.4331 13.6577L53.6659 11.2673L59.6417 11.3261L65.8722 10.4249L69.7907 9.11215L72.6121 10.1897L75.5706 9.7783L77.2947 11.1694H78.3135L82.7415 8.01496L83.5252 8.1717L84.015 9.71952L88.972 8.21088L89.834 9.73912H92.048L94.2228 7.6231L95.7119 7.40758L100.728 3.90049L103.627 3.8809L107.272 2L109.466 2.96004Z" stroke="white" stroke-width="2"/>
</svg>
