<svg width="210" height="205" viewBox="0 0 210 205" fill="none" xmlns="http://www.w3.org/2000/svg">
<path d="M3 67.6747L8.62309 66.2837L14.8144 63.5407L23.2784 62.6394L33.4666 59.2499L37.6595 59.5438L42.2049 61.3463L51.4527 63.4819L54.5484 63.3643L57.0954 62.13L57.6636 60.4842L57.1542 58.6033L55.6063 58.858L56.3705 57.8979L54.7442 57.1143L55.4692 56.8008L55.3908 55.782L55.8023 56.3306L56.3313 55.4097L55.5084 52.1181L54.47 52.1769L53.8234 48.6502L55.9982 48.0232L55.5084 44.7317L57.1346 44.5357L57.017 41.9495L57.5852 41.734L57.1738 39.1282L52.9418 39.8727L52.0601 34.0341L53.5687 32.9369L53.314 30.8209L51.4723 30.8992L50.8062 28.2346L47.926 29.5669L46.9268 24.5708L50.2183 24.1006L50.0616 22.8662L51.7074 22.2393L52.1188 23.3364L54.4896 22.8075L53.7842 17.8309L51.3548 18.0072L50.7669 14.9312L50.0225 14.892L49.5522 11.4045L51.9033 10.8951L50.5906 3.19516L52.0601 3.15599L52.1972 3.70458L54.4896 3.39109L54.47 7.34883L59.0547 6.76104L59.4073 7.42718L62.4442 6.64349L63.9725 4.33154L66.7742 3.29312L71.4176 3.43029L74.67 2.11755L76.453 2.97963L79.4115 2L82.3896 4.13563L94.4391 6.95695L94.6938 8.73989L106.763 2.54859L109.31 6.81982L113.542 6.48674L114.091 9.62156L124.102 7.03534L125.258 7.85823L125.317 8.62234L124.416 9.19051L124.514 10.4444L125.043 10.0134L125.513 10.4641L124.749 11.6396L129.843 10.4641L130.705 13.8928L128.609 14.6961L129.079 15.9304L130.529 16.3027L131.058 19.0261L129.686 19.751L129.784 20.2604L131.195 19.7706L131.94 23.2385L133.546 22.1805L134.271 23.2581L133.566 23.885L134.839 25.9031L134.016 29.6453H131.038L131.273 31.4282L136.524 31.389L139.15 30.2723L138.64 32.3099L139.346 32.9369L143.93 32.9565L144.694 34.4651L148.103 33.9753L148.045 32.0552L151.258 32.3099L151.454 33.1524L156.842 33.701L160.937 33.1916L161.093 32.3687L165.11 31.3499L166.383 31.056L166.638 31.9964L166.109 34.2692L165.306 34.4455L165.365 37.502L170.851 36.7379L171.869 43.1643L172.829 43.223L173.613 48.0037L178.766 47.4551L177.63 49.3947L176.337 49.0421L176.18 49.7082L173.927 50.0609L174.358 52.7843L176.924 52.3728L176.983 53.3329L175.592 53.6268L175.768 54.9982L176.983 55.5664L181.254 53.5092L185.565 60.9544L189.013 58.1919L190.365 60.1315L191.325 59.4458L192.755 61.7381L194.107 60.2883L197.673 66.264L198.163 65.7938L202.885 69.9866L204.452 67.087L205.412 67.518L205.197 68.478L208.684 68.6347L208.508 71.7304L207.959 71.7696L205.412 77.9805L205.961 79.7047L203.335 81.0369L201.65 77.2556L199.73 77.7454L200.612 81.1741L197.849 82.9374L197.986 83.682L195.145 84.9555L194.46 83.6427L189.209 83.9759L188.895 83.0942L187.72 83.2901L190.149 94.6734L184.957 94.2032L185.232 94.7322L182.939 94.8694L185.232 97.5536L185.957 97.2989L186.564 98.2981L187.289 97.4752L187.504 98.6311L188.327 98.1022L188.602 98.8859L189.131 98.6704L191.443 102.079L192.677 101.766L193.421 105.508L191.658 106.586L198.006 109.584L199.319 108.525L200.925 110.348L198.653 113.561L201.983 116.147L199.24 117.754L198.829 117.303L194.107 121.124L196.889 125.532L194.891 126.845L191.932 127.354L186.427 132.076L183.645 137.209L180.784 144.811L177.159 149.69L175.808 149.631L177.767 148.279L178.1 146.966L180.784 144.498L181.333 143.087L179.981 140.109L177.453 137.601L173.75 135.505L166.932 135.74L164.209 137.229L153.766 140.736L151.219 142.48L146.536 148.161L139.443 160.368L137.621 162.405L136.25 162.092L133.977 163.522L133.389 163.463L133.527 162.582L134.584 162.974L135.682 162.209L136.426 160.329L137.68 160.231L140.462 158.095L143.284 153.275L143.342 150.317L141.618 147.809L138.542 145.987L136.269 146.104L133.389 147.26L127.747 146.261L121.457 147.025L117.911 148.495L108.232 154.137L99.3568 163.738L89.8348 168.342L83.6827 176.473L71.7311 196.399L67.9302 199.396L59.2114 202.59V200.239L62.072 198.064L61.9152 196.81L63.9332 195.752L69.0666 194.792L74.1018 192.382L74.7484 189.189L79.2351 182.919L79.7838 180.196L81.0964 179.921L83.6043 175.924L83.0949 175.552L82.0369 176.101L81.1552 178.315L79.9405 176.395L77.511 176.159L76.7469 171.908L77.9616 170.125L77.9028 168.518L77.2563 167.519L73.9451 166.285L72.6324 163.894L71.7899 163.601L72.4561 161.739L70.5752 162.836L72.025 167.088L73.6316 168.499L73.7492 172.574L72.3581 175.003L68.3416 177.57L66.6566 181.469L64.7561 181.645L63.561 164.13L61.347 164.423L56.2725 161.289L52.7458 161.818L52.1384 158.879L53.0397 158.624L52.687 156.018L43.8116 157.429L43.2826 154.392L41.5388 154.451L40.9314 150.983L43.7528 150.18L43.1258 144.674L38.9918 145.203L38.7958 143.91L35.661 144.263L35.132 140.697L37.3068 140.383L37.1892 139.11L42.4205 138.385L42.4009 137.523L43.3217 137.464L43.3413 135.387L44.321 135.348L43.7919 131.194L47.7889 130.587L46.9856 125.356L43.5961 125.649L42.4597 117.695L39.2269 118.204L38.9722 116.167L34.8969 116.676L34.6617 114.756L33.3882 114.697L32.7809 111.739L31.2919 111.935L30.3514 103.764L28.1766 103.96L26.2565 90.2455L28.8232 89.7753L28.5881 88.1883L28.059 86.6404L26.1781 86.9343L25.512 83.682L27.6476 83.0354L27.9415 81.4288L21.2408 82.7415L21.4955 84.9555L20.1632 85.2298L20.3591 86.2486L18.5762 86.6209L17.4594 85.7L15.5589 85.9547L14.0502 87.5025L13.1686 86.7776L11.8559 78.9014L10.9742 78.9405L9.75944 71.8087L8.62309 70.5548L3 67.6747Z" fill="#484848" fill-opacity="0.1" stroke="white" stroke-width="2"/>
</svg>
