<svg width="172" height="223" viewBox="0 0 172 223" fill="none" xmlns="http://www.w3.org/2000/svg">
<path d="M72.8472 8.50477L74.5125 8.26966L78.6466 13.4813L79.3323 17.2235L81.8206 15.9304L86.9539 11.4633L90.1083 11.718L90.6177 12.5409L92.6358 12.8152L92.6554 13.8928L99.3953 14.0887L97.5927 14.9508L97.8083 15.421L99.0622 14.9312L98.2981 15.7149L101.021 26.9415L102.236 27.4705L104.587 24.9431L104.568 28.1954L105.606 30.3506L106.782 29.1163L106.997 26.7064L107.526 26.4713L107.174 24.0614L106.194 22.7683L110.308 15.0095L112.268 14.5981L115.873 12.0119L119.85 11.8943L120.32 13.6773L121.868 13.5401L123.847 12.0119L129.059 5.35036L132.977 5.17402L133.585 5.78139L132.742 7.81903L134.094 8.40681L133.643 9.54319L135.563 11.1106L135.936 13.6773L138.718 14.3434L139.188 18.2423L138.326 21.8474L139.697 24.0418V25.472L142.107 26.2362L143.44 31.7025L143.224 34.2692L145.791 33.603L145.81 34.5827L148.142 34.23L148.436 40.0686L145.575 45.3782L143.871 45.6329L143.91 44.9864L139.776 46.3187L141.578 55.2529L143.126 60.7977L143.694 60.9544L144.047 57.7608L145.144 57.4865L149.415 60.4058L152.452 64.8534L155.724 67.8314L152.687 72.5141L152.864 75.7861L153.53 76.4914L151.218 75.5902L149.376 75.7077L149.278 79.5087L150.885 80.0573L152.511 81.7031L153.922 85.2102L155.999 86.8951L156.567 88.1099L155.097 91.3623L156.959 92.6162L157.86 92.2048L158.35 93.7918L155.607 93.2628L154.745 93.733L154.941 95.222L156.371 96.1037L155.548 96.7111L155.822 97.8083L153.256 98.1413L155.626 98.7095L157.252 97.7103L159.937 98.1413L160.015 100.297L161.661 102.53L160.27 105.763L157.292 107.918L157.233 109.329L155.665 110.269L154.549 109.721L153.981 110.093L153.608 110.563L154.216 111.445L153.06 112.64L153.275 113.228L152.198 113.032L152.433 113.62L151.571 113.972L154.725 116.774L155.47 118.733L155.234 121.222L154.353 122.632L152.55 122.475L153.04 123.612L152.57 124.885L155.548 126.374L155.822 129.333L154.059 130.646L152.217 129.49L151.767 131.331L154.862 131.704L155.117 132.762L153.138 135.25L151.355 135.132L152.394 136.759L153.726 136.445L154.392 135.407L158.957 134.545L160.074 135.465L161.093 137.17L161.171 139.423L162.503 139.756L163.013 140.657L164.267 140.031L162.817 143.067L163.483 144.223L166.539 145.085L167.97 144.733L166.853 147.613L167.637 149.357L166.108 149.944L168.518 154.51L167.578 154.921L166.814 157.233L164.815 159.486L167.97 162.484L165.775 165.168L165.658 166.05L166.892 166.148L165.07 167.441L168.185 171.085L168.029 174.004L166.892 174.906L168.283 177.688L167.793 178.491L169.674 180.627L169.341 181.254L170.791 183.859L170.203 185.172L166.598 187.151L168.166 188.013L165.286 190.697L166.167 191.128L165.266 192.108L164.541 191.677L163.169 193.479L162.033 193.068L161.661 194.224L158.369 195.066L157.879 196.712L155.705 195.125L154.666 196.007L154.999 196.967L154.039 198.417L153.216 197.241L151.864 198.417L151.002 198.201L152.629 202.61L151.081 206.117L151.669 207.704L154.784 207.743L154.529 212.092L156.155 212.778L155.47 214.169L150.571 213.053L150.258 213.993L149.004 213.268L147.241 217.069L145.595 216.227L144.635 217.716L143.773 216.403L140.501 216.305L140.207 220.223H138.777L138.091 218.911L136.21 220.38L131.9 220.047L129.979 220.85L128.941 219.871L123.161 220.145L121.398 219.518L121.339 217.911L122.711 215.717L120.771 214.698L120.144 212.7L118.479 211.132L121.574 207.508L122.182 205.196L119.635 203.354L119.654 201.218L118.106 200.533L119.87 198.358L119.341 196.614L118.459 196.712L118.831 194.537L114.952 191.834L115.089 190.403L113.561 189.639L112.581 189.855L111.68 192.5L107.898 193.499L107.683 194.361L105.665 194.283L104.313 198.985L103.627 199.142L102.55 197.868L100.649 198.338L96.9658 197.378L95.5747 197.77L95.4375 200.552L93.5175 201.336L90.6765 196.83L87.816 197.947L86.8363 196.438H83.7407L82.6631 199.788L80.7822 200.807L77.8629 199.416L73.2978 198.632L72.083 197.418L71.9655 199.005L70.6528 200.161L70.1042 199.69L65.6175 199.906L62.8745 201.63L60.4646 201.806L52.8234 200.944L51.0797 201.885L49.0812 202.022L47.984 203.237L45.6329 203.766L44.6729 203.354L44.6925 204.236L43.4581 204.49L43.0467 206.078L41.734 206.293L37.9526 202.355L35.9933 201.963L37.6783 198.671L33.7205 197.986L33.0544 199.181L30.6445 194.851L30.8992 193.636L29.9784 191.069L30.8992 189.404L28.9791 189.659L27.255 187.602L26.5496 188.385L25.6679 188.189L25.6288 185.231L26.2753 185.113L26.3929 183.918L27.4509 183.546L25.8051 179.098L25.7463 177.1L26.4713 177.002L26.7456 176.199L27.6272 176.257L29.9 177.746L31.9376 174.416L33.6814 175.572L34.5434 174.455L33.701 170.282L30.2527 169.302L31.1539 167.578L30.8796 166.52L32.016 166.383L30.9384 165.54L31.3694 163.307L34.5826 161.876L33.5246 160.583L33.4463 158.291L31.6437 158.859L32.0356 160.387L30.8013 160.564L29.7432 155.94L28.8028 156.136L29.0379 151.649L25.4328 152.844L24.4924 154.823L23.8458 154.862L21.9453 153.491L21.2988 151.767L18.8497 151.316L18.8301 149.846L17.4978 149.729L17.4586 150.258L15.323 148.338L16.381 148.455L16.1067 147.828L17.2235 147.417L14.892 145.027L13.736 144.125L10.4248 144.067L10.5816 140.207L6.03609 137.464L6.58468 134.603L8.79864 130.822L9.28845 127.276L7.17247 127.432L6.64346 125.101L3.31271 123.161L2.35265 120.046L4.70377 119.556L3.72414 117.538L4.6058 115.638L2 113.698L3.37148 112.15L3.48903 110.387L2.80328 109.74L3.39106 108.878L5.58544 108.369L7.66229 103.49L6.89817 100.963L7.3488 99.1602L5.50708 98.3765L5.54627 96.0449L4.9389 95.4376L5.4875 92.3811L4.8801 91.1664L6.07525 89.2855L5.70302 87.9923L6.232 86.7384L5.70302 86.3074L6.34955 85.1318L3.80252 82.8786L4.03763 81.4484L5.17401 80.9977L5.13481 80.0377L2.52898 74.2579L4.31192 73.4154L4.1356 71.0838L7.68187 70.8095L8.01494 69.8691L11.1302 69.7711L10.4053 68.1645L10.7971 65.9897L13.6185 64.0697L13.5401 59.3478L14.5001 58.858L14.2062 57.8784L16.9884 52.941L20.7894 49.2576L20.6326 48.1996L19.0652 47.3571L20.0449 46.3579L18.5558 41.5577L22.1217 40.8131L23.8654 38.1877L23.8263 35.4251L22.0433 34.5827L22.925 26.5888L24.7863 26.5301L24.4924 28.6265L27.255 30.4486L28.0583 31.918L30.1155 31.8985L29.1751 28.9791H27.9211L27.8232 23.8067L30.7621 23.356L32.5058 21.24L33.8185 21.6711L33.4071 19.6922L38.3053 23.8654L39.8139 24.0418L42.4393 18.066L44.7512 17.7329L45.7113 16.9296L44.1635 13.305L45.0843 9.97423L43.8108 9.01419L45.9072 7.54474L49.9629 9.03378L50.6486 10.2877L50.4331 13.1482L52.0005 12.8348L52.8234 11.4045L54.1949 11.4241L51.8046 15.2055L58.2114 14.4022L60.347 12.9719L62.3651 13.1482L64.2264 10.1506L65.9309 9.87626L66.9694 8.1521L67.2436 5.82058L72.8668 2L73.5329 2.64656L72.8472 8.50477Z" stroke="white" stroke-width="2"/>
</svg>
